<mxfile host="Electron" modified="2023-09-12T07:03:34.112Z" agent="Mozilla/5.0 (Windows NT 10.0; Win64; x64) AppleWebKit/537.36 (KHTML, like Gecko) draw.io/21.6.8 Chrome/114.0.5735.289 Electron/25.5.0 Safari/537.36" etag="FoJk6PSCKbHgom3FDhcn" version="21.6.8" type="device" pages="5">
  <diagram name="Collector Hardware Command Protocol" id="12e1b939-464a-85fe-373e-61e167be1490">
    <mxGraphModel dx="1206" dy="809" grid="1" gridSize="10" guides="1" tooltips="1" connect="1" arrows="1" fold="1" page="1" pageScale="1.5" pageWidth="1169" pageHeight="826" background="none" math="0" shadow="0">
      <root>
        <mxCell id="0" />
        <mxCell id="1" parent="0" />
        <mxCell id="0OTdzB0N9XU9aKeygVHz-10" value="" style="html=1;shadow=0;dashed=0;shape=mxgraph.bootstrap.rrect;rSize=5;strokeColor=#DFDFDF;html=1;whiteSpace=wrap;fillColor=#FFFFFF;fontColor=#000000;" parent="1" vertex="1">
          <mxGeometry x="320" y="920" width="280" height="120" as="geometry" />
        </mxCell>
        <mxCell id="0OTdzB0N9XU9aKeygVHz-11" value="write to memory" style="strokeColor=inherit;fillColor=inherit;gradientColor=inherit;fontColor=inherit;html=1;shadow=0;dashed=0;shape=mxgraph.bootstrap.topButton;rSize=5;perimeter=none;whiteSpace=wrap;resizeWidth=1;align=left;spacing=10;" parent="0OTdzB0N9XU9aKeygVHz-10" vertex="1">
          <mxGeometry width="200" height="30" relative="1" as="geometry">
            <mxPoint x="80" as="offset" />
          </mxGeometry>
        </mxCell>
        <mxCell id="0OTdzB0N9XU9aKeygVHz-12" value="&lt;span style=&quot;color: rgb(0 , 0 , 0)&quot;&gt;read from memory&lt;/span&gt;" style="html=1;fillColor=#B8DCFE;strokeColor=#A1C0DE;fontColor=#004583;shadow=0;dashed=0;perimeter=none;whiteSpace=wrap;resizeWidth=1;align=left;spacing=10;" parent="0OTdzB0N9XU9aKeygVHz-10" vertex="1">
          <mxGeometry width="200" height="30" relative="1" as="geometry">
            <mxPoint x="80" y="30" as="offset" />
          </mxGeometry>
        </mxCell>
        <mxCell id="0OTdzB0N9XU9aKeygVHz-13" value="&lt;span style=&quot;color: rgb(0 , 0 , 0)&quot;&gt;erase all memory&lt;/span&gt;" style="html=1;fillColor=#FFECBC;strokeColor=#DFCEA4;fontColor=#856110;shadow=0;dashed=0;perimeter=none;whiteSpace=wrap;resizeWidth=1;align=left;spacing=10;" parent="0OTdzB0N9XU9aKeygVHz-10" vertex="1">
          <mxGeometry width="200" height="30" relative="1" as="geometry">
            <mxPoint x="80" y="60" as="offset" />
          </mxGeometry>
        </mxCell>
        <mxCell id="0OTdzB0N9XU9aKeygVHz-15" value="&lt;span style=&quot;color: rgb(14 , 85 , 96)&quot;&gt;print all memory information&lt;/span&gt;" style="html=1;shadow=0;dashed=0;shape=mxgraph.bootstrap.bottomButton;fillColor=#C6C8CA;strokeColor=#ADAFB1;fontColor=#1B1E21;rSize=5;perimeter=none;whiteSpace=wrap;resizeWidth=1;resizeHeight=0;align=left;spacing=10;" parent="0OTdzB0N9XU9aKeygVHz-10" vertex="1">
          <mxGeometry y="1" width="200" height="30" relative="1" as="geometry">
            <mxPoint x="80" y="-30" as="offset" />
          </mxGeometry>
        </mxCell>
        <mxCell id="0OTdzB0N9XU9aKeygVHz-16" value="&lt;font style=&quot;font-size: 14px&quot;&gt;0x01&lt;/font&gt;" style="html=1;shadow=0;dashed=0;shape=mxgraph.bootstrap.rrect;rSize=5;strokeColor=#33A64C;strokeWidth=1;fillColor=none;fontColor=#33A64C;whiteSpace=wrap;align=center;verticalAlign=middle;spacingLeft=0;fontStyle=0;fontSize=16;spacing=5;" parent="0OTdzB0N9XU9aKeygVHz-10" vertex="1">
          <mxGeometry width="80" height="30" as="geometry" />
        </mxCell>
        <mxCell id="0OTdzB0N9XU9aKeygVHz-17" value="&lt;span style=&quot;font-size: 14px&quot;&gt;0x02&lt;/span&gt;" style="html=1;shadow=0;dashed=0;shape=mxgraph.bootstrap.rrect;rSize=5;strokeColor=#33A64C;strokeWidth=1;fillColor=none;fontColor=#33A64C;whiteSpace=wrap;align=center;verticalAlign=middle;spacingLeft=0;fontStyle=0;fontSize=16;spacing=5;" parent="0OTdzB0N9XU9aKeygVHz-10" vertex="1">
          <mxGeometry y="30" width="80" height="30" as="geometry" />
        </mxCell>
        <mxCell id="0OTdzB0N9XU9aKeygVHz-18" value="&lt;font style=&quot;font-size: 14px&quot;&gt;0x03&lt;/font&gt;" style="html=1;shadow=0;dashed=0;shape=mxgraph.bootstrap.rrect;rSize=5;strokeColor=#33A64C;strokeWidth=1;fillColor=none;fontColor=#33A64C;whiteSpace=wrap;align=center;verticalAlign=middle;spacingLeft=0;fontStyle=0;fontSize=16;spacing=5;" parent="0OTdzB0N9XU9aKeygVHz-10" vertex="1">
          <mxGeometry y="60" width="80" height="30" as="geometry" />
        </mxCell>
        <mxCell id="0OTdzB0N9XU9aKeygVHz-19" value="&lt;font style=&quot;font-size: 14px&quot;&gt;0x04&lt;/font&gt;" style="html=1;shadow=0;dashed=0;shape=mxgraph.bootstrap.rrect;rSize=5;strokeColor=#33A64C;strokeWidth=1;fillColor=none;fontColor=#33A64C;whiteSpace=wrap;align=center;verticalAlign=middle;spacingLeft=0;fontStyle=0;fontSize=16;spacing=5;" parent="0OTdzB0N9XU9aKeygVHz-10" vertex="1">
          <mxGeometry y="90" width="80" height="30" as="geometry" />
        </mxCell>
        <mxCell id="u1n7_bYdNOXMyb52SufM-19" value="" style="html=1;shadow=0;dashed=0;shape=mxgraph.bootstrap.rrect;rSize=5;strokeColor=#DFDFDF;html=1;whiteSpace=wrap;fillColor=#FFFFFF;fontColor=#000000;" parent="1" vertex="1">
          <mxGeometry x="600" y="920" width="280" height="60" as="geometry" />
        </mxCell>
        <mxCell id="u1n7_bYdNOXMyb52SufM-20" value="collector hardware ID" style="strokeColor=inherit;fillColor=inherit;gradientColor=inherit;fontColor=inherit;html=1;shadow=0;dashed=0;shape=mxgraph.bootstrap.topButton;rSize=5;perimeter=none;whiteSpace=wrap;resizeWidth=1;align=left;spacing=10;" parent="u1n7_bYdNOXMyb52SufM-19" vertex="1">
          <mxGeometry width="200" height="30" relative="1" as="geometry">
            <mxPoint x="80" as="offset" />
          </mxGeometry>
        </mxCell>
        <mxCell id="u1n7_bYdNOXMyb52SufM-23" value="&lt;span style=&quot;color: rgb(0 , 0 , 0)&quot;&gt;farm ID&lt;/span&gt;" style="html=1;shadow=0;dashed=0;shape=mxgraph.bootstrap.bottomButton;fillColor=#C6C8CA;strokeColor=#ADAFB1;fontColor=#1B1E21;rSize=5;perimeter=none;whiteSpace=wrap;resizeWidth=1;resizeHeight=0;align=left;spacing=10;" parent="u1n7_bYdNOXMyb52SufM-19" vertex="1">
          <mxGeometry y="1" width="200" height="30" relative="1" as="geometry">
            <mxPoint x="80" y="-30" as="offset" />
          </mxGeometry>
        </mxCell>
        <mxCell id="u1n7_bYdNOXMyb52SufM-24" value="&lt;font style=&quot;font-size: 14px&quot;&gt;0x0000&lt;/font&gt;" style="html=1;shadow=0;dashed=0;shape=mxgraph.bootstrap.rrect;rSize=5;strokeColor=#33A64C;strokeWidth=1;fillColor=none;fontColor=#33A64C;whiteSpace=wrap;align=center;verticalAlign=middle;spacingLeft=0;fontStyle=0;fontSize=16;spacing=5;" parent="u1n7_bYdNOXMyb52SufM-19" vertex="1">
          <mxGeometry width="80" height="30" as="geometry" />
        </mxCell>
        <mxCell id="u1n7_bYdNOXMyb52SufM-25" value="&lt;span style=&quot;font-size: 14px&quot;&gt;0x0010&lt;/span&gt;" style="html=1;shadow=0;dashed=0;shape=mxgraph.bootstrap.rrect;rSize=5;strokeColor=#33A64C;strokeWidth=1;fillColor=none;fontColor=#33A64C;whiteSpace=wrap;align=center;verticalAlign=middle;spacingLeft=0;fontStyle=0;fontSize=16;spacing=5;" parent="u1n7_bYdNOXMyb52SufM-19" vertex="1">
          <mxGeometry y="30" width="80" height="30" as="geometry" />
        </mxCell>
        <mxCell id="t5FsK6aIz_OKfltaFPyi-1" value="" style="edgeStyle=orthogonalEdgeStyle;rounded=0;orthogonalLoop=1;jettySize=auto;html=1;fontSize=14;" parent="1" source="yYcCx6XlA0PCagg4uNfT-1" target="JN9rHNK6d5a4DC6Q4mLD-70" edge="1">
          <mxGeometry relative="1" as="geometry" />
        </mxCell>
        <mxCell id="yYcCx6XlA0PCagg4uNfT-1" value="&lt;span style=&quot;font-size: 20px&quot;&gt;&lt;b&gt;Collector Hardware ID&amp;nbsp;&lt;/b&gt;&lt;/span&gt;&lt;br style=&quot;font-size: 14px&quot;&gt;&lt;br style=&quot;font-size: 14px&quot;&gt;Each collector hardware has unique identification." style="html=1;shadow=0;dashed=0;shape=mxgraph.bootstrap.rrect;rSize=5;strokeColor=#0071D5;html=1;whiteSpace=wrap;fillColor=#0085FC;fontColor=#ffffff;verticalAlign=bottom;align=left;spacing=20;spacingBottom=0;fontSize=14;" parent="1" vertex="1">
          <mxGeometry x="40" y="80" width="280" height="200" as="geometry" />
        </mxCell>
        <mxCell id="yYcCx6XlA0PCagg4uNfT-2" value="&lt;b&gt;CollectorID&lt;/b&gt;" style="html=1;shadow=0;dashed=0;shape=mxgraph.bootstrap.topButton;rSize=5;perimeter=none;whiteSpace=wrap;fillColor=#0081F4;strokeColor=#0071D5;fontColor=#ffffff;resizeWidth=1;fontSize=18;align=left;spacing=20;" parent="yYcCx6XlA0PCagg4uNfT-1" vertex="1">
          <mxGeometry width="280" height="50" relative="1" as="geometry" />
        </mxCell>
        <mxCell id="JN9rHNK6d5a4DC6Q4mLD-7" value="&lt;span style=&quot;font-size: 16px; font-weight: 400;&quot;&gt;byte0&lt;/span&gt;" style="rounded=1;whiteSpace=wrap;html=1;arcSize=50;strokeColor=none;strokeWidth=1;fillColor=#343A40;fontColor=#ffffff;whiteSpace=wrap;align=center;verticalAlign=middle;spacingLeft=0;fontStyle=1;fontSize=14;spacing=10;" parent="yYcCx6XlA0PCagg4uNfT-1" vertex="1">
          <mxGeometry y="49.99666666666667" width="67.2" height="33.333333333333336" as="geometry" />
        </mxCell>
        <mxCell id="JN9rHNK6d5a4DC6Q4mLD-8" value="&lt;span style=&quot;font-size: 16px; font-weight: 400;&quot;&gt;byte1&lt;br&gt;&lt;/span&gt;" style="rounded=1;whiteSpace=wrap;html=1;arcSize=50;strokeColor=none;strokeWidth=1;fillColor=#343A40;fontColor=#ffffff;whiteSpace=wrap;align=center;verticalAlign=middle;spacingLeft=0;fontStyle=1;fontSize=14;spacing=10;" parent="yYcCx6XlA0PCagg4uNfT-1" vertex="1">
          <mxGeometry x="67.2" y="49.99666666666667" width="67.2" height="33.333333333333336" as="geometry" />
        </mxCell>
        <mxCell id="JN9rHNK6d5a4DC6Q4mLD-9" value="&lt;span style=&quot;font-size: 16px; font-weight: 400;&quot;&gt;byte2&lt;br&gt;&lt;/span&gt;" style="rounded=1;whiteSpace=wrap;html=1;arcSize=50;strokeColor=none;strokeWidth=1;fillColor=#343A40;fontColor=#ffffff;whiteSpace=wrap;align=center;verticalAlign=middle;spacingLeft=0;fontStyle=1;fontSize=14;spacing=10;" parent="yYcCx6XlA0PCagg4uNfT-1" vertex="1">
          <mxGeometry x="134.4" y="49.99666666666667" width="67.2" height="33.333333333333336" as="geometry" />
        </mxCell>
        <mxCell id="JN9rHNK6d5a4DC6Q4mLD-10" value="&lt;span style=&quot;font-size: 16px; font-weight: 400;&quot;&gt;byte3&lt;br&gt;&lt;/span&gt;" style="rounded=1;whiteSpace=wrap;html=1;arcSize=50;strokeColor=none;strokeWidth=1;fillColor=#343A40;fontColor=#ffffff;whiteSpace=wrap;align=center;verticalAlign=middle;spacingLeft=0;fontStyle=1;fontSize=14;spacing=10;" parent="yYcCx6XlA0PCagg4uNfT-1" vertex="1">
          <mxGeometry x="201.60000000000002" y="49.99666666666667" width="67.2" height="33.333333333333336" as="geometry" />
        </mxCell>
        <mxCell id="JN9rHNK6d5a4DC6Q4mLD-11" value="&lt;b&gt;&lt;span style=&quot;font-size: 20px&quot;&gt;Function ID For Control&amp;nbsp;&lt;/span&gt;&lt;/b&gt;&lt;br style=&quot;font-size: 14px&quot;&gt;&lt;br style=&quot;font-size: 14px&quot;&gt;Each protocol function has specific identification. The specific agreement is as follows." style="html=1;shadow=0;dashed=0;shape=mxgraph.bootstrap.rrect;rSize=5;strokeColor=#BA2239;html=1;whiteSpace=wrap;fillColor=#DB2843;fontColor=#ffffff;verticalAlign=bottom;align=left;spacing=20;spacingBottom=0;fontSize=14;" parent="1" vertex="1">
          <mxGeometry x="320" y="80" width="280" height="200" as="geometry" />
        </mxCell>
        <mxCell id="JN9rHNK6d5a4DC6Q4mLD-12" value="FunctionID" style="html=1;shadow=0;dashed=0;shape=mxgraph.bootstrap.topButton;rSize=5;perimeter=none;whiteSpace=wrap;fillColor=#D42741;strokeColor=#BA2239;fontColor=#ffffff;resizeWidth=1;fontSize=18;align=left;spacing=20;" parent="JN9rHNK6d5a4DC6Q4mLD-11" vertex="1">
          <mxGeometry width="280" height="50" relative="1" as="geometry" />
        </mxCell>
        <mxCell id="JN9rHNK6d5a4DC6Q4mLD-54" value="&lt;span style=&quot;font-size: 16px ; font-weight: 400&quot;&gt;byte4&lt;/span&gt;" style="rounded=1;whiteSpace=wrap;html=1;arcSize=50;strokeColor=none;strokeWidth=1;fillColor=#343A40;fontColor=#ffffff;whiteSpace=wrap;align=center;verticalAlign=middle;spacingLeft=0;fontStyle=1;fontSize=14;spacing=10;" parent="JN9rHNK6d5a4DC6Q4mLD-11" vertex="1">
          <mxGeometry y="49.99666666666667" width="67.2" height="33.333333333333336" as="geometry" />
        </mxCell>
        <mxCell id="JN9rHNK6d5a4DC6Q4mLD-15" value="" style="html=1;shadow=0;dashed=0;shape=mxgraph.bootstrap.rrect;rSize=5;strokeColor=#DFDFDF;html=1;whiteSpace=wrap;fillColor=#FFFFFF;fontColor=#000000;" parent="1" vertex="1">
          <mxGeometry x="320" y="320" width="280" height="180" as="geometry" />
        </mxCell>
        <mxCell id="JN9rHNK6d5a4DC6Q4mLD-16" value="system reset" style="strokeColor=inherit;fillColor=inherit;gradientColor=inherit;fontColor=inherit;html=1;shadow=0;dashed=0;shape=mxgraph.bootstrap.topButton;rSize=5;perimeter=none;whiteSpace=wrap;resizeWidth=1;align=left;spacing=10;" parent="JN9rHNK6d5a4DC6Q4mLD-15" vertex="1">
          <mxGeometry width="200" height="30" relative="1" as="geometry">
            <mxPoint x="80" as="offset" />
          </mxGeometry>
        </mxCell>
        <mxCell id="JN9rHNK6d5a4DC6Q4mLD-17" value="&lt;span style=&quot;color: rgb(0 , 0 , 0)&quot;&gt;Reserved&lt;/span&gt;" style="html=1;fillColor=#B8DCFE;strokeColor=#A1C0DE;fontColor=#004583;shadow=0;dashed=0;perimeter=none;whiteSpace=wrap;resizeWidth=1;align=left;spacing=10;" parent="JN9rHNK6d5a4DC6Q4mLD-15" vertex="1">
          <mxGeometry width="200" height="30" relative="1" as="geometry">
            <mxPoint x="80" y="30" as="offset" />
          </mxGeometry>
        </mxCell>
        <mxCell id="JN9rHNK6d5a4DC6Q4mLD-21" value="&lt;span style=&quot;color: rgb(0 , 0 , 0)&quot;&gt;Reserved&lt;/span&gt;" style="html=1;fillColor=#FFECBC;strokeColor=#DFCEA4;fontColor=#856110;shadow=0;dashed=0;perimeter=none;whiteSpace=wrap;resizeWidth=1;align=left;spacing=10;" parent="JN9rHNK6d5a4DC6Q4mLD-15" vertex="1">
          <mxGeometry width="200" height="30" relative="1" as="geometry">
            <mxPoint x="80" y="60" as="offset" />
          </mxGeometry>
        </mxCell>
        <mxCell id="JN9rHNK6d5a4DC6Q4mLD-22" value="&lt;span style=&quot;color: rgb(0 , 0 , 0)&quot;&gt;Reserved&lt;/span&gt;" style="html=1;fillColor=#BFE6EB;strokeColor=#A7C9CE;fontColor=#0E5560;shadow=0;dashed=0;perimeter=none;whiteSpace=wrap;resizeWidth=1;align=left;spacing=10;" parent="JN9rHNK6d5a4DC6Q4mLD-15" vertex="1">
          <mxGeometry width="200" height="30" relative="1" as="geometry">
            <mxPoint x="80" y="90" as="offset" />
          </mxGeometry>
        </mxCell>
        <mxCell id="JN9rHNK6d5a4DC6Q4mLD-24" value="read collector UTC time" style="html=1;shadow=0;dashed=0;shape=mxgraph.bootstrap.bottomButton;fillColor=#C6C8CA;strokeColor=#ADAFB1;fontColor=#1B1E21;rSize=5;perimeter=none;whiteSpace=wrap;resizeWidth=1;resizeHeight=0;align=left;spacing=10;" parent="JN9rHNK6d5a4DC6Q4mLD-15" vertex="1">
          <mxGeometry y="1" width="200" height="30" relative="1" as="geometry">
            <mxPoint x="80" y="-30" as="offset" />
          </mxGeometry>
        </mxCell>
        <mxCell id="JN9rHNK6d5a4DC6Q4mLD-38" value="&lt;font style=&quot;font-size: 14px&quot;&gt;0xA0&lt;/font&gt;" style="html=1;shadow=0;dashed=0;shape=mxgraph.bootstrap.rrect;rSize=5;strokeColor=#33A64C;strokeWidth=1;fillColor=none;fontColor=#33A64C;whiteSpace=wrap;align=center;verticalAlign=middle;spacingLeft=0;fontStyle=0;fontSize=16;spacing=5;" parent="JN9rHNK6d5a4DC6Q4mLD-15" vertex="1">
          <mxGeometry width="80" height="30" as="geometry" />
        </mxCell>
        <mxCell id="JN9rHNK6d5a4DC6Q4mLD-39" value="&lt;span style=&quot;font-size: 14px&quot;&gt;……&lt;/span&gt;" style="html=1;shadow=0;dashed=0;shape=mxgraph.bootstrap.rrect;rSize=5;strokeColor=#33A64C;strokeWidth=1;fillColor=none;fontColor=#33A64C;whiteSpace=wrap;align=center;verticalAlign=middle;spacingLeft=0;fontStyle=0;fontSize=16;spacing=5;" parent="JN9rHNK6d5a4DC6Q4mLD-15" vertex="1">
          <mxGeometry y="60" width="80" height="30" as="geometry" />
        </mxCell>
        <mxCell id="JN9rHNK6d5a4DC6Q4mLD-40" value="&lt;font style=&quot;font-size: 14px&quot;&gt;0xA7&lt;/font&gt;" style="html=1;shadow=0;dashed=0;shape=mxgraph.bootstrap.rrect;rSize=5;strokeColor=#33A64C;strokeWidth=1;fillColor=none;fontColor=#33A64C;whiteSpace=wrap;align=center;verticalAlign=middle;spacingLeft=0;fontStyle=0;fontSize=16;spacing=5;" parent="JN9rHNK6d5a4DC6Q4mLD-15" vertex="1">
          <mxGeometry y="90" width="80" height="30" as="geometry" />
        </mxCell>
        <mxCell id="JN9rHNK6d5a4DC6Q4mLD-41" value="&lt;font style=&quot;font-size: 14px&quot;&gt;0xA8&lt;/font&gt;" style="html=1;shadow=0;dashed=0;shape=mxgraph.bootstrap.rrect;rSize=5;strokeColor=#33A64C;strokeWidth=1;fillColor=none;fontColor=#33A64C;whiteSpace=wrap;align=center;verticalAlign=middle;spacingLeft=0;fontStyle=0;fontSize=16;spacing=5;" parent="JN9rHNK6d5a4DC6Q4mLD-15" vertex="1">
          <mxGeometry y="120" width="80" height="30" as="geometry" />
        </mxCell>
        <mxCell id="JN9rHNK6d5a4DC6Q4mLD-42" value="&lt;font style=&quot;font-size: 14px&quot;&gt;0xA9&lt;/font&gt;" style="html=1;shadow=0;dashed=0;shape=mxgraph.bootstrap.rrect;rSize=5;strokeColor=#33A64C;strokeWidth=1;fillColor=none;fontColor=#33A64C;whiteSpace=wrap;align=center;verticalAlign=middle;spacingLeft=0;fontStyle=0;fontSize=16;spacing=5;" parent="JN9rHNK6d5a4DC6Q4mLD-15" vertex="1">
          <mxGeometry y="150" width="80" height="30" as="geometry" />
        </mxCell>
        <mxCell id="4aPcJENpNip2amdIiAOl-1" value="&lt;span style=&quot;color: rgb(14 , 85 , 96) ; font-size: 12px&quot;&gt;set collector UTC time&lt;/span&gt;" style="html=1;fillColor=#F4C5CB;strokeColor=#D5ACB2;fontColor=#711623;shadow=0;dashed=0;perimeter=none;whiteSpace=wrap;resizeWidth=1;align=left;spacing=10;fontSize=14;" parent="JN9rHNK6d5a4DC6Q4mLD-15" vertex="1">
          <mxGeometry x="80" y="120" width="200" height="30" as="geometry" />
        </mxCell>
        <mxCell id="4aPcJENpNip2amdIiAOl-2" value="&lt;font style=&quot;font-size: 14px&quot;&gt;0xA1&lt;/font&gt;" style="html=1;shadow=0;dashed=0;shape=mxgraph.bootstrap.rrect;rSize=5;strokeColor=#33A64C;strokeWidth=1;fillColor=none;fontColor=#33A64C;whiteSpace=wrap;align=center;verticalAlign=middle;spacingLeft=0;fontStyle=0;fontSize=16;spacing=5;" parent="JN9rHNK6d5a4DC6Q4mLD-15" vertex="1">
          <mxGeometry y="30" width="80" height="30" as="geometry" />
        </mxCell>
        <mxCell id="JN9rHNK6d5a4DC6Q4mLD-30" value="byte4" style="html=1;shadow=0;dashed=0;shape=mxgraph.bootstrap.rrect;rSize=5;strokeColor=none;strokeWidth=1;fillColor=#33A64C;fontColor=#ffffff;whiteSpace=wrap;align=left;verticalAlign=middle;fontStyle=0;fontSize=14;spacingLeft=10;" parent="1" vertex="1">
          <mxGeometry x="320" y="290" width="80" height="30" as="geometry" />
        </mxCell>
        <mxCell id="JN9rHNK6d5a4DC6Q4mLD-31" value="" style="shape=triangle;direction=south;fillColor=#ffffff;strokeColor=none;perimeter=none;" parent="JN9rHNK6d5a4DC6Q4mLD-30" vertex="1">
          <mxGeometry x="1" y="0.5" width="10" height="5" relative="1" as="geometry">
            <mxPoint x="-17" y="-2.5" as="offset" />
          </mxGeometry>
        </mxCell>
        <mxCell id="JN9rHNK6d5a4DC6Q4mLD-68" value="&lt;b&gt;&lt;font style=&quot;font-size: 20px&quot;&gt;Command Data Value&lt;/font&gt;&lt;/b&gt;&lt;br style=&quot;font-size: 14px&quot;&gt;&lt;br style=&quot;font-size: 14px&quot;&gt;Command data for the corresponding function. The specific agreement is as follows." style="html=1;shadow=0;dashed=0;shape=mxgraph.bootstrap.rrect;rSize=5;strokeColor=#33A64C;html=1;whiteSpace=wrap;fillColor=#ffffff;fontColor=#33A64C;verticalAlign=bottom;align=left;spacing=20;spacingBottom=0;fontSize=14;" parent="1" vertex="1">
          <mxGeometry x="600" y="80" width="280" height="200" as="geometry" />
        </mxCell>
        <mxCell id="JN9rHNK6d5a4DC6Q4mLD-69" value="Command Data" style="html=1;shadow=0;dashed=0;shape=mxgraph.bootstrap.topButton;rSize=5;perimeter=none;whiteSpace=wrap;fillColor=#F7F7F7;strokeColor=#33A64C;fontColor=#6C767D;resizeWidth=1;fontSize=18;align=left;spacing=20;" parent="JN9rHNK6d5a4DC6Q4mLD-68" vertex="1">
          <mxGeometry width="280" height="50" relative="1" as="geometry" />
        </mxCell>
        <mxCell id="JN9rHNK6d5a4DC6Q4mLD-62" value="&lt;span style=&quot;font-size: 16px ; font-weight: 400&quot;&gt;byte5&lt;/span&gt;" style="rounded=1;whiteSpace=wrap;html=1;arcSize=50;strokeColor=none;strokeWidth=1;fillColor=#343A40;fontColor=#ffffff;whiteSpace=wrap;align=center;verticalAlign=middle;spacingLeft=0;fontStyle=1;fontSize=14;spacing=10;" parent="JN9rHNK6d5a4DC6Q4mLD-68" vertex="1">
          <mxGeometry y="49.99666666666667" width="67.2" height="33.333333333333336" as="geometry" />
        </mxCell>
        <mxCell id="JN9rHNK6d5a4DC6Q4mLD-63" value="&lt;span style=&quot;font-size: 16px ; font-weight: 400&quot;&gt;……&lt;br&gt;&lt;/span&gt;" style="rounded=1;whiteSpace=wrap;html=1;arcSize=50;strokeColor=none;strokeWidth=1;fillColor=#343A40;fontColor=#ffffff;whiteSpace=wrap;align=center;verticalAlign=middle;spacingLeft=0;fontStyle=1;fontSize=14;spacing=10;" parent="JN9rHNK6d5a4DC6Q4mLD-68" vertex="1">
          <mxGeometry x="67.20000000000005" y="49.99666666666667" width="67.2" height="33.333333333333336" as="geometry" />
        </mxCell>
        <mxCell id="JN9rHNK6d5a4DC6Q4mLD-64" value="&lt;span style=&quot;font-size: 16px ; font-weight: 400&quot;&gt;……&lt;br&gt;&lt;/span&gt;" style="rounded=1;whiteSpace=wrap;html=1;arcSize=50;strokeColor=none;strokeWidth=1;fillColor=#343A40;fontColor=#ffffff;whiteSpace=wrap;align=center;verticalAlign=middle;spacingLeft=0;fontStyle=1;fontSize=14;spacing=10;" parent="JN9rHNK6d5a4DC6Q4mLD-68" vertex="1">
          <mxGeometry x="134.39999999999998" y="49.99666666666667" width="67.2" height="33.333333333333336" as="geometry" />
        </mxCell>
        <mxCell id="JN9rHNK6d5a4DC6Q4mLD-65" value="&lt;span style=&quot;font-size: 16px ; font-weight: 400&quot;&gt;……&lt;br&gt;&lt;/span&gt;" style="rounded=1;whiteSpace=wrap;html=1;arcSize=50;strokeColor=none;strokeWidth=1;fillColor=#343A40;fontColor=#ffffff;whiteSpace=wrap;align=center;verticalAlign=middle;spacingLeft=0;fontStyle=1;fontSize=14;spacing=10;" parent="JN9rHNK6d5a4DC6Q4mLD-68" vertex="1">
          <mxGeometry x="201.5999999999999" y="49.99666666666667" width="67.2" height="33.333333333333336" as="geometry" />
        </mxCell>
        <mxCell id="JN9rHNK6d5a4DC6Q4mLD-70" value="&lt;b&gt;Collector Hardware Command Protocol&lt;br&gt;&lt;/b&gt;" style="html=1;shadow=0;dashed=0;shape=mxgraph.bootstrap.rrect;rSize=5;strokeColor=#B8DCFE;strokeWidth=1;fillColor=#CCE7FE;fontColor=#004583;whiteSpace=wrap;align=left;verticalAlign=middle;spacingLeft=10;fontSize=14;" parent="1" vertex="1">
          <mxGeometry x="40" width="1120" height="30" as="geometry" />
        </mxCell>
        <mxCell id="JN9rHNK6d5a4DC6Q4mLD-72" value="" style="html=1;shadow=0;dashed=0;shape=mxgraph.bootstrap.rrect;rSize=5;strokeColor=#DFDFDF;html=1;whiteSpace=wrap;fillColor=#FFFFFF;fontColor=#000000;" parent="1" vertex="1">
          <mxGeometry x="600" y="320" width="280" height="210" as="geometry" />
        </mxCell>
        <mxCell id="JN9rHNK6d5a4DC6Q4mLD-73" value="year of&amp;nbsp;&lt;span style=&quot;color: rgb(14 , 85 , 96)&quot;&gt;UTC, Hex&lt;/span&gt;" style="strokeColor=inherit;fillColor=inherit;gradientColor=inherit;fontColor=inherit;html=1;shadow=0;dashed=0;shape=mxgraph.bootstrap.topButton;rSize=5;perimeter=none;whiteSpace=wrap;resizeWidth=1;align=left;spacing=10;" parent="JN9rHNK6d5a4DC6Q4mLD-72" vertex="1">
          <mxGeometry width="200" height="30" relative="1" as="geometry">
            <mxPoint x="80" as="offset" />
          </mxGeometry>
        </mxCell>
        <mxCell id="JN9rHNK6d5a4DC6Q4mLD-74" value="&lt;span style=&quot;color: rgb(0 , 0 , 0)&quot;&gt;month of&amp;nbsp;&lt;/span&gt;&lt;span style=&quot;color: rgb(14 , 85 , 96)&quot;&gt;UTC, Hex&lt;/span&gt;" style="html=1;fillColor=#B8DCFE;strokeColor=#A1C0DE;fontColor=#004583;shadow=0;dashed=0;perimeter=none;whiteSpace=wrap;resizeWidth=1;align=left;spacing=10;" parent="JN9rHNK6d5a4DC6Q4mLD-72" vertex="1">
          <mxGeometry width="200" height="30" relative="1" as="geometry">
            <mxPoint x="80" y="30" as="offset" />
          </mxGeometry>
        </mxCell>
        <mxCell id="JN9rHNK6d5a4DC6Q4mLD-75" value="&lt;span style=&quot;color: rgb(0 , 0 , 0)&quot;&gt;date of&amp;nbsp;&lt;/span&gt;&lt;span style=&quot;color: rgb(14 , 85 , 96)&quot;&gt;UTC, Hex&lt;/span&gt;" style="html=1;fillColor=#FFECBC;strokeColor=#DFCEA4;fontColor=#856110;shadow=0;dashed=0;perimeter=none;whiteSpace=wrap;resizeWidth=1;align=left;spacing=10;" parent="JN9rHNK6d5a4DC6Q4mLD-72" vertex="1">
          <mxGeometry width="200" height="30" relative="1" as="geometry">
            <mxPoint x="80" y="60" as="offset" />
          </mxGeometry>
        </mxCell>
        <mxCell id="JN9rHNK6d5a4DC6Q4mLD-76" value="&lt;span style=&quot;color: rgb(0 , 0 , 0)&quot;&gt;weekday of&amp;nbsp;&lt;/span&gt;UTC, Hex" style="html=1;fillColor=#BFE6EB;strokeColor=#A7C9CE;fontColor=#0E5560;shadow=0;dashed=0;perimeter=none;whiteSpace=wrap;resizeWidth=1;align=left;spacing=10;" parent="JN9rHNK6d5a4DC6Q4mLD-72" vertex="1">
          <mxGeometry width="200" height="30" relative="1" as="geometry">
            <mxPoint x="80" y="90" as="offset" />
          </mxGeometry>
        </mxCell>
        <mxCell id="JN9rHNK6d5a4DC6Q4mLD-77" value="&lt;span style=&quot;color: rgb(0 , 0 , 0)&quot;&gt;second of&amp;nbsp;&lt;/span&gt;&lt;span style=&quot;color: rgb(14 , 85 , 96)&quot;&gt;UTC, Hex&lt;/span&gt;" style="html=1;shadow=0;dashed=0;shape=mxgraph.bootstrap.bottomButton;fillColor=#C6C8CA;strokeColor=#ADAFB1;fontColor=#1B1E21;rSize=5;perimeter=none;whiteSpace=wrap;resizeWidth=1;resizeHeight=0;align=left;spacing=10;" parent="JN9rHNK6d5a4DC6Q4mLD-72" vertex="1">
          <mxGeometry y="1" width="200" height="30" relative="1" as="geometry">
            <mxPoint x="80" y="-30" as="offset" />
          </mxGeometry>
        </mxCell>
        <mxCell id="JN9rHNK6d5a4DC6Q4mLD-78" value="&lt;font style=&quot;font-size: 14px&quot; color=&quot;#db2843&quot;&gt;byte5&lt;/font&gt;" style="html=1;shadow=0;dashed=0;shape=mxgraph.bootstrap.rrect;rSize=5;strokeColor=#DB2843;strokeWidth=1;fillColor=none;fontColor=#33A64C;whiteSpace=wrap;align=center;verticalAlign=middle;spacingLeft=0;fontStyle=0;fontSize=16;spacing=5;" parent="JN9rHNK6d5a4DC6Q4mLD-72" vertex="1">
          <mxGeometry width="80" height="30" as="geometry" />
        </mxCell>
        <mxCell id="JN9rHNK6d5a4DC6Q4mLD-79" value="&lt;span style=&quot;color: rgb(219 , 40 , 67) ; font-size: 14px&quot;&gt;byte6&lt;/span&gt;" style="html=1;shadow=0;dashed=0;shape=mxgraph.bootstrap.rrect;rSize=5;strokeColor=#DB2843;strokeWidth=1;fillColor=none;fontColor=#33A64C;whiteSpace=wrap;align=center;verticalAlign=middle;spacingLeft=0;fontStyle=0;fontSize=16;spacing=5;" parent="JN9rHNK6d5a4DC6Q4mLD-72" vertex="1">
          <mxGeometry y="30" width="80" height="30" as="geometry" />
        </mxCell>
        <mxCell id="JN9rHNK6d5a4DC6Q4mLD-80" value="&lt;span style=&quot;color: rgb(219 , 40 , 67) ; font-size: 14px&quot;&gt;byte7&lt;/span&gt;" style="html=1;shadow=0;dashed=0;shape=mxgraph.bootstrap.rrect;rSize=5;strokeColor=#DB2843;strokeWidth=1;fillColor=none;fontColor=#33A64C;whiteSpace=wrap;align=center;verticalAlign=middle;spacingLeft=0;fontStyle=0;fontSize=16;spacing=5;" parent="JN9rHNK6d5a4DC6Q4mLD-72" vertex="1">
          <mxGeometry y="60" width="80" height="30" as="geometry" />
        </mxCell>
        <mxCell id="JN9rHNK6d5a4DC6Q4mLD-81" value="&lt;span style=&quot;color: rgb(219 , 40 , 67) ; font-size: 14px&quot;&gt;byte8&lt;/span&gt;" style="html=1;shadow=0;dashed=0;shape=mxgraph.bootstrap.rrect;rSize=5;strokeColor=#DB2843;strokeWidth=1;fillColor=none;fontColor=#33A64C;whiteSpace=wrap;align=center;verticalAlign=middle;spacingLeft=0;fontStyle=0;fontSize=16;spacing=5;" parent="JN9rHNK6d5a4DC6Q4mLD-72" vertex="1">
          <mxGeometry y="90" width="80" height="30" as="geometry" />
        </mxCell>
        <mxCell id="JN9rHNK6d5a4DC6Q4mLD-92" value="&lt;span style=&quot;font-size: 12px ; color: rgb(0 , 0 , 0)&quot;&gt;hour of&amp;nbsp;&lt;/span&gt;&lt;span style=&quot;color: rgb(14 , 85 , 96) ; font-size: 12px&quot;&gt;UTC, Hex&lt;/span&gt;" style="html=1;fillColor=#F4C5CB;strokeColor=#D5ACB2;fontColor=#711623;shadow=0;dashed=0;perimeter=none;whiteSpace=wrap;resizeWidth=1;align=left;spacing=10;fontSize=14;" parent="JN9rHNK6d5a4DC6Q4mLD-72" vertex="1">
          <mxGeometry width="200" height="30" relative="1" as="geometry">
            <mxPoint x="80" y="120" as="offset" />
          </mxGeometry>
        </mxCell>
        <mxCell id="JN9rHNK6d5a4DC6Q4mLD-95" value="&lt;span style=&quot;font-size: 12px ; color: rgb(0 , 0 , 0)&quot;&gt;minute of&amp;nbsp;&lt;/span&gt;&lt;span style=&quot;font-size: 12px ; color: rgb(14 , 85 , 96)&quot;&gt;UTC, Hex&lt;/span&gt;" style="html=1;fillColor=#e1d5e7;strokeColor=#9673a6;shadow=0;dashed=0;perimeter=none;whiteSpace=wrap;resizeWidth=1;align=left;spacing=10;fontSize=14;" parent="JN9rHNK6d5a4DC6Q4mLD-72" vertex="1">
          <mxGeometry width="200" height="30" relative="1" as="geometry">
            <mxPoint x="80" y="150" as="offset" />
          </mxGeometry>
        </mxCell>
        <mxCell id="JN9rHNK6d5a4DC6Q4mLD-82" value="&lt;span style=&quot;color: rgb(219 , 40 , 67) ; font-size: 14px&quot;&gt;byte9&lt;/span&gt;" style="html=1;shadow=0;dashed=0;shape=mxgraph.bootstrap.rrect;rSize=5;strokeColor=#DB2843;strokeWidth=1;fillColor=none;fontColor=#33A64C;whiteSpace=wrap;align=center;verticalAlign=middle;spacingLeft=0;fontStyle=0;fontSize=16;spacing=5;" parent="JN9rHNK6d5a4DC6Q4mLD-72" vertex="1">
          <mxGeometry y="120" width="80" height="30" as="geometry" />
        </mxCell>
        <mxCell id="JN9rHNK6d5a4DC6Q4mLD-97" value="&lt;span style=&quot;color: rgb(219 , 40 , 67) ; font-size: 14px&quot;&gt;byte10&lt;/span&gt;" style="html=1;shadow=0;dashed=0;shape=mxgraph.bootstrap.rrect;rSize=5;strokeColor=#DB2843;strokeWidth=1;fillColor=none;fontColor=#33A64C;whiteSpace=wrap;align=center;verticalAlign=middle;spacingLeft=0;fontStyle=0;fontSize=16;spacing=5;" parent="JN9rHNK6d5a4DC6Q4mLD-72" vertex="1">
          <mxGeometry y="150" width="80" height="30" as="geometry" />
        </mxCell>
        <mxCell id="JN9rHNK6d5a4DC6Q4mLD-98" value="&lt;span style=&quot;color: rgb(219 , 40 , 67) ; font-size: 14px&quot;&gt;byte11&lt;/span&gt;" style="html=1;shadow=0;dashed=0;shape=mxgraph.bootstrap.rrect;rSize=5;strokeColor=#DB2843;strokeWidth=1;fillColor=none;fontColor=#33A64C;whiteSpace=wrap;align=center;verticalAlign=middle;spacingLeft=0;fontStyle=0;fontSize=16;spacing=5;" parent="JN9rHNK6d5a4DC6Q4mLD-72" vertex="1">
          <mxGeometry y="180" width="80" height="30" as="geometry" />
        </mxCell>
        <mxCell id="JN9rHNK6d5a4DC6Q4mLD-83" value="FunctionID:A8" style="html=1;shadow=0;dashed=0;shape=mxgraph.bootstrap.rrect;rSize=5;strokeColor=none;strokeWidth=1;fillColor=#DB2843;fontColor=#ffffff;whiteSpace=wrap;align=left;verticalAlign=middle;fontStyle=0;fontSize=14;spacingLeft=10;" parent="1" vertex="1">
          <mxGeometry x="600" y="290" width="160" height="30" as="geometry" />
        </mxCell>
        <mxCell id="JN9rHNK6d5a4DC6Q4mLD-84" value="" style="shape=triangle;direction=south;fillColor=#ffffff;strokeColor=none;perimeter=none;" parent="JN9rHNK6d5a4DC6Q4mLD-83" vertex="1">
          <mxGeometry x="1" y="0.5" width="10" height="5" relative="1" as="geometry">
            <mxPoint x="-17" y="-2.5" as="offset" />
          </mxGeometry>
        </mxCell>
        <mxCell id="JN9rHNK6d5a4DC6Q4mLD-86" value="" style="curved=1;endArrow=classic;html=1;rounded=0;fontSize=14;fontColor=#DB2843;entryX=-0.014;entryY=0.548;entryDx=0;entryDy=0;entryPerimeter=0;" parent="1" source="JN9rHNK6d5a4DC6Q4mLD-12" target="JN9rHNK6d5a4DC6Q4mLD-83" edge="1">
          <mxGeometry width="50" height="50" relative="1" as="geometry">
            <mxPoint x="890" y="530" as="sourcePoint" />
            <mxPoint x="940" y="480" as="targetPoint" />
            <Array as="points">
              <mxPoint x="620" y="190" />
              <mxPoint x="550" y="270" />
            </Array>
          </mxGeometry>
        </mxCell>
        <mxCell id="JN9rHNK6d5a4DC6Q4mLD-99" value="" style="html=1;shadow=0;dashed=0;shape=mxgraph.bootstrap.rrect;rSize=5;strokeColor=#DFDFDF;html=1;whiteSpace=wrap;fillColor=#FFFFFF;fontColor=#000000;" parent="1" vertex="1">
          <mxGeometry x="600" y="560" width="280" height="60" as="geometry" />
        </mxCell>
        <mxCell id="JN9rHNK6d5a4DC6Q4mLD-100" value="Unnecessary" style="strokeColor=inherit;fillColor=inherit;gradientColor=inherit;fontColor=inherit;html=1;shadow=0;dashed=0;shape=mxgraph.bootstrap.topButton;rSize=5;perimeter=none;whiteSpace=wrap;resizeWidth=1;align=left;spacing=10;" parent="JN9rHNK6d5a4DC6Q4mLD-99" vertex="1">
          <mxGeometry width="200" height="30" relative="1" as="geometry">
            <mxPoint x="80" as="offset" />
          </mxGeometry>
        </mxCell>
        <mxCell id="JN9rHNK6d5a4DC6Q4mLD-104" value="&lt;span style=&quot;color: rgb(0 , 0 , 0)&quot;&gt;Unnecessary&lt;/span&gt;" style="html=1;shadow=0;dashed=0;shape=mxgraph.bootstrap.bottomButton;fillColor=#C6C8CA;strokeColor=#ADAFB1;fontColor=#1B1E21;rSize=5;perimeter=none;whiteSpace=wrap;resizeWidth=1;resizeHeight=0;align=left;spacing=10;" parent="JN9rHNK6d5a4DC6Q4mLD-99" vertex="1">
          <mxGeometry y="1" width="200" height="30" relative="1" as="geometry">
            <mxPoint x="80" y="-30" as="offset" />
          </mxGeometry>
        </mxCell>
        <mxCell id="JN9rHNK6d5a4DC6Q4mLD-105" value="&lt;font style=&quot;font-size: 14px&quot; color=&quot;#db2843&quot;&gt;byte5&lt;/font&gt;" style="html=1;shadow=0;dashed=0;shape=mxgraph.bootstrap.rrect;rSize=5;strokeColor=#DB2843;strokeWidth=1;fillColor=none;fontColor=#33A64C;whiteSpace=wrap;align=center;verticalAlign=middle;spacingLeft=0;fontStyle=0;fontSize=16;spacing=5;" parent="JN9rHNK6d5a4DC6Q4mLD-99" vertex="1">
          <mxGeometry width="80" height="30" as="geometry" />
        </mxCell>
        <mxCell id="JN9rHNK6d5a4DC6Q4mLD-106" value="&lt;font color=&quot;#db2843&quot;&gt;&lt;span style=&quot;font-size: 14px&quot;&gt;……&lt;/span&gt;&lt;/font&gt;" style="html=1;shadow=0;dashed=0;shape=mxgraph.bootstrap.rrect;rSize=5;strokeColor=#DB2843;strokeWidth=1;fillColor=none;fontColor=#33A64C;whiteSpace=wrap;align=center;verticalAlign=middle;spacingLeft=0;fontStyle=0;fontSize=16;spacing=5;" parent="JN9rHNK6d5a4DC6Q4mLD-99" vertex="1">
          <mxGeometry y="30" width="80" height="30" as="geometry" />
        </mxCell>
        <mxCell id="JN9rHNK6d5a4DC6Q4mLD-114" value="FunctionID:A0~A7,A9" style="html=1;shadow=0;dashed=0;shape=mxgraph.bootstrap.rrect;rSize=5;strokeColor=none;strokeWidth=1;fillColor=#DB2843;fontColor=#ffffff;whiteSpace=wrap;align=left;verticalAlign=middle;fontStyle=0;fontSize=14;spacingLeft=10;" parent="1" vertex="1">
          <mxGeometry x="600" y="530" width="200" height="30" as="geometry" />
        </mxCell>
        <mxCell id="JN9rHNK6d5a4DC6Q4mLD-115" value="" style="shape=triangle;direction=south;fillColor=#ffffff;strokeColor=none;perimeter=none;" parent="JN9rHNK6d5a4DC6Q4mLD-114" vertex="1">
          <mxGeometry x="1" y="0.5" width="10" height="5" relative="1" as="geometry">
            <mxPoint x="-17" y="-2.5" as="offset" />
          </mxGeometry>
        </mxCell>
        <mxCell id="0OTdzB0N9XU9aKeygVHz-1" value="&lt;span style=&quot;font-size: 20px&quot;&gt;&lt;b&gt;Frame Header&amp;nbsp;&lt;/b&gt;&lt;/span&gt;&lt;br style=&quot;font-size: 14px&quot;&gt;&lt;br style=&quot;font-size: 14px&quot;&gt;Memory command frame header." style="html=1;shadow=0;dashed=0;shape=mxgraph.bootstrap.rrect;rSize=5;strokeColor=#0071D5;html=1;whiteSpace=wrap;fillColor=#0085FC;fontColor=#ffffff;verticalAlign=bottom;align=left;spacing=20;spacingBottom=0;fontSize=14;" parent="1" vertex="1">
          <mxGeometry x="40" y="680" width="280" height="200" as="geometry" />
        </mxCell>
        <mxCell id="0OTdzB0N9XU9aKeygVHz-2" value="&lt;b&gt;Header&lt;/b&gt;" style="html=1;shadow=0;dashed=0;shape=mxgraph.bootstrap.topButton;rSize=5;perimeter=none;whiteSpace=wrap;fillColor=#0081F4;strokeColor=#0071D5;fontColor=#ffffff;resizeWidth=1;fontSize=18;align=left;spacing=20;" parent="0OTdzB0N9XU9aKeygVHz-1" vertex="1">
          <mxGeometry width="280" height="50" relative="1" as="geometry" />
        </mxCell>
        <mxCell id="0OTdzB0N9XU9aKeygVHz-3" value="&lt;span style=&quot;font-size: 16px; font-weight: 400;&quot;&gt;byte0&lt;/span&gt;" style="rounded=1;whiteSpace=wrap;html=1;arcSize=50;strokeColor=none;strokeWidth=1;fillColor=#343A40;fontColor=#ffffff;whiteSpace=wrap;align=center;verticalAlign=middle;spacingLeft=0;fontStyle=1;fontSize=14;spacing=10;" parent="0OTdzB0N9XU9aKeygVHz-1" vertex="1">
          <mxGeometry y="49.99666666666667" width="67.2" height="33.333333333333336" as="geometry" />
        </mxCell>
        <mxCell id="0OTdzB0N9XU9aKeygVHz-4" value="&lt;span style=&quot;font-size: 16px; font-weight: 400;&quot;&gt;byte1&lt;br&gt;&lt;/span&gt;" style="rounded=1;whiteSpace=wrap;html=1;arcSize=50;strokeColor=none;strokeWidth=1;fillColor=#343A40;fontColor=#ffffff;whiteSpace=wrap;align=center;verticalAlign=middle;spacingLeft=0;fontStyle=1;fontSize=14;spacing=10;" parent="0OTdzB0N9XU9aKeygVHz-1" vertex="1">
          <mxGeometry x="67.2" y="49.99666666666667" width="67.2" height="33.333333333333336" as="geometry" />
        </mxCell>
        <mxCell id="0OTdzB0N9XU9aKeygVHz-7" value="&lt;b&gt;&lt;span style=&quot;font-size: 20px&quot;&gt;Function ID For Control&amp;nbsp;&lt;/span&gt;&lt;/b&gt;&lt;br style=&quot;font-size: 14px&quot;&gt;&lt;br style=&quot;font-size: 14px&quot;&gt;Each protocol function has specific identification. The specific agreement is as follows." style="html=1;shadow=0;dashed=0;shape=mxgraph.bootstrap.rrect;rSize=5;strokeColor=#BA2239;html=1;whiteSpace=wrap;fillColor=#DB2843;fontColor=#ffffff;verticalAlign=bottom;align=left;spacing=20;spacingBottom=0;fontSize=14;" parent="1" vertex="1">
          <mxGeometry x="320" y="680" width="280" height="200" as="geometry" />
        </mxCell>
        <mxCell id="0OTdzB0N9XU9aKeygVHz-8" value="FunctionID" style="html=1;shadow=0;dashed=0;shape=mxgraph.bootstrap.topButton;rSize=5;perimeter=none;whiteSpace=wrap;fillColor=#D42741;strokeColor=#BA2239;fontColor=#ffffff;resizeWidth=1;fontSize=18;align=left;spacing=20;" parent="0OTdzB0N9XU9aKeygVHz-7" vertex="1">
          <mxGeometry width="280" height="50" relative="1" as="geometry" />
        </mxCell>
        <mxCell id="0OTdzB0N9XU9aKeygVHz-9" value="&lt;span style=&quot;font-size: 16px ; font-weight: 400&quot;&gt;byte2&lt;/span&gt;" style="rounded=1;whiteSpace=wrap;html=1;arcSize=50;strokeColor=none;strokeWidth=1;fillColor=#343A40;fontColor=#ffffff;whiteSpace=wrap;align=center;verticalAlign=middle;spacingLeft=0;fontStyle=1;fontSize=14;spacing=10;" parent="0OTdzB0N9XU9aKeygVHz-7" vertex="1">
          <mxGeometry y="49.99666666666667" width="67.2" height="33.333333333333336" as="geometry" />
        </mxCell>
        <mxCell id="0OTdzB0N9XU9aKeygVHz-21" value="byte2" style="html=1;shadow=0;dashed=0;shape=mxgraph.bootstrap.rrect;rSize=5;strokeColor=none;strokeWidth=1;fillColor=#33A64C;fontColor=#ffffff;whiteSpace=wrap;align=left;verticalAlign=middle;fontStyle=0;fontSize=14;spacingLeft=10;" parent="1" vertex="1">
          <mxGeometry x="320" y="890" width="80" height="30" as="geometry" />
        </mxCell>
        <mxCell id="0OTdzB0N9XU9aKeygVHz-22" value="" style="shape=triangle;direction=south;fillColor=#ffffff;strokeColor=none;perimeter=none;" parent="0OTdzB0N9XU9aKeygVHz-21" vertex="1">
          <mxGeometry x="1" y="0.5" width="10" height="5" relative="1" as="geometry">
            <mxPoint x="-17" y="-2.5" as="offset" />
          </mxGeometry>
        </mxCell>
        <mxCell id="0OTdzB0N9XU9aKeygVHz-23" value="&lt;span style=&quot;font-size: 20px&quot;&gt;&lt;b&gt;Address of Memory&lt;/b&gt;&lt;/span&gt;&lt;br style=&quot;font-size: 14px&quot;&gt;&lt;br style=&quot;font-size: 14px&quot;&gt;Each storage space contains 16 bytes.All memory separate according to the address." style="html=1;shadow=0;dashed=0;shape=mxgraph.bootstrap.rrect;rSize=5;strokeColor=#5B646A;html=1;whiteSpace=wrap;fillColor=#6C767D;fontColor=#ffffff;verticalAlign=bottom;align=left;spacing=20;spacingBottom=0;fontSize=14;" parent="1" vertex="1">
          <mxGeometry x="600" y="680" width="280" height="200" as="geometry" />
        </mxCell>
        <mxCell id="0OTdzB0N9XU9aKeygVHz-24" value="Address" style="html=1;shadow=0;dashed=0;shape=mxgraph.bootstrap.topButton;rSize=5;perimeter=none;whiteSpace=wrap;fillColor=#697279;strokeColor=#5B646A;fontColor=#ffffff;resizeWidth=1;fontSize=18;align=left;spacing=20;" parent="0OTdzB0N9XU9aKeygVHz-23" vertex="1">
          <mxGeometry width="280" height="50" relative="1" as="geometry" />
        </mxCell>
        <mxCell id="0OTdzB0N9XU9aKeygVHz-25" value="&lt;span style=&quot;font-size: 16px ; font-weight: 400&quot;&gt;byte3&lt;/span&gt;" style="rounded=1;whiteSpace=wrap;html=1;arcSize=50;strokeColor=none;strokeWidth=1;fillColor=#343A40;fontColor=#ffffff;whiteSpace=wrap;align=center;verticalAlign=middle;spacingLeft=0;fontStyle=1;fontSize=14;spacing=10;" parent="0OTdzB0N9XU9aKeygVHz-23" vertex="1">
          <mxGeometry y="49.99666666666667" width="67.2" height="33.333333333333336" as="geometry" />
        </mxCell>
        <mxCell id="0OTdzB0N9XU9aKeygVHz-28" value="&lt;span style=&quot;font-size: 16px ; font-weight: 400&quot;&gt;byte4&lt;br&gt;&lt;/span&gt;" style="rounded=1;whiteSpace=wrap;html=1;arcSize=50;strokeColor=none;strokeWidth=1;fillColor=#343A40;fontColor=#ffffff;whiteSpace=wrap;align=center;verticalAlign=middle;spacingLeft=0;fontStyle=1;fontSize=14;spacing=10;" parent="0OTdzB0N9XU9aKeygVHz-23" vertex="1">
          <mxGeometry x="67.20000000000002" y="49.99666666666667" width="67.2" height="33.333333333333336" as="geometry" />
        </mxCell>
        <mxCell id="0OTdzB0N9XU9aKeygVHz-29" value="&lt;b&gt;&lt;font style=&quot;font-size: 20px&quot;&gt;Stored Data Value&lt;/font&gt;&lt;/b&gt;&lt;br style=&quot;font-size: 14px&quot;&gt;&lt;br style=&quot;font-size: 14px&quot;&gt;The data need to be stored in the memory. The specific agreement is as follows." style="html=1;shadow=0;dashed=0;shape=mxgraph.bootstrap.rrect;rSize=5;strokeColor=#33A64C;html=1;whiteSpace=wrap;fillColor=#ffffff;fontColor=#33A64C;verticalAlign=bottom;align=left;spacing=20;spacingBottom=0;fontSize=14;" parent="1" vertex="1">
          <mxGeometry x="880" y="680" width="280" height="200" as="geometry" />
        </mxCell>
        <mxCell id="0OTdzB0N9XU9aKeygVHz-30" value="Stored Data" style="html=1;shadow=0;dashed=0;shape=mxgraph.bootstrap.topButton;rSize=5;perimeter=none;whiteSpace=wrap;fillColor=#F7F7F7;strokeColor=#33A64C;fontColor=#6C767D;resizeWidth=1;fontSize=18;align=left;spacing=20;" parent="0OTdzB0N9XU9aKeygVHz-29" vertex="1">
          <mxGeometry width="280" height="50" relative="1" as="geometry" />
        </mxCell>
        <mxCell id="0OTdzB0N9XU9aKeygVHz-31" value="&lt;span style=&quot;font-size: 16px ; font-weight: 400&quot;&gt;byte5&lt;/span&gt;" style="rounded=1;whiteSpace=wrap;html=1;arcSize=50;strokeColor=none;strokeWidth=1;fillColor=#343A40;fontColor=#ffffff;whiteSpace=wrap;align=center;verticalAlign=middle;spacingLeft=0;fontStyle=1;fontSize=14;spacing=10;" parent="0OTdzB0N9XU9aKeygVHz-29" vertex="1">
          <mxGeometry y="49.99666666666667" width="67.2" height="33.333333333333336" as="geometry" />
        </mxCell>
        <mxCell id="0OTdzB0N9XU9aKeygVHz-32" value="&lt;span style=&quot;font-size: 16px ; font-weight: 400&quot;&gt;……&lt;br&gt;&lt;/span&gt;" style="rounded=1;whiteSpace=wrap;html=1;arcSize=50;strokeColor=none;strokeWidth=1;fillColor=#343A40;fontColor=#ffffff;whiteSpace=wrap;align=center;verticalAlign=middle;spacingLeft=0;fontStyle=1;fontSize=14;spacing=10;" parent="0OTdzB0N9XU9aKeygVHz-29" vertex="1">
          <mxGeometry x="67.20000000000005" y="49.99666666666667" width="67.2" height="33.333333333333336" as="geometry" />
        </mxCell>
        <mxCell id="0OTdzB0N9XU9aKeygVHz-33" value="&lt;span style=&quot;font-size: 16px ; font-weight: 400&quot;&gt;……&lt;br&gt;&lt;/span&gt;" style="rounded=1;whiteSpace=wrap;html=1;arcSize=50;strokeColor=none;strokeWidth=1;fillColor=#343A40;fontColor=#ffffff;whiteSpace=wrap;align=center;verticalAlign=middle;spacingLeft=0;fontStyle=1;fontSize=14;spacing=10;" parent="0OTdzB0N9XU9aKeygVHz-29" vertex="1">
          <mxGeometry x="134.39999999999998" y="49.99666666666667" width="67.2" height="33.333333333333336" as="geometry" />
        </mxCell>
        <mxCell id="0OTdzB0N9XU9aKeygVHz-34" value="&lt;span style=&quot;font-size: 16px ; font-weight: 400&quot;&gt;byte20&lt;/span&gt;&lt;span style=&quot;font-size: 16px ; font-weight: 400&quot;&gt;&lt;br&gt;&lt;/span&gt;" style="rounded=1;whiteSpace=wrap;html=1;arcSize=50;strokeColor=none;strokeWidth=1;fillColor=#343A40;fontColor=#ffffff;whiteSpace=wrap;align=center;verticalAlign=middle;spacingLeft=0;fontStyle=1;fontSize=14;spacing=10;" parent="0OTdzB0N9XU9aKeygVHz-29" vertex="1">
          <mxGeometry x="201.5999999999999" y="49.99666666666667" width="67.2" height="33.333333333333336" as="geometry" />
        </mxCell>
        <mxCell id="0OTdzB0N9XU9aKeygVHz-35" value="" style="html=1;shadow=0;dashed=0;shape=mxgraph.bootstrap.rrect;rSize=5;strokeColor=#DFDFDF;html=1;whiteSpace=wrap;fillColor=#FFFFFF;fontColor=#000000;" parent="1" vertex="1">
          <mxGeometry x="880" y="920" width="280" height="150" as="geometry" />
        </mxCell>
        <mxCell id="0OTdzB0N9XU9aKeygVHz-36" value="byte3 of CollectorID" style="strokeColor=inherit;fillColor=inherit;gradientColor=inherit;fontColor=inherit;html=1;shadow=0;dashed=0;shape=mxgraph.bootstrap.topButton;rSize=5;perimeter=none;whiteSpace=wrap;resizeWidth=1;align=left;spacing=10;" parent="0OTdzB0N9XU9aKeygVHz-35" vertex="1">
          <mxGeometry width="200" height="30" relative="1" as="geometry">
            <mxPoint x="80" as="offset" />
          </mxGeometry>
        </mxCell>
        <mxCell id="0OTdzB0N9XU9aKeygVHz-37" value="&lt;span style=&quot;color: rgb(0 , 0 , 0)&quot;&gt;byte2 of CollectorID&lt;/span&gt;" style="html=1;fillColor=#B8DCFE;strokeColor=#A1C0DE;fontColor=#004583;shadow=0;dashed=0;perimeter=none;whiteSpace=wrap;resizeWidth=1;align=left;spacing=10;" parent="0OTdzB0N9XU9aKeygVHz-35" vertex="1">
          <mxGeometry width="200" height="30" relative="1" as="geometry">
            <mxPoint x="80" y="30" as="offset" />
          </mxGeometry>
        </mxCell>
        <mxCell id="0OTdzB0N9XU9aKeygVHz-38" value="&lt;span style=&quot;color: rgb(0 , 0 , 0)&quot;&gt;byte1 of CollectorID&lt;/span&gt;" style="html=1;fillColor=#FFECBC;strokeColor=#DFCEA4;fontColor=#856110;shadow=0;dashed=0;perimeter=none;whiteSpace=wrap;resizeWidth=1;align=left;spacing=10;" parent="0OTdzB0N9XU9aKeygVHz-35" vertex="1">
          <mxGeometry width="200" height="30" relative="1" as="geometry">
            <mxPoint x="80" y="60" as="offset" />
          </mxGeometry>
        </mxCell>
        <mxCell id="0OTdzB0N9XU9aKeygVHz-39" value="&lt;span style=&quot;color: rgb(0 , 0 , 0)&quot;&gt;byte0 of CollectorID&lt;/span&gt;" style="html=1;fillColor=#BFE6EB;strokeColor=#A7C9CE;fontColor=#0E5560;shadow=0;dashed=0;perimeter=none;whiteSpace=wrap;resizeWidth=1;align=left;spacing=10;" parent="0OTdzB0N9XU9aKeygVHz-35" vertex="1">
          <mxGeometry width="200" height="30" relative="1" as="geometry">
            <mxPoint x="80" y="90" as="offset" />
          </mxGeometry>
        </mxCell>
        <mxCell id="0OTdzB0N9XU9aKeygVHz-40" value="&lt;span style=&quot;color: rgb(0 , 0 , 0)&quot;&gt;Reserved&lt;/span&gt;" style="html=1;shadow=0;dashed=0;shape=mxgraph.bootstrap.bottomButton;fillColor=#C6C8CA;strokeColor=#ADAFB1;fontColor=#1B1E21;rSize=5;perimeter=none;whiteSpace=wrap;resizeWidth=1;resizeHeight=0;align=left;spacing=10;" parent="0OTdzB0N9XU9aKeygVHz-35" vertex="1">
          <mxGeometry y="1" width="200" height="30" relative="1" as="geometry">
            <mxPoint x="80" y="-30" as="offset" />
          </mxGeometry>
        </mxCell>
        <mxCell id="0OTdzB0N9XU9aKeygVHz-41" value="&lt;font style=&quot;font-size: 14px&quot; color=&quot;#5b646a&quot;&gt;byte5&lt;/font&gt;" style="html=1;shadow=0;dashed=0;shape=mxgraph.bootstrap.rrect;rSize=5;strokeColor=#5B646A;strokeWidth=1;fillColor=none;fontColor=#33A64C;whiteSpace=wrap;align=center;verticalAlign=middle;spacingLeft=0;fontStyle=0;fontSize=16;spacing=5;" parent="0OTdzB0N9XU9aKeygVHz-35" vertex="1">
          <mxGeometry width="80" height="30" as="geometry" />
        </mxCell>
        <mxCell id="hZCs-awZrKkYEcZy1XGg-2" value="&lt;font style=&quot;font-size: 14px&quot; color=&quot;#5b646a&quot;&gt;byte6&lt;/font&gt;" style="html=1;shadow=0;dashed=0;shape=mxgraph.bootstrap.rrect;rSize=5;strokeColor=#5B646A;strokeWidth=1;fillColor=none;fontColor=#33A64C;whiteSpace=wrap;align=center;verticalAlign=middle;spacingLeft=0;fontStyle=0;fontSize=16;spacing=5;" parent="0OTdzB0N9XU9aKeygVHz-35" vertex="1">
          <mxGeometry y="30" width="80" height="30" as="geometry" />
        </mxCell>
        <mxCell id="hZCs-awZrKkYEcZy1XGg-3" value="&lt;font style=&quot;font-size: 14px&quot; color=&quot;#5b646a&quot;&gt;byte7&lt;/font&gt;" style="html=1;shadow=0;dashed=0;shape=mxgraph.bootstrap.rrect;rSize=5;strokeColor=#5B646A;strokeWidth=1;fillColor=none;fontColor=#33A64C;whiteSpace=wrap;align=center;verticalAlign=middle;spacingLeft=0;fontStyle=0;fontSize=16;spacing=5;" parent="0OTdzB0N9XU9aKeygVHz-35" vertex="1">
          <mxGeometry y="60" width="80" height="30" as="geometry" />
        </mxCell>
        <mxCell id="hZCs-awZrKkYEcZy1XGg-4" value="&lt;font style=&quot;font-size: 14px&quot; color=&quot;#5b646a&quot;&gt;byte8&lt;/font&gt;" style="html=1;shadow=0;dashed=0;shape=mxgraph.bootstrap.rrect;rSize=5;strokeColor=#5B646A;strokeWidth=1;fillColor=none;fontColor=#33A64C;whiteSpace=wrap;align=center;verticalAlign=middle;spacingLeft=0;fontStyle=0;fontSize=16;spacing=5;" parent="0OTdzB0N9XU9aKeygVHz-35" vertex="1">
          <mxGeometry y="90" width="80" height="30" as="geometry" />
        </mxCell>
        <mxCell id="hZCs-awZrKkYEcZy1XGg-5" value="&lt;font style=&quot;font-size: 14px&quot; color=&quot;#5b646a&quot;&gt;byte9~20&lt;/font&gt;" style="html=1;shadow=0;dashed=0;shape=mxgraph.bootstrap.rrect;rSize=5;strokeColor=#5B646A;strokeWidth=1;fillColor=none;fontColor=#33A64C;whiteSpace=wrap;align=center;verticalAlign=middle;spacingLeft=0;fontStyle=0;fontSize=16;spacing=5;" parent="0OTdzB0N9XU9aKeygVHz-35" vertex="1">
          <mxGeometry y="120" width="80" height="30" as="geometry" />
        </mxCell>
        <mxCell id="0OTdzB0N9XU9aKeygVHz-50" value="Address:0x0000" style="html=1;shadow=0;dashed=0;shape=mxgraph.bootstrap.rrect;rSize=5;strokeColor=none;strokeWidth=1;fillColor=#5B646A;fontColor=#ffffff;whiteSpace=wrap;align=left;verticalAlign=middle;fontStyle=0;fontSize=14;spacingLeft=10;" parent="1" vertex="1">
          <mxGeometry x="880" y="890" width="160" height="30" as="geometry" />
        </mxCell>
        <mxCell id="0OTdzB0N9XU9aKeygVHz-51" value="" style="shape=triangle;direction=south;fillColor=#ffffff;strokeColor=none;perimeter=none;" parent="0OTdzB0N9XU9aKeygVHz-50" vertex="1">
          <mxGeometry x="1" y="0.5" width="10" height="5" relative="1" as="geometry">
            <mxPoint x="-17" y="-2.5" as="offset" />
          </mxGeometry>
        </mxCell>
        <mxCell id="0OTdzB0N9XU9aKeygVHz-52" value="" style="curved=1;endArrow=classic;html=1;rounded=0;fontSize=14;fontColor=#DB2843;entryX=-0.014;entryY=0.548;entryDx=0;entryDy=0;entryPerimeter=0;" parent="1" source="0OTdzB0N9XU9aKeygVHz-24" target="0OTdzB0N9XU9aKeygVHz-50" edge="1">
          <mxGeometry width="50" height="50" relative="1" as="geometry">
            <mxPoint x="890" y="1130" as="sourcePoint" />
            <mxPoint x="940" y="1080" as="targetPoint" />
            <Array as="points">
              <mxPoint x="890" y="780" />
              <mxPoint x="720" y="920" />
            </Array>
          </mxGeometry>
        </mxCell>
        <mxCell id="0OTdzB0N9XU9aKeygVHz-53" value="" style="html=1;shadow=0;dashed=0;shape=mxgraph.bootstrap.rrect;rSize=5;strokeColor=#DFDFDF;html=1;whiteSpace=wrap;fillColor=#FFFFFF;fontColor=#000000;" parent="1" vertex="1">
          <mxGeometry x="880" y="1100" width="280" height="60" as="geometry" />
        </mxCell>
        <mxCell id="0OTdzB0N9XU9aKeygVHz-54" value="Unnecessary" style="strokeColor=inherit;fillColor=inherit;gradientColor=inherit;fontColor=inherit;html=1;shadow=0;dashed=0;shape=mxgraph.bootstrap.topButton;rSize=5;perimeter=none;whiteSpace=wrap;resizeWidth=1;align=left;spacing=10;" parent="0OTdzB0N9XU9aKeygVHz-53" vertex="1">
          <mxGeometry width="200" height="30" relative="1" as="geometry">
            <mxPoint x="80" as="offset" />
          </mxGeometry>
        </mxCell>
        <mxCell id="0OTdzB0N9XU9aKeygVHz-55" value="&lt;span style=&quot;color: rgb(0 , 0 , 0)&quot;&gt;Unnecessary&lt;/span&gt;" style="html=1;shadow=0;dashed=0;shape=mxgraph.bootstrap.bottomButton;fillColor=#C6C8CA;strokeColor=#ADAFB1;fontColor=#1B1E21;rSize=5;perimeter=none;whiteSpace=wrap;resizeWidth=1;resizeHeight=0;align=left;spacing=10;" parent="0OTdzB0N9XU9aKeygVHz-53" vertex="1">
          <mxGeometry y="1" width="200" height="30" relative="1" as="geometry">
            <mxPoint x="80" y="-30" as="offset" />
          </mxGeometry>
        </mxCell>
        <mxCell id="hZCs-awZrKkYEcZy1XGg-6" value="&lt;font style=&quot;font-size: 14px&quot; color=&quot;#5b646a&quot;&gt;byte5&lt;/font&gt;" style="html=1;shadow=0;dashed=0;shape=mxgraph.bootstrap.rrect;rSize=5;strokeColor=#5B646A;strokeWidth=1;fillColor=none;fontColor=#33A64C;whiteSpace=wrap;align=center;verticalAlign=middle;spacingLeft=0;fontStyle=0;fontSize=16;spacing=5;" parent="0OTdzB0N9XU9aKeygVHz-53" vertex="1">
          <mxGeometry width="80" height="30" as="geometry" />
        </mxCell>
        <mxCell id="hZCs-awZrKkYEcZy1XGg-7" value="&lt;font style=&quot;font-size: 14px&quot; color=&quot;#5b646a&quot;&gt;……&lt;/font&gt;" style="html=1;shadow=0;dashed=0;shape=mxgraph.bootstrap.rrect;rSize=5;strokeColor=#5B646A;strokeWidth=1;fillColor=none;fontColor=#33A64C;whiteSpace=wrap;align=center;verticalAlign=middle;spacingLeft=0;fontStyle=0;fontSize=16;spacing=5;" parent="0OTdzB0N9XU9aKeygVHz-53" vertex="1">
          <mxGeometry y="30" width="80" height="30" as="geometry" />
        </mxCell>
        <mxCell id="0OTdzB0N9XU9aKeygVHz-58" value="Address:0x0010" style="html=1;shadow=0;dashed=0;shape=mxgraph.bootstrap.rrect;rSize=5;strokeColor=none;strokeWidth=1;fillColor=#5B646A;fontColor=#ffffff;whiteSpace=wrap;align=left;verticalAlign=middle;fontStyle=0;fontSize=14;spacingLeft=10;" parent="1" vertex="1">
          <mxGeometry x="880" y="1070" width="200" height="30" as="geometry" />
        </mxCell>
        <mxCell id="0OTdzB0N9XU9aKeygVHz-59" value="" style="shape=triangle;direction=south;fillColor=#ffffff;strokeColor=none;perimeter=none;" parent="0OTdzB0N9XU9aKeygVHz-58" vertex="1">
          <mxGeometry x="1" y="0.5" width="10" height="5" relative="1" as="geometry">
            <mxPoint x="-17" y="-2.5" as="offset" />
          </mxGeometry>
        </mxCell>
        <mxCell id="0OTdzB0N9XU9aKeygVHz-60" value="&lt;b&gt;---- Memory Command Protocol&amp;nbsp;&lt;/b&gt;" style="html=1;shadow=0;dashed=0;shape=mxgraph.bootstrap.rrect;rSize=5;strokeColor=none;strokeWidth=1;fillColor=#E0F0D6;fontColor=#59B958;whiteSpace=wrap;align=left;verticalAlign=middle;spacingLeft=10;" parent="1" vertex="1">
          <mxGeometry x="40" y="640" width="1120" height="30" as="geometry" />
        </mxCell>
        <mxCell id="0OTdzB0N9XU9aKeygVHz-61" value="&lt;b&gt;---- Radio Frequency Command Protocol&amp;nbsp;&lt;/b&gt;" style="html=1;shadow=0;dashed=0;shape=mxgraph.bootstrap.rrect;rSize=5;strokeColor=none;strokeWidth=1;fillColor=#E0F0D6;fontColor=#59B958;whiteSpace=wrap;align=left;verticalAlign=middle;spacingLeft=10;" parent="1" vertex="1">
          <mxGeometry x="40" y="40" width="840" height="30" as="geometry" />
        </mxCell>
        <mxCell id="u1n7_bYdNOXMyb52SufM-12" value="byte0" style="html=1;shadow=0;dashed=0;shape=mxgraph.bootstrap.rrect;rSize=5;strokeColor=none;strokeWidth=1;fillColor=#33A64C;fontColor=#ffffff;whiteSpace=wrap;align=left;verticalAlign=middle;fontStyle=0;fontSize=14;spacingLeft=10;" parent="1" vertex="1">
          <mxGeometry x="40" y="890" width="80" height="30" as="geometry" />
        </mxCell>
        <mxCell id="u1n7_bYdNOXMyb52SufM-13" value="" style="shape=triangle;direction=south;fillColor=#ffffff;strokeColor=none;perimeter=none;" parent="u1n7_bYdNOXMyb52SufM-12" vertex="1">
          <mxGeometry x="1" y="0.5" width="10" height="5" relative="1" as="geometry">
            <mxPoint x="-17" y="-2.5" as="offset" />
          </mxGeometry>
        </mxCell>
        <mxCell id="u1n7_bYdNOXMyb52SufM-15" value="&lt;font style=&quot;font-size: 14px&quot;&gt;0xE5&lt;/font&gt;" style="html=1;shadow=0;dashed=0;shape=mxgraph.bootstrap.rrect;rSize=5;strokeColor=#33A64C;strokeWidth=1;fillColor=none;fontColor=#33A64C;whiteSpace=wrap;align=center;verticalAlign=middle;spacingLeft=0;fontStyle=0;fontSize=16;spacing=5;" parent="1" vertex="1">
          <mxGeometry x="40" y="920" width="80" height="30" as="geometry" />
        </mxCell>
        <mxCell id="u1n7_bYdNOXMyb52SufM-16" value="byte1" style="html=1;shadow=0;dashed=0;shape=mxgraph.bootstrap.rrect;rSize=5;strokeColor=none;strokeWidth=1;fillColor=#33A64C;fontColor=#ffffff;whiteSpace=wrap;align=left;verticalAlign=middle;fontStyle=0;fontSize=14;spacingLeft=10;" parent="1" vertex="1">
          <mxGeometry x="120" y="890" width="80" height="30" as="geometry" />
        </mxCell>
        <mxCell id="u1n7_bYdNOXMyb52SufM-17" value="" style="shape=triangle;direction=south;fillColor=#ffffff;strokeColor=none;perimeter=none;" parent="u1n7_bYdNOXMyb52SufM-16" vertex="1">
          <mxGeometry x="1" y="0.5" width="10" height="5" relative="1" as="geometry">
            <mxPoint x="-17" y="-2.5" as="offset" />
          </mxGeometry>
        </mxCell>
        <mxCell id="u1n7_bYdNOXMyb52SufM-18" value="&lt;font style=&quot;font-size: 14px&quot;&gt;0x5E&lt;/font&gt;" style="html=1;shadow=0;dashed=0;shape=mxgraph.bootstrap.rrect;rSize=5;strokeColor=#33A64C;strokeWidth=1;fillColor=none;fontColor=#33A64C;whiteSpace=wrap;align=center;verticalAlign=middle;spacingLeft=0;fontStyle=0;fontSize=16;spacing=5;" parent="1" vertex="1">
          <mxGeometry x="120" y="920" width="80" height="30" as="geometry" />
        </mxCell>
        <mxCell id="u1n7_bYdNOXMyb52SufM-28" value="byte3+byte4" style="html=1;shadow=0;dashed=0;shape=mxgraph.bootstrap.rrect;rSize=5;strokeColor=none;strokeWidth=1;fillColor=#33A64C;fontColor=#ffffff;whiteSpace=wrap;align=left;verticalAlign=middle;fontStyle=0;fontSize=14;spacingLeft=10;" parent="1" vertex="1">
          <mxGeometry x="600" y="890" width="160" height="30" as="geometry" />
        </mxCell>
        <mxCell id="u1n7_bYdNOXMyb52SufM-29" value="" style="shape=triangle;direction=south;fillColor=#ffffff;strokeColor=none;perimeter=none;" parent="u1n7_bYdNOXMyb52SufM-28" vertex="1">
          <mxGeometry x="1" y="0.5" width="10" height="5" relative="1" as="geometry">
            <mxPoint x="-17" y="-2.5" as="offset" />
          </mxGeometry>
        </mxCell>
      </root>
    </mxGraphModel>
  </diagram>
  <diagram id="n63MsdBiEKH59CkSZyWR" name="Collector Hardware Send Protocol">
    <mxGraphModel dx="2440" dy="1407" grid="1" gridSize="10" guides="1" tooltips="1" connect="1" arrows="1" fold="1" page="1" pageScale="1" pageWidth="827" pageHeight="1169" math="0" shadow="0">
      <root>
        <mxCell id="NGkXbqjIqp7D_JJ2wPd0-0" />
        <mxCell id="NGkXbqjIqp7D_JJ2wPd0-1" parent="NGkXbqjIqp7D_JJ2wPd0-0" />
        <mxCell id="CizM2NcXElocPCuIm9Xc-26" value="" style="html=1;shadow=0;dashed=0;shape=mxgraph.bootstrap.rrect;rSize=5;strokeColor=#DFDFDF;html=1;whiteSpace=wrap;fillColor=#FFFFFF;fontColor=#000000;" parent="NGkXbqjIqp7D_JJ2wPd0-1" vertex="1">
          <mxGeometry x="320" y="760" width="280" height="120" as="geometry" />
        </mxCell>
        <mxCell id="CizM2NcXElocPCuIm9Xc-27" value="&lt;span style=&quot;color: rgb(27 , 30 , 33)&quot;&gt;send ADC value of Collector&#39;s battery and power&lt;/span&gt;" style="strokeColor=inherit;fillColor=inherit;gradientColor=inherit;fontColor=inherit;html=1;shadow=0;dashed=0;shape=mxgraph.bootstrap.topButton;rSize=5;perimeter=none;whiteSpace=wrap;resizeWidth=1;align=left;spacing=10;" parent="CizM2NcXElocPCuIm9Xc-26" vertex="1">
          <mxGeometry width="200" height="30" relative="1" as="geometry">
            <mxPoint x="80" as="offset" />
          </mxGeometry>
        </mxCell>
        <mxCell id="CizM2NcXElocPCuIm9Xc-29" value="&lt;span style=&quot;color: rgb(27 , 30 , 33)&quot;&gt;response data for FunctionID A8 command&amp;nbsp;&lt;/span&gt;" style="html=1;fillColor=#FFECBC;strokeColor=#DFCEA4;fontColor=#856110;shadow=0;dashed=0;perimeter=none;whiteSpace=wrap;resizeWidth=1;align=left;spacing=10;" parent="CizM2NcXElocPCuIm9Xc-26" vertex="1">
          <mxGeometry width="200" height="30" relative="1" as="geometry">
            <mxPoint x="80" y="60" as="offset" />
          </mxGeometry>
        </mxCell>
        <mxCell id="CizM2NcXElocPCuIm9Xc-30" value="response data for FunctionID A9 command&amp;nbsp;" style="html=1;shadow=0;dashed=0;shape=mxgraph.bootstrap.bottomButton;fillColor=#C6C8CA;strokeColor=#ADAFB1;fontColor=#1B1E21;rSize=5;perimeter=none;whiteSpace=wrap;resizeWidth=1;resizeHeight=0;align=left;spacing=10;" parent="CizM2NcXElocPCuIm9Xc-26" vertex="1">
          <mxGeometry y="1" width="200" height="30" relative="1" as="geometry">
            <mxPoint x="80" y="-30" as="offset" />
          </mxGeometry>
        </mxCell>
        <mxCell id="CizM2NcXElocPCuIm9Xc-31" value="&lt;span style=&quot;font-size: 14px&quot;&gt;0xB2&lt;/span&gt;" style="html=1;shadow=0;dashed=0;shape=mxgraph.bootstrap.rrect;rSize=5;strokeColor=#33A64C;strokeWidth=1;fillColor=none;fontColor=#33A64C;whiteSpace=wrap;align=center;verticalAlign=middle;spacingLeft=0;fontStyle=0;fontSize=16;spacing=5;" parent="CizM2NcXElocPCuIm9Xc-26" vertex="1">
          <mxGeometry width="80" height="30" as="geometry" />
        </mxCell>
        <mxCell id="CizM2NcXElocPCuIm9Xc-33" value="&lt;span style=&quot;font-size: 14px&quot;&gt;0xB8&lt;/span&gt;" style="html=1;shadow=0;dashed=0;shape=mxgraph.bootstrap.rrect;rSize=5;strokeColor=#33A64C;strokeWidth=1;fillColor=none;fontColor=#33A64C;whiteSpace=wrap;align=center;verticalAlign=middle;spacingLeft=0;fontStyle=0;fontSize=16;spacing=5;" parent="CizM2NcXElocPCuIm9Xc-26" vertex="1">
          <mxGeometry y="60" width="80" height="30" as="geometry" />
        </mxCell>
        <mxCell id="CizM2NcXElocPCuIm9Xc-34" value="&lt;span style=&quot;font-size: 14px&quot;&gt;0xB9&lt;/span&gt;" style="html=1;shadow=0;dashed=0;shape=mxgraph.bootstrap.rrect;rSize=5;strokeColor=#33A64C;strokeWidth=1;fillColor=none;fontColor=#33A64C;whiteSpace=wrap;align=center;verticalAlign=middle;spacingLeft=0;fontStyle=0;fontSize=16;spacing=5;" parent="CizM2NcXElocPCuIm9Xc-26" vertex="1">
          <mxGeometry y="90" width="80" height="30" as="geometry" />
        </mxCell>
        <mxCell id="LOjHBo9GFIJY8TO9Bgxs-0" value="&lt;span style=&quot;color: rgb(0 , 0 , 0)&quot;&gt;Reserved&lt;/span&gt;" style="html=1;fillColor=#B8DCFE;strokeColor=#A1C0DE;fontColor=#004583;shadow=0;dashed=0;perimeter=none;whiteSpace=wrap;resizeWidth=1;align=left;spacing=10;" parent="CizM2NcXElocPCuIm9Xc-26" vertex="1">
          <mxGeometry x="80" y="30" width="200" height="30" as="geometry" />
        </mxCell>
        <mxCell id="LOjHBo9GFIJY8TO9Bgxs-1" value="&lt;span style=&quot;font-size: 14px&quot;&gt;0xB3~B7&lt;/span&gt;" style="html=1;shadow=0;dashed=0;shape=mxgraph.bootstrap.rrect;rSize=5;strokeColor=#33A64C;strokeWidth=1;fillColor=none;fontColor=#33A64C;whiteSpace=wrap;align=center;verticalAlign=middle;spacingLeft=0;fontStyle=0;fontSize=16;spacing=5;" parent="CizM2NcXElocPCuIm9Xc-26" vertex="1">
          <mxGeometry y="30" width="80" height="30" as="geometry" />
        </mxCell>
        <mxCell id="NGkXbqjIqp7D_JJ2wPd0-2" value="&lt;b&gt;&lt;font style=&quot;font-size: 18px&quot;&gt;Collector Hardware ID&amp;nbsp;&lt;/font&gt;&lt;/b&gt;&lt;br style=&quot;font-size: 14px&quot;&gt;&lt;br style=&quot;font-size: 14px&quot;&gt;Each collector hardware has unique identification." style="html=1;shadow=0;dashed=0;shape=mxgraph.bootstrap.rrect;rSize=5;strokeColor=#0071D5;html=1;whiteSpace=wrap;fillColor=#0085FC;fontColor=#ffffff;verticalAlign=bottom;align=left;spacing=20;spacingBottom=0;fontSize=14;" parent="NGkXbqjIqp7D_JJ2wPd0-1" vertex="1">
          <mxGeometry x="40" y="80" width="280" height="200" as="geometry" />
        </mxCell>
        <mxCell id="NGkXbqjIqp7D_JJ2wPd0-3" value="&lt;b&gt;CollectorID&lt;/b&gt;" style="html=1;shadow=0;dashed=0;shape=mxgraph.bootstrap.topButton;rSize=5;perimeter=none;whiteSpace=wrap;fillColor=#0081F4;strokeColor=#0071D5;fontColor=#ffffff;resizeWidth=1;fontSize=18;align=left;spacing=20;" parent="NGkXbqjIqp7D_JJ2wPd0-2" vertex="1">
          <mxGeometry width="280" height="50" relative="1" as="geometry" />
        </mxCell>
        <mxCell id="NGkXbqjIqp7D_JJ2wPd0-4" value="&lt;span style=&quot;font-size: 16px; font-weight: 400;&quot;&gt;byte0&lt;/span&gt;" style="rounded=1;whiteSpace=wrap;html=1;arcSize=50;strokeColor=none;strokeWidth=1;fillColor=#343A40;fontColor=#ffffff;whiteSpace=wrap;align=center;verticalAlign=middle;spacingLeft=0;fontStyle=1;fontSize=14;spacing=10;" parent="NGkXbqjIqp7D_JJ2wPd0-2" vertex="1">
          <mxGeometry y="49.99666666666667" width="67.2" height="33.333333333333336" as="geometry" />
        </mxCell>
        <mxCell id="NGkXbqjIqp7D_JJ2wPd0-5" value="&lt;span style=&quot;font-size: 16px; font-weight: 400;&quot;&gt;byte1&lt;br&gt;&lt;/span&gt;" style="rounded=1;whiteSpace=wrap;html=1;arcSize=50;strokeColor=none;strokeWidth=1;fillColor=#343A40;fontColor=#ffffff;whiteSpace=wrap;align=center;verticalAlign=middle;spacingLeft=0;fontStyle=1;fontSize=14;spacing=10;" parent="NGkXbqjIqp7D_JJ2wPd0-2" vertex="1">
          <mxGeometry x="67.2" y="49.99666666666667" width="67.2" height="33.333333333333336" as="geometry" />
        </mxCell>
        <mxCell id="NGkXbqjIqp7D_JJ2wPd0-6" value="&lt;span style=&quot;font-size: 16px; font-weight: 400;&quot;&gt;byte2&lt;br&gt;&lt;/span&gt;" style="rounded=1;whiteSpace=wrap;html=1;arcSize=50;strokeColor=none;strokeWidth=1;fillColor=#343A40;fontColor=#ffffff;whiteSpace=wrap;align=center;verticalAlign=middle;spacingLeft=0;fontStyle=1;fontSize=14;spacing=10;" parent="NGkXbqjIqp7D_JJ2wPd0-2" vertex="1">
          <mxGeometry x="134.4" y="49.99666666666667" width="67.2" height="33.333333333333336" as="geometry" />
        </mxCell>
        <mxCell id="NGkXbqjIqp7D_JJ2wPd0-7" value="&lt;span style=&quot;font-size: 16px; font-weight: 400;&quot;&gt;byte3&lt;br&gt;&lt;/span&gt;" style="rounded=1;whiteSpace=wrap;html=1;arcSize=50;strokeColor=none;strokeWidth=1;fillColor=#343A40;fontColor=#ffffff;whiteSpace=wrap;align=center;verticalAlign=middle;spacingLeft=0;fontStyle=1;fontSize=14;spacing=10;" parent="NGkXbqjIqp7D_JJ2wPd0-2" vertex="1">
          <mxGeometry x="201.60000000000002" y="49.99666666666667" width="67.2" height="33.333333333333336" as="geometry" />
        </mxCell>
        <mxCell id="NGkXbqjIqp7D_JJ2wPd0-8" value="&lt;b&gt;&lt;font style=&quot;font-size: 18px&quot;&gt;Function ID For Control&lt;/font&gt;&lt;span style=&quot;font-size: 20px&quot;&gt;&amp;nbsp;&lt;/span&gt;&lt;/b&gt;&lt;br style=&quot;font-size: 14px&quot;&gt;&lt;br style=&quot;font-size: 14px&quot;&gt;Each protocol function has specific identification. The specific agreement is as follows." style="html=1;shadow=0;dashed=0;shape=mxgraph.bootstrap.rrect;rSize=5;strokeColor=#BA2239;html=1;whiteSpace=wrap;fillColor=#DB2843;fontColor=#ffffff;verticalAlign=bottom;align=left;spacing=20;spacingBottom=0;fontSize=14;" parent="NGkXbqjIqp7D_JJ2wPd0-1" vertex="1">
          <mxGeometry x="320" y="80" width="280" height="200" as="geometry" />
        </mxCell>
        <mxCell id="NGkXbqjIqp7D_JJ2wPd0-9" value="FunctionID" style="html=1;shadow=0;dashed=0;shape=mxgraph.bootstrap.topButton;rSize=5;perimeter=none;whiteSpace=wrap;fillColor=#D42741;strokeColor=#BA2239;fontColor=#ffffff;resizeWidth=1;fontSize=18;align=left;spacing=20;" parent="NGkXbqjIqp7D_JJ2wPd0-8" vertex="1">
          <mxGeometry width="280" height="50" relative="1" as="geometry" />
        </mxCell>
        <mxCell id="NGkXbqjIqp7D_JJ2wPd0-10" value="&lt;span style=&quot;font-size: 16px ; font-weight: 400&quot;&gt;byte4&lt;/span&gt;" style="rounded=1;whiteSpace=wrap;html=1;arcSize=50;strokeColor=none;strokeWidth=1;fillColor=#343A40;fontColor=#ffffff;whiteSpace=wrap;align=center;verticalAlign=middle;spacingLeft=0;fontStyle=1;fontSize=14;spacing=10;" parent="NGkXbqjIqp7D_JJ2wPd0-8" vertex="1">
          <mxGeometry y="49.99666666666667" width="67.2" height="33.333333333333336" as="geometry" />
        </mxCell>
        <mxCell id="NGkXbqjIqp7D_JJ2wPd0-11" value="" style="html=1;shadow=0;dashed=0;shape=mxgraph.bootstrap.rrect;rSize=5;strokeColor=#DFDFDF;html=1;whiteSpace=wrap;fillColor=#FFFFFF;fontColor=#000000;" parent="NGkXbqjIqp7D_JJ2wPd0-1" vertex="1">
          <mxGeometry x="320" y="320" width="280" height="70" as="geometry" />
        </mxCell>
        <mxCell id="NGkXbqjIqp7D_JJ2wPd0-12" value="send collar data, incloud activity data and feed volume data, battery power data, signal strength" style="strokeColor=inherit;fillColor=inherit;gradientColor=inherit;fontColor=inherit;html=1;shadow=0;dashed=0;shape=mxgraph.bootstrap.topButton;rSize=5;perimeter=none;whiteSpace=wrap;resizeWidth=1;align=left;spacing=10;" parent="NGkXbqjIqp7D_JJ2wPd0-11" vertex="1">
          <mxGeometry width="200" height="70" relative="1" as="geometry">
            <mxPoint x="80" as="offset" />
          </mxGeometry>
        </mxCell>
        <mxCell id="NGkXbqjIqp7D_JJ2wPd0-16" value="&lt;font style=&quot;font-size: 14px&quot;&gt;0xB0&lt;/font&gt;" style="html=1;shadow=0;dashed=0;shape=mxgraph.bootstrap.rrect;rSize=5;strokeColor=#33A64C;strokeWidth=1;fillColor=none;fontColor=#33A64C;whiteSpace=wrap;align=center;verticalAlign=middle;spacingLeft=0;fontStyle=0;fontSize=16;spacing=5;" parent="NGkXbqjIqp7D_JJ2wPd0-11" vertex="1">
          <mxGeometry width="80" height="70" as="geometry" />
        </mxCell>
        <mxCell id="NGkXbqjIqp7D_JJ2wPd0-20" value="byte4" style="html=1;shadow=0;dashed=0;shape=mxgraph.bootstrap.rrect;rSize=5;strokeColor=none;strokeWidth=1;fillColor=#33A64C;fontColor=#ffffff;whiteSpace=wrap;align=left;verticalAlign=middle;fontStyle=0;fontSize=14;spacingLeft=10;" parent="NGkXbqjIqp7D_JJ2wPd0-1" vertex="1">
          <mxGeometry x="320" y="290" width="80" height="30" as="geometry" />
        </mxCell>
        <mxCell id="NGkXbqjIqp7D_JJ2wPd0-21" value="" style="shape=triangle;direction=south;fillColor=#ffffff;strokeColor=none;perimeter=none;" parent="NGkXbqjIqp7D_JJ2wPd0-20" vertex="1">
          <mxGeometry x="1" y="0.5" width="10" height="5" relative="1" as="geometry">
            <mxPoint x="-17" y="-2.5" as="offset" />
          </mxGeometry>
        </mxCell>
        <mxCell id="NGkXbqjIqp7D_JJ2wPd0-22" value="&lt;b&gt;&lt;font style=&quot;font-size: 18px&quot;&gt;Radio Frequency ID&lt;/font&gt;&lt;/b&gt;&lt;br style=&quot;font-size: 14px&quot;&gt;&lt;br style=&quot;font-size: 14px&quot;&gt;Each collar hardware has unique identification." style="html=1;shadow=0;dashed=0;shape=mxgraph.bootstrap.rrect;rSize=5;strokeColor=#5B646A;html=1;whiteSpace=wrap;fillColor=#6C767D;fontColor=#ffffff;verticalAlign=bottom;align=left;spacing=20;spacingBottom=0;fontSize=14;" parent="NGkXbqjIqp7D_JJ2wPd0-1" vertex="1">
          <mxGeometry x="600" y="80" width="280" height="200" as="geometry" />
        </mxCell>
        <mxCell id="NGkXbqjIqp7D_JJ2wPd0-23" value="RFID" style="html=1;shadow=0;dashed=0;shape=mxgraph.bootstrap.topButton;rSize=5;perimeter=none;whiteSpace=wrap;fillColor=#697279;strokeColor=#5B646A;fontColor=#ffffff;resizeWidth=1;fontSize=18;align=left;spacing=20;" parent="NGkXbqjIqp7D_JJ2wPd0-22" vertex="1">
          <mxGeometry width="280" height="50" relative="1" as="geometry" />
        </mxCell>
        <mxCell id="NGkXbqjIqp7D_JJ2wPd0-24" value="&lt;span style=&quot;font-size: 16px ; font-weight: 400&quot;&gt;byte5&lt;/span&gt;" style="rounded=1;whiteSpace=wrap;html=1;arcSize=50;strokeColor=none;strokeWidth=1;fillColor=#343A40;fontColor=#ffffff;whiteSpace=wrap;align=center;verticalAlign=middle;spacingLeft=0;fontStyle=1;fontSize=14;spacing=10;" parent="NGkXbqjIqp7D_JJ2wPd0-22" vertex="1">
          <mxGeometry y="49.99666666666667" width="67.2" height="33.333333333333336" as="geometry" />
        </mxCell>
        <mxCell id="NGkXbqjIqp7D_JJ2wPd0-25" value="&lt;span style=&quot;font-size: 16px ; font-weight: 400&quot;&gt;6…7&lt;br&gt;&lt;/span&gt;" style="rounded=1;whiteSpace=wrap;html=1;arcSize=50;strokeColor=none;strokeWidth=1;fillColor=#343A40;fontColor=#ffffff;whiteSpace=wrap;align=center;verticalAlign=middle;spacingLeft=0;fontStyle=1;fontSize=14;spacing=10;" parent="NGkXbqjIqp7D_JJ2wPd0-22" vertex="1">
          <mxGeometry x="67.20000000000005" y="49.99666666666667" width="67.2" height="33.333333333333336" as="geometry" />
        </mxCell>
        <mxCell id="NGkXbqjIqp7D_JJ2wPd0-26" value="&lt;span style=&quot;font-size: 16px ; font-weight: 400&quot;&gt;8…9&lt;br&gt;&lt;/span&gt;" style="rounded=1;whiteSpace=wrap;html=1;arcSize=50;strokeColor=none;strokeWidth=1;fillColor=#343A40;fontColor=#ffffff;whiteSpace=wrap;align=center;verticalAlign=middle;spacingLeft=0;fontStyle=1;fontSize=14;spacing=10;" parent="NGkXbqjIqp7D_JJ2wPd0-22" vertex="1">
          <mxGeometry x="134.39999999999998" y="49.99666666666667" width="67.2" height="33.333333333333336" as="geometry" />
        </mxCell>
        <mxCell id="NGkXbqjIqp7D_JJ2wPd0-27" value="&lt;span style=&quot;font-size: 16px ; font-weight: 400&quot;&gt;byte10&lt;br&gt;&lt;/span&gt;" style="rounded=1;whiteSpace=wrap;html=1;arcSize=50;strokeColor=none;strokeWidth=1;fillColor=#343A40;fontColor=#ffffff;whiteSpace=wrap;align=center;verticalAlign=middle;spacingLeft=0;fontStyle=1;fontSize=14;spacing=10;" parent="NGkXbqjIqp7D_JJ2wPd0-22" vertex="1">
          <mxGeometry x="201.60000000000002" y="49.99666666666667" width="67.2" height="33.333333333333336" as="geometry" />
        </mxCell>
        <mxCell id="NGkXbqjIqp7D_JJ2wPd0-28" value="&lt;b&gt;&lt;font style=&quot;font-size: 18px&quot;&gt;Send Data Value&lt;/font&gt;&lt;/b&gt;&lt;br style=&quot;font-size: 14px&quot;&gt;&lt;br style=&quot;font-size: 14px&quot;&gt;Send data for the corresponding function. The specific agreement is as follows." style="html=1;shadow=0;dashed=0;shape=mxgraph.bootstrap.rrect;rSize=5;strokeColor=#33A64C;html=1;whiteSpace=wrap;fillColor=#ffffff;fontColor=#33A64C;verticalAlign=bottom;align=left;spacing=20;spacingBottom=0;fontSize=14;" parent="NGkXbqjIqp7D_JJ2wPd0-1" vertex="1">
          <mxGeometry x="1160" y="80" width="280" height="200" as="geometry" />
        </mxCell>
        <mxCell id="NGkXbqjIqp7D_JJ2wPd0-29" value="Send Data" style="html=1;shadow=0;dashed=0;shape=mxgraph.bootstrap.topButton;rSize=5;perimeter=none;whiteSpace=wrap;fillColor=#F7F7F7;strokeColor=#33A64C;fontColor=#6C767D;resizeWidth=1;fontSize=18;align=left;spacing=20;" parent="NGkXbqjIqp7D_JJ2wPd0-28" vertex="1">
          <mxGeometry width="280" height="50" relative="1" as="geometry" />
        </mxCell>
        <mxCell id="NGkXbqjIqp7D_JJ2wPd0-30" value="&lt;span style=&quot;font-size: 16px ; font-weight: 400&quot;&gt;byte43&lt;/span&gt;" style="rounded=1;whiteSpace=wrap;html=1;arcSize=50;strokeColor=none;strokeWidth=1;fillColor=#343A40;fontColor=#ffffff;whiteSpace=wrap;align=center;verticalAlign=middle;spacingLeft=0;fontStyle=1;fontSize=14;spacing=10;" parent="NGkXbqjIqp7D_JJ2wPd0-28" vertex="1">
          <mxGeometry y="49.99666666666667" width="67.2" height="33.333333333333336" as="geometry" />
        </mxCell>
        <mxCell id="NGkXbqjIqp7D_JJ2wPd0-31" value="&lt;span style=&quot;font-size: 16px ; font-weight: 400&quot;&gt;……&lt;br&gt;&lt;/span&gt;" style="rounded=1;whiteSpace=wrap;html=1;arcSize=50;strokeColor=none;strokeWidth=1;fillColor=#343A40;fontColor=#ffffff;whiteSpace=wrap;align=center;verticalAlign=middle;spacingLeft=0;fontStyle=1;fontSize=14;spacing=10;" parent="NGkXbqjIqp7D_JJ2wPd0-28" vertex="1">
          <mxGeometry x="67.20000000000005" y="49.99666666666667" width="67.2" height="33.333333333333336" as="geometry" />
        </mxCell>
        <mxCell id="NGkXbqjIqp7D_JJ2wPd0-32" value="&lt;span style=&quot;font-size: 16px ; font-weight: 400&quot;&gt;……&lt;br&gt;&lt;/span&gt;" style="rounded=1;whiteSpace=wrap;html=1;arcSize=50;strokeColor=none;strokeWidth=1;fillColor=#343A40;fontColor=#ffffff;whiteSpace=wrap;align=center;verticalAlign=middle;spacingLeft=0;fontStyle=1;fontSize=14;spacing=10;" parent="NGkXbqjIqp7D_JJ2wPd0-28" vertex="1">
          <mxGeometry x="134.39999999999998" y="49.99666666666667" width="67.2" height="33.333333333333336" as="geometry" />
        </mxCell>
        <mxCell id="NGkXbqjIqp7D_JJ2wPd0-33" value="&lt;span style=&quot;font-size: 16px ; font-weight: 400&quot;&gt;……&lt;br&gt;&lt;/span&gt;" style="rounded=1;whiteSpace=wrap;html=1;arcSize=50;strokeColor=none;strokeWidth=1;fillColor=#343A40;fontColor=#ffffff;whiteSpace=wrap;align=center;verticalAlign=middle;spacingLeft=0;fontStyle=1;fontSize=14;spacing=10;" parent="NGkXbqjIqp7D_JJ2wPd0-28" vertex="1">
          <mxGeometry x="201.5999999999999" y="49.99666666666667" width="67.2" height="33.333333333333336" as="geometry" />
        </mxCell>
        <mxCell id="CizM2NcXElocPCuIm9Xc-35" value="byte4" style="html=1;shadow=0;dashed=0;shape=mxgraph.bootstrap.rrect;rSize=5;strokeColor=none;strokeWidth=1;fillColor=#33A64C;fontColor=#ffffff;whiteSpace=wrap;align=left;verticalAlign=middle;fontStyle=0;fontSize=14;spacingLeft=10;" parent="NGkXbqjIqp7D_JJ2wPd0-1" vertex="1">
          <mxGeometry x="320" y="730" width="80" height="30" as="geometry" />
        </mxCell>
        <mxCell id="CizM2NcXElocPCuIm9Xc-36" value="" style="shape=triangle;direction=south;fillColor=#ffffff;strokeColor=none;perimeter=none;" parent="CizM2NcXElocPCuIm9Xc-35" vertex="1">
          <mxGeometry x="1" y="0.5" width="10" height="5" relative="1" as="geometry">
            <mxPoint x="-17" y="-2.5" as="offset" />
          </mxGeometry>
        </mxCell>
        <mxCell id="NGkXbqjIqp7D_JJ2wPd0-34" value="&lt;b&gt;Collector Hardware Send Protocol&lt;/b&gt;" style="html=1;shadow=0;dashed=0;shape=mxgraph.bootstrap.rrect;rSize=5;strokeColor=#B8DCFE;strokeWidth=1;fillColor=#CCE7FE;fontColor=#004583;whiteSpace=wrap;align=left;verticalAlign=middle;spacingLeft=10;fontSize=14;" parent="NGkXbqjIqp7D_JJ2wPd0-1" vertex="1">
          <mxGeometry x="40" width="1400" height="30" as="geometry" />
        </mxCell>
        <mxCell id="NGkXbqjIqp7D_JJ2wPd0-35" value="" style="html=1;shadow=0;dashed=0;shape=mxgraph.bootstrap.rrect;rSize=5;strokeColor=#DFDFDF;html=1;whiteSpace=wrap;fillColor=#FFFFFF;fontColor=#000000;" parent="NGkXbqjIqp7D_JJ2wPd0-1" vertex="1">
          <mxGeometry x="1160" y="320" width="281" height="710" as="geometry" />
        </mxCell>
        <mxCell id="NGkXbqjIqp7D_JJ2wPd0-36" value="Reset data&amp;nbsp;of collar contains 12 groups of 2 bytes each.&amp;nbsp;Each group contained reset data for about 20 minutes.So 4 hours of&amp;nbsp; data were recorded." style="strokeColor=inherit;fillColor=inherit;gradientColor=inherit;fontColor=inherit;html=1;shadow=0;dashed=0;shape=mxgraph.bootstrap.topButton;rSize=5;perimeter=none;whiteSpace=wrap;resizeWidth=1;align=left;spacing=10;" parent="NGkXbqjIqp7D_JJ2wPd0-35" vertex="1">
          <mxGeometry width="200" height="80" relative="1" as="geometry">
            <mxPoint x="80" as="offset" />
          </mxGeometry>
        </mxCell>
        <mxCell id="NGkXbqjIqp7D_JJ2wPd0-37" value="&lt;font color=&quot;#000000&quot;&gt;Ingestion data&amp;nbsp;of collar contains 12 groups of 2 bytes each.&amp;nbsp;Each group contained ingestion data for about 20 minutes.So 4 hours of&amp;nbsp;data were recorded.&lt;/font&gt;" style="html=1;fillColor=#B8DCFE;strokeColor=#A1C0DE;fontColor=#004583;shadow=0;dashed=0;perimeter=none;whiteSpace=wrap;resizeWidth=1;align=left;spacing=10;" parent="NGkXbqjIqp7D_JJ2wPd0-35" vertex="1">
          <mxGeometry width="200" height="80" relative="1" as="geometry">
            <mxPoint x="80" y="80" as="offset" />
          </mxGeometry>
        </mxCell>
        <mxCell id="NGkXbqjIqp7D_JJ2wPd0-38" value="&lt;font color=&quot;#000000&quot;&gt;step stage of group, it add one every 20 minutes,its value range is 0~11.&lt;/font&gt;" style="html=1;fillColor=#FFECBC;strokeColor=#DFCEA4;fontColor=#856110;shadow=0;dashed=0;perimeter=none;whiteSpace=wrap;resizeWidth=1;align=left;spacing=10;" parent="NGkXbqjIqp7D_JJ2wPd0-35" vertex="1">
          <mxGeometry width="200" height="50" relative="1" as="geometry">
            <mxPoint x="80" y="480" as="offset" />
          </mxGeometry>
        </mxCell>
        <mxCell id="NGkXbqjIqp7D_JJ2wPd0-39" value="&lt;span style=&quot;color: rgb(0 , 0 , 0)&quot;&gt;battery power data&lt;/span&gt;" style="html=1;fillColor=#BFE6EB;strokeColor=#A7C9CE;fontColor=#0E5560;shadow=0;dashed=0;perimeter=none;whiteSpace=wrap;resizeWidth=1;align=left;spacing=10;" parent="NGkXbqjIqp7D_JJ2wPd0-35" vertex="1">
          <mxGeometry width="200" height="30" relative="1" as="geometry">
            <mxPoint x="80" y="530" as="offset" />
          </mxGeometry>
        </mxCell>
        <mxCell id="NGkXbqjIqp7D_JJ2wPd0-40" value="&lt;span style=&quot;color: rgb(0 , 0 , 0)&quot;&gt;CRC32 verify data&lt;/span&gt;" style="html=1;shadow=0;dashed=0;shape=mxgraph.bootstrap.bottomButton;fillColor=#C6C8CA;strokeColor=#ADAFB1;fontColor=#1B1E21;rSize=5;perimeter=none;whiteSpace=wrap;resizeWidth=1;resizeHeight=0;align=left;spacing=10;" parent="NGkXbqjIqp7D_JJ2wPd0-35" vertex="1">
          <mxGeometry y="1" width="200" height="29" relative="1" as="geometry">
            <mxPoint x="80" y="-30" as="offset" />
          </mxGeometry>
        </mxCell>
        <mxCell id="NGkXbqjIqp7D_JJ2wPd0-43" value="&lt;span style=&quot;color: rgb(0 , 0 , 0) ; font-size: 12px&quot;&gt;signal strength of collector reveive&lt;/span&gt;" style="html=1;fillColor=#e1d5e7;strokeColor=#9673a6;shadow=0;dashed=0;perimeter=none;whiteSpace=wrap;resizeWidth=1;align=left;spacing=10;fontSize=14;" parent="NGkXbqjIqp7D_JJ2wPd0-35" vertex="1">
          <mxGeometry width="200" height="30" relative="1" as="geometry">
            <mxPoint x="80" y="590" as="offset" />
          </mxGeometry>
        </mxCell>
        <mxCell id="a-iAY4NESm17f0qbIUmn-8" value="&lt;font color=&quot;#000000&quot;&gt;Other data&amp;nbsp;of collar contains 12 groups of 2 bytes each.&amp;nbsp;Each group contained other data for about 20 minutes.So 4 hours of&amp;nbsp;data were recorded.&lt;/font&gt;" style="html=1;fillColor=#B8DCFE;strokeColor=#A1C0DE;fontColor=#004583;shadow=0;dashed=0;perimeter=none;whiteSpace=wrap;resizeWidth=1;align=left;spacing=10;" parent="NGkXbqjIqp7D_JJ2wPd0-35" vertex="1">
          <mxGeometry x="80" y="400" width="200" height="80" as="geometry" />
        </mxCell>
        <mxCell id="6SbMObq7IhAC3QdNSP-j-0" value="&lt;span style=&quot;color: rgb(0 , 0 , 0) ; font-size: 12px&quot;&gt;reset count of collar&lt;/span&gt;" style="html=1;fillColor=#f8cecc;strokeColor=#b85450;shadow=0;dashed=0;perimeter=none;whiteSpace=wrap;resizeWidth=1;align=left;spacing=10;fontSize=14;" parent="NGkXbqjIqp7D_JJ2wPd0-35" vertex="1">
          <mxGeometry x="80" y="560" width="200" height="30" as="geometry" />
        </mxCell>
        <mxCell id="a-iAY4NESm17f0qbIUmn-3" value="&lt;font color=&quot;#000000&quot;&gt;Movement data&amp;nbsp;of collar contains 12 groups of 2 bytes each.&amp;nbsp;Each group contained movement data for about 20 minutes.So 4 hours of&amp;nbsp;data were recorded.&lt;/font&gt;" style="html=1;shadow=0;dashed=0;perimeter=none;whiteSpace=wrap;resizeWidth=1;align=left;spacing=10;" parent="NGkXbqjIqp7D_JJ2wPd0-35" vertex="1">
          <mxGeometry x="80" y="160" width="200" height="80" as="geometry" />
        </mxCell>
        <mxCell id="MVj-uqL-ZTLsONgFNEx9-0" value="&lt;span style=&quot;color: rgb(14 , 85 , 96) ; font-size: 12px&quot;&gt;UTC time incloud year and month, date, weekday, hour, minute, second&lt;/span&gt;" style="html=1;fillColor=#d5e8d4;strokeColor=#82b366;shadow=0;dashed=0;perimeter=none;whiteSpace=wrap;resizeWidth=1;align=left;spacing=10;fontSize=14;" parent="NGkXbqjIqp7D_JJ2wPd0-35" vertex="1">
          <mxGeometry x="80" y="620" width="200" height="60" as="geometry" />
        </mxCell>
        <mxCell id="a-iAY4NESm17f0qbIUmn-7" value="&lt;font color=&quot;#000000&quot;&gt;Ruminate data&amp;nbsp;of collar contains 12 groups of 2 bytes each.&amp;nbsp;Each group contained ruminate data for about 20 minutes.So 4 hours of&amp;nbsp;data were recorded.&lt;/font&gt;" style="html=1;shadow=0;dashed=0;perimeter=none;whiteSpace=wrap;resizeWidth=1;align=left;spacing=10;" parent="NGkXbqjIqp7D_JJ2wPd0-35" vertex="1">
          <mxGeometry x="80" y="320" width="200" height="80" as="geometry" />
        </mxCell>
        <mxCell id="a-iAY4NESm17f0qbIUmn-6" value="&lt;font color=&quot;#000000&quot;&gt;Climb data&amp;nbsp;of collar contains 12 groups of 2 bytes each.&amp;nbsp;Each group contained climb data for about 20 minutes.So 4 hours of&amp;nbsp;data were recorded.&lt;/font&gt;" style="html=1;fillColor=#B8DCFE;strokeColor=#A1C0DE;fontColor=#004583;shadow=0;dashed=0;perimeter=none;whiteSpace=wrap;resizeWidth=1;align=left;spacing=10;" parent="NGkXbqjIqp7D_JJ2wPd0-35" vertex="1">
          <mxGeometry x="80" y="240" width="200" height="80" as="geometry" />
        </mxCell>
        <mxCell id="NGkXbqjIqp7D_JJ2wPd0-41" value="&lt;font style=&quot;font-size: 14px&quot; color=&quot;#db2843&quot;&gt;byte43~66&lt;/font&gt;" style="html=1;shadow=0;dashed=0;shape=mxgraph.bootstrap.rrect;rSize=5;strokeColor=#DB2843;strokeWidth=1;fillColor=none;fontColor=#33A64C;whiteSpace=wrap;align=center;verticalAlign=middle;spacingLeft=0;fontStyle=0;fontSize=16;spacing=5;" parent="NGkXbqjIqp7D_JJ2wPd0-35" vertex="1">
          <mxGeometry width="80" height="80" as="geometry" />
        </mxCell>
        <mxCell id="NGkXbqjIqp7D_JJ2wPd0-42" value="&lt;span style=&quot;color: rgb(219 , 40 , 67) ; font-size: 14px&quot;&gt;byte187&lt;/span&gt;" style="html=1;shadow=0;dashed=0;shape=mxgraph.bootstrap.rrect;rSize=5;strokeColor=#DB2843;strokeWidth=1;fillColor=none;fontColor=#33A64C;whiteSpace=wrap;align=center;verticalAlign=middle;spacingLeft=0;fontStyle=0;fontSize=16;spacing=5;" parent="NGkXbqjIqp7D_JJ2wPd0-35" vertex="1">
          <mxGeometry y="480" width="80" height="50" as="geometry" />
        </mxCell>
        <mxCell id="NGkXbqjIqp7D_JJ2wPd0-44" value="&lt;span style=&quot;color: rgb(219 , 40 , 67) ; font-size: 14px&quot;&gt;byte188~189&lt;/span&gt;" style="html=1;shadow=0;dashed=0;shape=mxgraph.bootstrap.rrect;rSize=5;strokeColor=#DB2843;strokeWidth=1;fillColor=none;fontColor=#33A64C;whiteSpace=wrap;align=center;verticalAlign=middle;spacingLeft=0;fontStyle=0;fontSize=16;spacing=5;" parent="NGkXbqjIqp7D_JJ2wPd0-35" vertex="1">
          <mxGeometry y="530" width="80" height="30" as="geometry" />
        </mxCell>
        <mxCell id="NGkXbqjIqp7D_JJ2wPd0-45" value="&lt;span style=&quot;color: rgb(219 , 40 , 67) ; font-size: 14px&quot;&gt;byte193~199&lt;/span&gt;" style="html=1;shadow=0;dashed=0;shape=mxgraph.bootstrap.rrect;rSize=5;strokeColor=#DB2843;strokeWidth=1;fillColor=none;fontColor=#33A64C;whiteSpace=wrap;align=center;verticalAlign=middle;spacingLeft=0;fontStyle=0;fontSize=16;spacing=5;" parent="NGkXbqjIqp7D_JJ2wPd0-35" vertex="1">
          <mxGeometry y="620" width="80" height="60" as="geometry" />
        </mxCell>
        <mxCell id="NGkXbqjIqp7D_JJ2wPd0-46" value="&lt;span style=&quot;color: rgb(219 , 40 , 67) ; font-size: 14px&quot;&gt;byte200~203&lt;/span&gt;" style="html=1;shadow=0;dashed=0;shape=mxgraph.bootstrap.rrect;rSize=5;strokeColor=#DB2843;strokeWidth=1;fillColor=none;fontColor=#33A64C;whiteSpace=wrap;align=center;verticalAlign=middle;spacingLeft=0;fontStyle=0;fontSize=16;spacing=5;" parent="NGkXbqjIqp7D_JJ2wPd0-35" vertex="1">
          <mxGeometry y="680" width="80" height="30" as="geometry" />
        </mxCell>
        <mxCell id="NGkXbqjIqp7D_JJ2wPd0-47" value="&lt;font style=&quot;font-size: 14px&quot; color=&quot;#db2843&quot;&gt;byte67~90&lt;/font&gt;" style="html=1;shadow=0;dashed=0;shape=mxgraph.bootstrap.rrect;rSize=5;strokeColor=#DB2843;strokeWidth=1;fillColor=none;fontColor=#33A64C;whiteSpace=wrap;align=center;verticalAlign=middle;spacingLeft=0;fontStyle=0;fontSize=16;spacing=5;" parent="NGkXbqjIqp7D_JJ2wPd0-35" vertex="1">
          <mxGeometry y="80" width="80" height="80" as="geometry" />
        </mxCell>
        <mxCell id="MVj-uqL-ZTLsONgFNEx9-1" value="&lt;span style=&quot;color: rgb(219 , 40 , 67) ; font-size: 14px&quot;&gt;byte192&lt;/span&gt;" style="html=1;shadow=0;dashed=0;shape=mxgraph.bootstrap.rrect;rSize=5;strokeColor=#DB2843;strokeWidth=1;fillColor=none;fontColor=#33A64C;whiteSpace=wrap;align=center;verticalAlign=middle;spacingLeft=0;fontStyle=0;fontSize=16;spacing=5;" parent="NGkXbqjIqp7D_JJ2wPd0-35" vertex="1">
          <mxGeometry y="590" width="80" height="30" as="geometry" />
        </mxCell>
        <mxCell id="6SbMObq7IhAC3QdNSP-j-1" value="&lt;span style=&quot;color: rgb(219 , 40 , 67) ; font-size: 14px&quot;&gt;byte190~191&lt;br&gt;&lt;/span&gt;" style="html=1;shadow=0;dashed=0;shape=mxgraph.bootstrap.rrect;rSize=5;strokeColor=#DB2843;strokeWidth=1;fillColor=none;fontColor=#33A64C;whiteSpace=wrap;align=center;verticalAlign=middle;spacingLeft=0;fontStyle=0;fontSize=16;spacing=5;" parent="NGkXbqjIqp7D_JJ2wPd0-35" vertex="1">
          <mxGeometry y="560" width="80" height="30" as="geometry" />
        </mxCell>
        <mxCell id="a-iAY4NESm17f0qbIUmn-4" value="&lt;font style=&quot;font-size: 14px&quot; color=&quot;#db2843&quot;&gt;byte91~114&lt;/font&gt;" style="html=1;shadow=0;dashed=0;shape=mxgraph.bootstrap.rrect;rSize=5;strokeColor=#DB2843;strokeWidth=1;fillColor=none;fontColor=#33A64C;whiteSpace=wrap;align=center;verticalAlign=middle;spacingLeft=0;fontStyle=0;fontSize=16;spacing=5;" parent="NGkXbqjIqp7D_JJ2wPd0-35" vertex="1">
          <mxGeometry y="160" width="80" height="80" as="geometry" />
        </mxCell>
        <mxCell id="a-iAY4NESm17f0qbIUmn-9" value="&lt;font style=&quot;font-size: 14px&quot; color=&quot;#db2843&quot;&gt;byte139~162&lt;/font&gt;" style="html=1;shadow=0;dashed=0;shape=mxgraph.bootstrap.rrect;rSize=5;strokeColor=#DB2843;strokeWidth=1;fillColor=none;fontColor=#33A64C;whiteSpace=wrap;align=center;verticalAlign=middle;spacingLeft=0;fontStyle=0;fontSize=16;spacing=5;" parent="NGkXbqjIqp7D_JJ2wPd0-35" vertex="1">
          <mxGeometry y="320" width="80" height="80" as="geometry" />
        </mxCell>
        <mxCell id="a-iAY4NESm17f0qbIUmn-10" value="&lt;font style=&quot;font-size: 14px&quot; color=&quot;#db2843&quot;&gt;byte163~186&lt;/font&gt;" style="html=1;shadow=0;dashed=0;shape=mxgraph.bootstrap.rrect;rSize=5;strokeColor=#DB2843;strokeWidth=1;fillColor=none;fontColor=#33A64C;whiteSpace=wrap;align=center;verticalAlign=middle;spacingLeft=0;fontStyle=0;fontSize=16;spacing=5;" parent="NGkXbqjIqp7D_JJ2wPd0-35" vertex="1">
          <mxGeometry y="400" width="80" height="80" as="geometry" />
        </mxCell>
        <mxCell id="a-iAY4NESm17f0qbIUmn-5" value="&lt;font style=&quot;font-size: 14px&quot; color=&quot;#db2843&quot;&gt;byte115~138&lt;/font&gt;" style="html=1;shadow=0;dashed=0;shape=mxgraph.bootstrap.rrect;rSize=5;strokeColor=#DB2843;strokeWidth=1;fillColor=none;fontColor=#33A64C;whiteSpace=wrap;align=center;verticalAlign=middle;spacingLeft=0;fontStyle=0;fontSize=16;spacing=5;" parent="NGkXbqjIqp7D_JJ2wPd0-35" vertex="1">
          <mxGeometry y="240" width="80" height="80" as="geometry" />
        </mxCell>
        <mxCell id="NGkXbqjIqp7D_JJ2wPd0-48" value="FunctionID:B0" style="html=1;shadow=0;dashed=0;shape=mxgraph.bootstrap.rrect;rSize=5;strokeColor=none;strokeWidth=1;fillColor=#DB2843;fontColor=#ffffff;whiteSpace=wrap;align=left;verticalAlign=middle;fontStyle=0;fontSize=14;spacingLeft=10;" parent="NGkXbqjIqp7D_JJ2wPd0-1" vertex="1">
          <mxGeometry x="1160" y="290" width="160" height="30" as="geometry" />
        </mxCell>
        <mxCell id="NGkXbqjIqp7D_JJ2wPd0-49" value="" style="shape=triangle;direction=south;fillColor=#ffffff;strokeColor=none;perimeter=none;" parent="NGkXbqjIqp7D_JJ2wPd0-48" vertex="1">
          <mxGeometry x="1" y="0.5" width="10" height="5" relative="1" as="geometry">
            <mxPoint x="-17" y="-2.5" as="offset" />
          </mxGeometry>
        </mxCell>
        <mxCell id="NGkXbqjIqp7D_JJ2wPd0-50" value="" style="curved=1;endArrow=classic;html=1;rounded=0;fontSize=14;fontColor=#DB2843;entryX=-0.014;entryY=0.548;entryDx=0;entryDy=0;entryPerimeter=0;" parent="NGkXbqjIqp7D_JJ2wPd0-1" source="NGkXbqjIqp7D_JJ2wPd0-9" target="NGkXbqjIqp7D_JJ2wPd0-48" edge="1">
          <mxGeometry width="50" height="50" relative="1" as="geometry">
            <mxPoint x="380" y="340" as="sourcePoint" />
            <mxPoint x="940" y="480" as="targetPoint" />
            <Array as="points">
              <mxPoint x="590" y="250" />
              <mxPoint x="720" y="350" />
            </Array>
          </mxGeometry>
        </mxCell>
        <mxCell id="NGkXbqjIqp7D_JJ2wPd0-51" value="" style="html=1;shadow=0;dashed=0;shape=mxgraph.bootstrap.rrect;rSize=5;strokeColor=#DFDFDF;html=1;whiteSpace=wrap;fillColor=#FFFFFF;fontColor=#000000;" parent="NGkXbqjIqp7D_JJ2wPd0-1" vertex="1">
          <mxGeometry x="600" y="1090" width="280" height="60" as="geometry" />
        </mxCell>
        <mxCell id="NGkXbqjIqp7D_JJ2wPd0-52" value="Unnecessary" style="strokeColor=inherit;fillColor=inherit;gradientColor=inherit;fontColor=inherit;html=1;shadow=0;dashed=0;shape=mxgraph.bootstrap.topButton;rSize=5;perimeter=none;whiteSpace=wrap;resizeWidth=1;align=left;spacing=10;" parent="NGkXbqjIqp7D_JJ2wPd0-51" vertex="1">
          <mxGeometry width="200" height="30" relative="1" as="geometry">
            <mxPoint x="80" as="offset" />
          </mxGeometry>
        </mxCell>
        <mxCell id="NGkXbqjIqp7D_JJ2wPd0-53" value="&lt;span style=&quot;color: rgb(0 , 0 , 0)&quot;&gt;Unnecessary&lt;/span&gt;" style="html=1;shadow=0;dashed=0;shape=mxgraph.bootstrap.bottomButton;fillColor=#C6C8CA;strokeColor=#ADAFB1;fontColor=#1B1E21;rSize=5;perimeter=none;whiteSpace=wrap;resizeWidth=1;resizeHeight=0;align=left;spacing=10;" parent="NGkXbqjIqp7D_JJ2wPd0-51" vertex="1">
          <mxGeometry y="1" width="200" height="30" relative="1" as="geometry">
            <mxPoint x="80" y="-30" as="offset" />
          </mxGeometry>
        </mxCell>
        <mxCell id="NGkXbqjIqp7D_JJ2wPd0-54" value="&lt;font style=&quot;font-size: 14px&quot; color=&quot;#db2843&quot;&gt;byte5&lt;/font&gt;" style="html=1;shadow=0;dashed=0;shape=mxgraph.bootstrap.rrect;rSize=5;strokeColor=#DB2843;strokeWidth=1;fillColor=none;fontColor=#33A64C;whiteSpace=wrap;align=center;verticalAlign=middle;spacingLeft=0;fontStyle=0;fontSize=16;spacing=5;" parent="NGkXbqjIqp7D_JJ2wPd0-51" vertex="1">
          <mxGeometry width="80" height="30" as="geometry" />
        </mxCell>
        <mxCell id="NGkXbqjIqp7D_JJ2wPd0-55" value="&lt;font color=&quot;#db2843&quot;&gt;&lt;span style=&quot;font-size: 14px&quot;&gt;……&lt;/span&gt;&lt;/font&gt;" style="html=1;shadow=0;dashed=0;shape=mxgraph.bootstrap.rrect;rSize=5;strokeColor=#DB2843;strokeWidth=1;fillColor=none;fontColor=#33A64C;whiteSpace=wrap;align=center;verticalAlign=middle;spacingLeft=0;fontStyle=0;fontSize=16;spacing=5;" parent="NGkXbqjIqp7D_JJ2wPd0-51" vertex="1">
          <mxGeometry y="30" width="80" height="30" as="geometry" />
        </mxCell>
        <mxCell id="NGkXbqjIqp7D_JJ2wPd0-56" value="FunctionID:B2~B7" style="html=1;shadow=0;dashed=0;shape=mxgraph.bootstrap.rrect;rSize=5;strokeColor=none;strokeWidth=1;fillColor=#DB2843;fontColor=#ffffff;whiteSpace=wrap;align=left;verticalAlign=middle;fontStyle=0;fontSize=14;spacingLeft=10;" parent="NGkXbqjIqp7D_JJ2wPd0-1" vertex="1">
          <mxGeometry x="600" y="1060" width="200" height="30" as="geometry" />
        </mxCell>
        <mxCell id="NGkXbqjIqp7D_JJ2wPd0-57" value="" style="shape=triangle;direction=south;fillColor=#ffffff;strokeColor=none;perimeter=none;" parent="NGkXbqjIqp7D_JJ2wPd0-56" vertex="1">
          <mxGeometry x="1" y="0.5" width="10" height="5" relative="1" as="geometry">
            <mxPoint x="-17" y="-2.5" as="offset" />
          </mxGeometry>
        </mxCell>
        <mxCell id="NGkXbqjIqp7D_JJ2wPd0-58" value="" style="html=1;shadow=0;dashed=0;shape=mxgraph.bootstrap.rrect;rSize=5;strokeColor=#DFDFDF;html=1;whiteSpace=wrap;fillColor=#FFFFFF;fontColor=#000000;" parent="NGkXbqjIqp7D_JJ2wPd0-1" vertex="1">
          <mxGeometry x="600" y="760" width="280" height="210" as="geometry" />
        </mxCell>
        <mxCell id="NGkXbqjIqp7D_JJ2wPd0-59" value="year of&amp;nbsp;&lt;span style=&quot;color: rgb(14 , 85 , 96)&quot;&gt;UTC, Hex&lt;/span&gt;" style="strokeColor=inherit;fillColor=inherit;gradientColor=inherit;fontColor=inherit;html=1;shadow=0;dashed=0;shape=mxgraph.bootstrap.topButton;rSize=5;perimeter=none;whiteSpace=wrap;resizeWidth=1;align=left;spacing=10;" parent="NGkXbqjIqp7D_JJ2wPd0-58" vertex="1">
          <mxGeometry width="200" height="30" relative="1" as="geometry">
            <mxPoint x="80" as="offset" />
          </mxGeometry>
        </mxCell>
        <mxCell id="NGkXbqjIqp7D_JJ2wPd0-60" value="&lt;span style=&quot;color: rgb(0 , 0 , 0)&quot;&gt;month of&amp;nbsp;&lt;/span&gt;&lt;span style=&quot;color: rgb(14 , 85 , 96)&quot;&gt;UTC, Hex&lt;/span&gt;" style="html=1;fillColor=#B8DCFE;strokeColor=#A1C0DE;fontColor=#004583;shadow=0;dashed=0;perimeter=none;whiteSpace=wrap;resizeWidth=1;align=left;spacing=10;" parent="NGkXbqjIqp7D_JJ2wPd0-58" vertex="1">
          <mxGeometry width="200" height="30" relative="1" as="geometry">
            <mxPoint x="80" y="30" as="offset" />
          </mxGeometry>
        </mxCell>
        <mxCell id="NGkXbqjIqp7D_JJ2wPd0-61" value="&lt;span style=&quot;color: rgb(0 , 0 , 0)&quot;&gt;date of&amp;nbsp;&lt;/span&gt;&lt;span style=&quot;color: rgb(14 , 85 , 96)&quot;&gt;UTC, Hex&lt;/span&gt;" style="html=1;fillColor=#FFECBC;strokeColor=#DFCEA4;fontColor=#856110;shadow=0;dashed=0;perimeter=none;whiteSpace=wrap;resizeWidth=1;align=left;spacing=10;" parent="NGkXbqjIqp7D_JJ2wPd0-58" vertex="1">
          <mxGeometry width="200" height="30" relative="1" as="geometry">
            <mxPoint x="80" y="60" as="offset" />
          </mxGeometry>
        </mxCell>
        <mxCell id="NGkXbqjIqp7D_JJ2wPd0-62" value="&lt;span style=&quot;color: rgb(0 , 0 , 0)&quot;&gt;weekday of&amp;nbsp;&lt;/span&gt;UTC, Hex" style="html=1;fillColor=#BFE6EB;strokeColor=#A7C9CE;fontColor=#0E5560;shadow=0;dashed=0;perimeter=none;whiteSpace=wrap;resizeWidth=1;align=left;spacing=10;" parent="NGkXbqjIqp7D_JJ2wPd0-58" vertex="1">
          <mxGeometry width="200" height="30" relative="1" as="geometry">
            <mxPoint x="80" y="90" as="offset" />
          </mxGeometry>
        </mxCell>
        <mxCell id="NGkXbqjIqp7D_JJ2wPd0-63" value="&lt;span style=&quot;color: rgb(0 , 0 , 0)&quot;&gt;second of&amp;nbsp;&lt;/span&gt;&lt;span style=&quot;color: rgb(14 , 85 , 96)&quot;&gt;UTC, Hex&lt;/span&gt;" style="html=1;shadow=0;dashed=0;shape=mxgraph.bootstrap.bottomButton;fillColor=#C6C8CA;strokeColor=#ADAFB1;fontColor=#1B1E21;rSize=5;perimeter=none;whiteSpace=wrap;resizeWidth=1;resizeHeight=0;align=left;spacing=10;" parent="NGkXbqjIqp7D_JJ2wPd0-58" vertex="1">
          <mxGeometry y="1" width="200" height="30" relative="1" as="geometry">
            <mxPoint x="80" y="-30" as="offset" />
          </mxGeometry>
        </mxCell>
        <mxCell id="NGkXbqjIqp7D_JJ2wPd0-64" value="&lt;font style=&quot;font-size: 14px&quot; color=&quot;#db2843&quot;&gt;byte5&lt;/font&gt;" style="html=1;shadow=0;dashed=0;shape=mxgraph.bootstrap.rrect;rSize=5;strokeColor=#DB2843;strokeWidth=1;fillColor=none;fontColor=#33A64C;whiteSpace=wrap;align=center;verticalAlign=middle;spacingLeft=0;fontStyle=0;fontSize=16;spacing=5;" parent="NGkXbqjIqp7D_JJ2wPd0-58" vertex="1">
          <mxGeometry width="80" height="30" as="geometry" />
        </mxCell>
        <mxCell id="NGkXbqjIqp7D_JJ2wPd0-65" value="&lt;span style=&quot;color: rgb(219 , 40 , 67) ; font-size: 14px&quot;&gt;byte6&lt;/span&gt;" style="html=1;shadow=0;dashed=0;shape=mxgraph.bootstrap.rrect;rSize=5;strokeColor=#DB2843;strokeWidth=1;fillColor=none;fontColor=#33A64C;whiteSpace=wrap;align=center;verticalAlign=middle;spacingLeft=0;fontStyle=0;fontSize=16;spacing=5;" parent="NGkXbqjIqp7D_JJ2wPd0-58" vertex="1">
          <mxGeometry y="30" width="80" height="30" as="geometry" />
        </mxCell>
        <mxCell id="NGkXbqjIqp7D_JJ2wPd0-66" value="&lt;span style=&quot;color: rgb(219 , 40 , 67) ; font-size: 14px&quot;&gt;byte7&lt;/span&gt;" style="html=1;shadow=0;dashed=0;shape=mxgraph.bootstrap.rrect;rSize=5;strokeColor=#DB2843;strokeWidth=1;fillColor=none;fontColor=#33A64C;whiteSpace=wrap;align=center;verticalAlign=middle;spacingLeft=0;fontStyle=0;fontSize=16;spacing=5;" parent="NGkXbqjIqp7D_JJ2wPd0-58" vertex="1">
          <mxGeometry y="60" width="80" height="30" as="geometry" />
        </mxCell>
        <mxCell id="NGkXbqjIqp7D_JJ2wPd0-67" value="&lt;span style=&quot;color: rgb(219 , 40 , 67) ; font-size: 14px&quot;&gt;byte8&lt;/span&gt;" style="html=1;shadow=0;dashed=0;shape=mxgraph.bootstrap.rrect;rSize=5;strokeColor=#DB2843;strokeWidth=1;fillColor=none;fontColor=#33A64C;whiteSpace=wrap;align=center;verticalAlign=middle;spacingLeft=0;fontStyle=0;fontSize=16;spacing=5;" parent="NGkXbqjIqp7D_JJ2wPd0-58" vertex="1">
          <mxGeometry y="90" width="80" height="30" as="geometry" />
        </mxCell>
        <mxCell id="NGkXbqjIqp7D_JJ2wPd0-68" value="&lt;span style=&quot;font-size: 12px ; color: rgb(0 , 0 , 0)&quot;&gt;hour of&amp;nbsp;&lt;/span&gt;&lt;span style=&quot;color: rgb(14 , 85 , 96) ; font-size: 12px&quot;&gt;UTC, Hex&lt;/span&gt;" style="html=1;fillColor=#F4C5CB;strokeColor=#D5ACB2;fontColor=#711623;shadow=0;dashed=0;perimeter=none;whiteSpace=wrap;resizeWidth=1;align=left;spacing=10;fontSize=14;" parent="NGkXbqjIqp7D_JJ2wPd0-58" vertex="1">
          <mxGeometry width="200" height="30" relative="1" as="geometry">
            <mxPoint x="80" y="120" as="offset" />
          </mxGeometry>
        </mxCell>
        <mxCell id="NGkXbqjIqp7D_JJ2wPd0-69" value="&lt;span style=&quot;font-size: 12px ; color: rgb(0 , 0 , 0)&quot;&gt;minute of&amp;nbsp;&lt;/span&gt;&lt;span style=&quot;font-size: 12px ; color: rgb(14 , 85 , 96)&quot;&gt;UTC, Hex&lt;/span&gt;" style="html=1;fillColor=#e1d5e7;strokeColor=#9673a6;shadow=0;dashed=0;perimeter=none;whiteSpace=wrap;resizeWidth=1;align=left;spacing=10;fontSize=14;" parent="NGkXbqjIqp7D_JJ2wPd0-58" vertex="1">
          <mxGeometry width="200" height="30" relative="1" as="geometry">
            <mxPoint x="80" y="150" as="offset" />
          </mxGeometry>
        </mxCell>
        <mxCell id="NGkXbqjIqp7D_JJ2wPd0-70" value="&lt;span style=&quot;color: rgb(219 , 40 , 67) ; font-size: 14px&quot;&gt;byte9&lt;/span&gt;" style="html=1;shadow=0;dashed=0;shape=mxgraph.bootstrap.rrect;rSize=5;strokeColor=#DB2843;strokeWidth=1;fillColor=none;fontColor=#33A64C;whiteSpace=wrap;align=center;verticalAlign=middle;spacingLeft=0;fontStyle=0;fontSize=16;spacing=5;" parent="NGkXbqjIqp7D_JJ2wPd0-58" vertex="1">
          <mxGeometry y="120" width="80" height="30" as="geometry" />
        </mxCell>
        <mxCell id="NGkXbqjIqp7D_JJ2wPd0-71" value="&lt;span style=&quot;color: rgb(219 , 40 , 67) ; font-size: 14px&quot;&gt;byte10&lt;/span&gt;" style="html=1;shadow=0;dashed=0;shape=mxgraph.bootstrap.rrect;rSize=5;strokeColor=#DB2843;strokeWidth=1;fillColor=none;fontColor=#33A64C;whiteSpace=wrap;align=center;verticalAlign=middle;spacingLeft=0;fontStyle=0;fontSize=16;spacing=5;" parent="NGkXbqjIqp7D_JJ2wPd0-58" vertex="1">
          <mxGeometry y="150" width="80" height="30" as="geometry" />
        </mxCell>
        <mxCell id="NGkXbqjIqp7D_JJ2wPd0-72" value="&lt;span style=&quot;color: rgb(219 , 40 , 67) ; font-size: 14px&quot;&gt;byte11&lt;/span&gt;" style="html=1;shadow=0;dashed=0;shape=mxgraph.bootstrap.rrect;rSize=5;strokeColor=#DB2843;strokeWidth=1;fillColor=none;fontColor=#33A64C;whiteSpace=wrap;align=center;verticalAlign=middle;spacingLeft=0;fontStyle=0;fontSize=16;spacing=5;" parent="NGkXbqjIqp7D_JJ2wPd0-58" vertex="1">
          <mxGeometry y="180" width="80" height="30" as="geometry" />
        </mxCell>
        <mxCell id="NGkXbqjIqp7D_JJ2wPd0-73" value="FunctionID:B8,B9" style="html=1;shadow=0;dashed=0;shape=mxgraph.bootstrap.rrect;rSize=5;strokeColor=none;strokeWidth=1;fillColor=#DB2843;fontColor=#ffffff;whiteSpace=wrap;align=left;verticalAlign=middle;fontStyle=0;fontSize=14;spacingLeft=10;" parent="NGkXbqjIqp7D_JJ2wPd0-1" vertex="1">
          <mxGeometry x="600" y="730" width="160" height="30" as="geometry" />
        </mxCell>
        <mxCell id="NGkXbqjIqp7D_JJ2wPd0-74" value="" style="shape=triangle;direction=south;fillColor=#ffffff;strokeColor=none;perimeter=none;" parent="NGkXbqjIqp7D_JJ2wPd0-73" vertex="1">
          <mxGeometry x="1" y="0.5" width="10" height="5" relative="1" as="geometry">
            <mxPoint x="-17" y="-2.5" as="offset" />
          </mxGeometry>
        </mxCell>
        <mxCell id="HBOU6t7FIfkc8jFQqwnm-0" value="&lt;b&gt;---- Radio Frequency Send Protocol&amp;nbsp;&lt;/b&gt;" style="html=1;shadow=0;dashed=0;shape=mxgraph.bootstrap.rrect;rSize=5;strokeColor=none;strokeWidth=1;fillColor=#E0F0D6;fontColor=#59B958;whiteSpace=wrap;align=left;verticalAlign=middle;spacingLeft=10;" parent="NGkXbqjIqp7D_JJ2wPd0-1" vertex="1">
          <mxGeometry x="40" y="40" width="1400" height="30" as="geometry" />
        </mxCell>
        <mxCell id="CizM2NcXElocPCuIm9Xc-17" value="&lt;b&gt;&lt;font style=&quot;font-size: 18px&quot;&gt;Collector Hardware ID&amp;nbsp;&lt;/font&gt;&lt;/b&gt;&lt;br style=&quot;font-size: 14px&quot;&gt;&lt;br style=&quot;font-size: 14px&quot;&gt;Each collector hardware has unique identification." style="html=1;shadow=0;dashed=0;shape=mxgraph.bootstrap.rrect;rSize=5;strokeColor=#0071D5;html=1;whiteSpace=wrap;fillColor=#0085FC;fontColor=#ffffff;verticalAlign=bottom;align=left;spacing=20;spacingBottom=0;fontSize=14;" parent="NGkXbqjIqp7D_JJ2wPd0-1" vertex="1">
          <mxGeometry x="40" y="520" width="280" height="200" as="geometry" />
        </mxCell>
        <mxCell id="CizM2NcXElocPCuIm9Xc-18" value="&lt;b&gt;CollectorID&lt;/b&gt;" style="html=1;shadow=0;dashed=0;shape=mxgraph.bootstrap.topButton;rSize=5;perimeter=none;whiteSpace=wrap;fillColor=#0081F4;strokeColor=#0071D5;fontColor=#ffffff;resizeWidth=1;fontSize=18;align=left;spacing=20;" parent="CizM2NcXElocPCuIm9Xc-17" vertex="1">
          <mxGeometry width="280" height="50" relative="1" as="geometry" />
        </mxCell>
        <mxCell id="CizM2NcXElocPCuIm9Xc-19" value="&lt;span style=&quot;font-size: 16px; font-weight: 400;&quot;&gt;byte0&lt;/span&gt;" style="rounded=1;whiteSpace=wrap;html=1;arcSize=50;strokeColor=none;strokeWidth=1;fillColor=#343A40;fontColor=#ffffff;whiteSpace=wrap;align=center;verticalAlign=middle;spacingLeft=0;fontStyle=1;fontSize=14;spacing=10;" parent="CizM2NcXElocPCuIm9Xc-17" vertex="1">
          <mxGeometry y="49.99666666666667" width="67.2" height="33.333333333333336" as="geometry" />
        </mxCell>
        <mxCell id="CizM2NcXElocPCuIm9Xc-20" value="&lt;span style=&quot;font-size: 16px; font-weight: 400;&quot;&gt;byte1&lt;br&gt;&lt;/span&gt;" style="rounded=1;whiteSpace=wrap;html=1;arcSize=50;strokeColor=none;strokeWidth=1;fillColor=#343A40;fontColor=#ffffff;whiteSpace=wrap;align=center;verticalAlign=middle;spacingLeft=0;fontStyle=1;fontSize=14;spacing=10;" parent="CizM2NcXElocPCuIm9Xc-17" vertex="1">
          <mxGeometry x="67.2" y="49.99666666666667" width="67.2" height="33.333333333333336" as="geometry" />
        </mxCell>
        <mxCell id="CizM2NcXElocPCuIm9Xc-21" value="&lt;span style=&quot;font-size: 16px; font-weight: 400;&quot;&gt;byte2&lt;br&gt;&lt;/span&gt;" style="rounded=1;whiteSpace=wrap;html=1;arcSize=50;strokeColor=none;strokeWidth=1;fillColor=#343A40;fontColor=#ffffff;whiteSpace=wrap;align=center;verticalAlign=middle;spacingLeft=0;fontStyle=1;fontSize=14;spacing=10;" parent="CizM2NcXElocPCuIm9Xc-17" vertex="1">
          <mxGeometry x="134.4" y="49.99666666666667" width="67.2" height="33.333333333333336" as="geometry" />
        </mxCell>
        <mxCell id="CizM2NcXElocPCuIm9Xc-22" value="&lt;span style=&quot;font-size: 16px; font-weight: 400;&quot;&gt;byte3&lt;br&gt;&lt;/span&gt;" style="rounded=1;whiteSpace=wrap;html=1;arcSize=50;strokeColor=none;strokeWidth=1;fillColor=#343A40;fontColor=#ffffff;whiteSpace=wrap;align=center;verticalAlign=middle;spacingLeft=0;fontStyle=1;fontSize=14;spacing=10;" parent="CizM2NcXElocPCuIm9Xc-17" vertex="1">
          <mxGeometry x="201.60000000000002" y="49.99666666666667" width="67.2" height="33.333333333333336" as="geometry" />
        </mxCell>
        <mxCell id="CizM2NcXElocPCuIm9Xc-23" value="&lt;b&gt;&lt;font style=&quot;font-size: 18px&quot;&gt;Function ID For Control&amp;nbsp;&lt;/font&gt;&lt;/b&gt;&lt;br style=&quot;font-size: 14px&quot;&gt;&lt;br style=&quot;font-size: 14px&quot;&gt;Each protocol function has specific identification. The specific agreement is as follows." style="html=1;shadow=0;dashed=0;shape=mxgraph.bootstrap.rrect;rSize=5;strokeColor=#BA2239;html=1;whiteSpace=wrap;fillColor=#DB2843;fontColor=#ffffff;verticalAlign=bottom;align=left;spacing=20;spacingBottom=0;fontSize=14;" parent="NGkXbqjIqp7D_JJ2wPd0-1" vertex="1">
          <mxGeometry x="320" y="520" width="280" height="200" as="geometry" />
        </mxCell>
        <mxCell id="CizM2NcXElocPCuIm9Xc-24" value="FunctionID" style="html=1;shadow=0;dashed=0;shape=mxgraph.bootstrap.topButton;rSize=5;perimeter=none;whiteSpace=wrap;fillColor=#D42741;strokeColor=#BA2239;fontColor=#ffffff;resizeWidth=1;fontSize=18;align=left;spacing=20;" parent="CizM2NcXElocPCuIm9Xc-23" vertex="1">
          <mxGeometry width="280" height="50" relative="1" as="geometry" />
        </mxCell>
        <mxCell id="CizM2NcXElocPCuIm9Xc-25" value="&lt;span style=&quot;font-size: 16px ; font-weight: 400&quot;&gt;byte4&lt;/span&gt;" style="rounded=1;whiteSpace=wrap;html=1;arcSize=50;strokeColor=none;strokeWidth=1;fillColor=#343A40;fontColor=#ffffff;whiteSpace=wrap;align=center;verticalAlign=middle;spacingLeft=0;fontStyle=1;fontSize=14;spacing=10;" parent="CizM2NcXElocPCuIm9Xc-23" vertex="1">
          <mxGeometry y="49.99666666666667" width="67.2" height="33.333333333333336" as="geometry" />
        </mxCell>
        <mxCell id="f40w5mPv7cjD6xtScOiX-0" value="" style="curved=1;endArrow=classic;html=1;rounded=0;fontSize=14;fontColor=#DB2843;entryX=-0.014;entryY=0.548;entryDx=0;entryDy=0;entryPerimeter=0;" parent="CizM2NcXElocPCuIm9Xc-23" edge="1">
          <mxGeometry width="50" height="50" relative="1" as="geometry">
            <mxPoint x="140" y="30" as="sourcePoint" />
            <mxPoint x="277.75999999999976" y="231.43999999999983" as="targetPoint" />
            <Array as="points">
              <mxPoint x="300" y="115" />
              <mxPoint x="230" y="195" />
            </Array>
          </mxGeometry>
        </mxCell>
        <mxCell id="CizM2NcXElocPCuIm9Xc-37" value="&lt;b&gt;&lt;font style=&quot;font-size: 18px&quot;&gt;Send Data Value&lt;/font&gt;&lt;/b&gt;&lt;br style=&quot;font-size: 14px&quot;&gt;&lt;br style=&quot;font-size: 14px&quot;&gt;Send data for the corresponding function. The specific agreement is as follows." style="html=1;shadow=0;dashed=0;shape=mxgraph.bootstrap.rrect;rSize=5;strokeColor=#33A64C;html=1;whiteSpace=wrap;fillColor=#ffffff;fontColor=#33A64C;verticalAlign=bottom;align=left;spacing=20;spacingBottom=0;fontSize=14;" parent="NGkXbqjIqp7D_JJ2wPd0-1" vertex="1">
          <mxGeometry x="600" y="520" width="280" height="200" as="geometry" />
        </mxCell>
        <mxCell id="CizM2NcXElocPCuIm9Xc-38" value="Send Data" style="html=1;shadow=0;dashed=0;shape=mxgraph.bootstrap.topButton;rSize=5;perimeter=none;whiteSpace=wrap;fillColor=#F7F7F7;strokeColor=#33A64C;fontColor=#6C767D;resizeWidth=1;fontSize=18;align=left;spacing=20;" parent="CizM2NcXElocPCuIm9Xc-37" vertex="1">
          <mxGeometry width="280" height="50" relative="1" as="geometry" />
        </mxCell>
        <mxCell id="CizM2NcXElocPCuIm9Xc-39" value="&lt;span style=&quot;font-size: 16px ; font-weight: 400&quot;&gt;byte5&lt;/span&gt;" style="rounded=1;whiteSpace=wrap;html=1;arcSize=50;strokeColor=none;strokeWidth=1;fillColor=#343A40;fontColor=#ffffff;whiteSpace=wrap;align=center;verticalAlign=middle;spacingLeft=0;fontStyle=1;fontSize=14;spacing=10;" parent="CizM2NcXElocPCuIm9Xc-37" vertex="1">
          <mxGeometry y="49.99666666666667" width="67.2" height="33.333333333333336" as="geometry" />
        </mxCell>
        <mxCell id="CizM2NcXElocPCuIm9Xc-40" value="&lt;span style=&quot;font-size: 16px ; font-weight: 400&quot;&gt;……&lt;br&gt;&lt;/span&gt;" style="rounded=1;whiteSpace=wrap;html=1;arcSize=50;strokeColor=none;strokeWidth=1;fillColor=#343A40;fontColor=#ffffff;whiteSpace=wrap;align=center;verticalAlign=middle;spacingLeft=0;fontStyle=1;fontSize=14;spacing=10;" parent="CizM2NcXElocPCuIm9Xc-37" vertex="1">
          <mxGeometry x="67.20000000000005" y="49.99666666666667" width="67.2" height="33.333333333333336" as="geometry" />
        </mxCell>
        <mxCell id="CizM2NcXElocPCuIm9Xc-41" value="&lt;span style=&quot;font-size: 16px ; font-weight: 400&quot;&gt;……&lt;br&gt;&lt;/span&gt;" style="rounded=1;whiteSpace=wrap;html=1;arcSize=50;strokeColor=none;strokeWidth=1;fillColor=#343A40;fontColor=#ffffff;whiteSpace=wrap;align=center;verticalAlign=middle;spacingLeft=0;fontStyle=1;fontSize=14;spacing=10;" parent="CizM2NcXElocPCuIm9Xc-37" vertex="1">
          <mxGeometry x="134.39999999999998" y="49.99666666666667" width="67.2" height="33.333333333333336" as="geometry" />
        </mxCell>
        <mxCell id="CizM2NcXElocPCuIm9Xc-42" value="&lt;span style=&quot;font-size: 16px ; font-weight: 400&quot;&gt;……&lt;br&gt;&lt;/span&gt;" style="rounded=1;whiteSpace=wrap;html=1;arcSize=50;strokeColor=none;strokeWidth=1;fillColor=#343A40;fontColor=#ffffff;whiteSpace=wrap;align=center;verticalAlign=middle;spacingLeft=0;fontStyle=1;fontSize=14;spacing=10;" parent="CizM2NcXElocPCuIm9Xc-37" vertex="1">
          <mxGeometry x="201.5999999999999" y="49.99666666666667" width="67.2" height="33.333333333333336" as="geometry" />
        </mxCell>
        <mxCell id="s3ItBBjFrlUVfe0kfyKM-0" value="&lt;b&gt;&lt;font style=&quot;font-size: 18px&quot;&gt;Globally Unique Identifier&lt;/font&gt;&lt;/b&gt;&lt;br style=&quot;font-size: 14px&quot;&gt;&lt;br style=&quot;font-size: 14px&quot;&gt;random number generator generates a pseudo-random 32 bytes." style="html=1;shadow=0;dashed=0;shape=mxgraph.bootstrap.rrect;rSize=5;strokeColor=#2B8D40;html=1;whiteSpace=wrap;fillColor=#33A64C;fontColor=#ffffff;verticalAlign=bottom;align=left;spacing=20;spacingBottom=0;fontSize=14;" parent="NGkXbqjIqp7D_JJ2wPd0-1" vertex="1">
          <mxGeometry x="880" y="80" width="280" height="200" as="geometry" />
        </mxCell>
        <mxCell id="s3ItBBjFrlUVfe0kfyKM-1" value="GUID(RNG)" style="html=1;shadow=0;dashed=0;shape=mxgraph.bootstrap.topButton;rSize=5;perimeter=none;whiteSpace=wrap;fillColor=#31A14A;strokeColor=#2B8D40;fontColor=#ffffff;resizeWidth=1;fontSize=18;align=left;spacing=20;" parent="s3ItBBjFrlUVfe0kfyKM-0" vertex="1">
          <mxGeometry width="280" height="50" relative="1" as="geometry" />
        </mxCell>
        <mxCell id="s3ItBBjFrlUVfe0kfyKM-2" value="&lt;span style=&quot;font-size: 16px ; font-weight: 400&quot;&gt;byte11&lt;/span&gt;" style="rounded=1;whiteSpace=wrap;html=1;arcSize=50;strokeColor=none;strokeWidth=1;fillColor=#343A40;fontColor=#ffffff;whiteSpace=wrap;align=center;verticalAlign=middle;spacingLeft=0;fontStyle=1;fontSize=14;spacing=10;" parent="NGkXbqjIqp7D_JJ2wPd0-1" vertex="1">
          <mxGeometry x="880" y="129.99666666666667" width="67.2" height="33.333333333333336" as="geometry" />
        </mxCell>
        <mxCell id="s3ItBBjFrlUVfe0kfyKM-3" value="&lt;span style=&quot;font-size: 16px ; font-weight: 400&quot;&gt;……&lt;/span&gt;&lt;span style=&quot;font-size: 16px ; font-weight: 400&quot;&gt;&lt;br&gt;&lt;/span&gt;" style="rounded=1;whiteSpace=wrap;html=1;arcSize=50;strokeColor=none;strokeWidth=1;fillColor=#343A40;fontColor=#ffffff;whiteSpace=wrap;align=center;verticalAlign=middle;spacingLeft=0;fontStyle=1;fontSize=14;spacing=10;" parent="NGkXbqjIqp7D_JJ2wPd0-1" vertex="1">
          <mxGeometry x="947.2" y="129.99666666666667" width="67.2" height="33.333333333333336" as="geometry" />
        </mxCell>
        <mxCell id="s3ItBBjFrlUVfe0kfyKM-4" value="&lt;span style=&quot;font-size: 16px ; font-weight: 400&quot;&gt;……&lt;/span&gt;&lt;span style=&quot;font-size: 16px ; font-weight: 400&quot;&gt;&lt;br&gt;&lt;/span&gt;" style="rounded=1;whiteSpace=wrap;html=1;arcSize=50;strokeColor=none;strokeWidth=1;fillColor=#343A40;fontColor=#ffffff;whiteSpace=wrap;align=center;verticalAlign=middle;spacingLeft=0;fontStyle=1;fontSize=14;spacing=10;" parent="NGkXbqjIqp7D_JJ2wPd0-1" vertex="1">
          <mxGeometry x="1014.4" y="129.99666666666667" width="67.2" height="33.333333333333336" as="geometry" />
        </mxCell>
        <mxCell id="s3ItBBjFrlUVfe0kfyKM-5" value="&lt;span style=&quot;font-size: 16px ; font-weight: 400&quot;&gt;byte42&lt;br&gt;&lt;/span&gt;" style="rounded=1;whiteSpace=wrap;html=1;arcSize=50;strokeColor=none;strokeWidth=1;fillColor=#343A40;fontColor=#ffffff;whiteSpace=wrap;align=center;verticalAlign=middle;spacingLeft=0;fontStyle=1;fontSize=14;spacing=10;" parent="NGkXbqjIqp7D_JJ2wPd0-1" vertex="1">
          <mxGeometry x="1081.6" y="129.99666666666667" width="67.2" height="33.333333333333336" as="geometry" />
        </mxCell>
        <mxCell id="Di-RhwB3kiQSSpNhOgFe-0" value="" style="html=1;shadow=0;dashed=0;shape=mxgraph.bootstrap.rrect;rSize=5;strokeColor=#DFDFDF;html=1;whiteSpace=wrap;fillColor=#FFFFFF;fontColor=#000000;" parent="NGkXbqjIqp7D_JJ2wPd0-1" vertex="1">
          <mxGeometry x="320" y="390" width="280" height="30" as="geometry" />
        </mxCell>
        <mxCell id="Di-RhwB3kiQSSpNhOgFe-2" value="&lt;font style=&quot;font-size: 14px&quot;&gt;0xB1&lt;/font&gt;" style="html=1;shadow=0;dashed=0;shape=mxgraph.bootstrap.rrect;rSize=5;strokeColor=#33A64C;strokeWidth=1;fillColor=none;fontColor=#33A64C;whiteSpace=wrap;align=center;verticalAlign=middle;spacingLeft=0;fontStyle=0;fontSize=16;spacing=5;" parent="Di-RhwB3kiQSSpNhOgFe-0" vertex="1">
          <mxGeometry width="80" height="30" as="geometry" />
        </mxCell>
        <mxCell id="Di-RhwB3kiQSSpNhOgFe-3" value="&lt;span style=&quot;color: rgb(0, 0, 0);&quot;&gt;Reserved&lt;/span&gt;" style="html=1;shadow=0;dashed=0;shape=mxgraph.bootstrap.bottomButton;fillColor=#C6C8CA;strokeColor=#ADAFB1;fontColor=#1B1E21;rSize=5;perimeter=none;whiteSpace=wrap;resizeWidth=1;resizeHeight=0;align=left;spacing=10;" parent="Di-RhwB3kiQSSpNhOgFe-0" vertex="1">
          <mxGeometry x="80" width="200" height="30" as="geometry" />
        </mxCell>
        <mxCell id="LOjHBo9GFIJY8TO9Bgxs-2" value="FunctionID:B2" style="html=1;shadow=0;dashed=0;shape=mxgraph.bootstrap.rrect;rSize=5;strokeColor=none;strokeWidth=1;fillColor=#DB2843;fontColor=#ffffff;whiteSpace=wrap;align=left;verticalAlign=middle;fontStyle=0;fontSize=14;spacingLeft=10;" parent="NGkXbqjIqp7D_JJ2wPd0-1" vertex="1">
          <mxGeometry x="600" y="970" width="200" height="30" as="geometry" />
        </mxCell>
        <mxCell id="LOjHBo9GFIJY8TO9Bgxs-3" value="" style="shape=triangle;direction=south;fillColor=#ffffff;strokeColor=none;perimeter=none;" parent="LOjHBo9GFIJY8TO9Bgxs-2" vertex="1">
          <mxGeometry x="1" y="0.5" width="10" height="5" relative="1" as="geometry">
            <mxPoint x="-17" y="-2.5" as="offset" />
          </mxGeometry>
        </mxCell>
        <mxCell id="LOjHBo9GFIJY8TO9Bgxs-19" value="" style="html=1;shadow=0;dashed=0;shape=mxgraph.bootstrap.rrect;rSize=5;strokeColor=#DFDFDF;html=1;whiteSpace=wrap;fillColor=#FFFFFF;fontColor=#000000;" parent="NGkXbqjIqp7D_JJ2wPd0-1" vertex="1">
          <mxGeometry x="600" y="1000" width="280" height="60" as="geometry" />
        </mxCell>
        <mxCell id="LOjHBo9GFIJY8TO9Bgxs-20" value="&lt;span style=&quot;color: rgb(27 , 30 , 33)&quot;&gt;ADC value of Collector&#39;s battery&lt;/span&gt;" style="strokeColor=inherit;fillColor=inherit;gradientColor=inherit;fontColor=inherit;html=1;shadow=0;dashed=0;shape=mxgraph.bootstrap.topButton;rSize=5;perimeter=none;whiteSpace=wrap;resizeWidth=1;align=left;spacing=10;" parent="LOjHBo9GFIJY8TO9Bgxs-19" vertex="1">
          <mxGeometry width="200" height="30" relative="1" as="geometry">
            <mxPoint x="80" as="offset" />
          </mxGeometry>
        </mxCell>
        <mxCell id="LOjHBo9GFIJY8TO9Bgxs-21" value="ADC value of Collector&#39;s power" style="html=1;shadow=0;dashed=0;shape=mxgraph.bootstrap.bottomButton;fillColor=#C6C8CA;strokeColor=#ADAFB1;fontColor=#1B1E21;rSize=5;perimeter=none;whiteSpace=wrap;resizeWidth=1;resizeHeight=0;align=left;spacing=10;" parent="LOjHBo9GFIJY8TO9Bgxs-19" vertex="1">
          <mxGeometry y="1" width="200" height="30" relative="1" as="geometry">
            <mxPoint x="80" y="-30" as="offset" />
          </mxGeometry>
        </mxCell>
        <mxCell id="LOjHBo9GFIJY8TO9Bgxs-22" value="&lt;span style=&quot;color: rgb(219 , 40 , 67) ; font-size: 14px&quot;&gt;byte5~6&lt;/span&gt;" style="html=1;shadow=0;dashed=0;shape=mxgraph.bootstrap.rrect;rSize=5;strokeColor=#DB2843;strokeWidth=1;fillColor=none;fontColor=#33A64C;whiteSpace=wrap;align=center;verticalAlign=middle;spacingLeft=0;fontStyle=0;fontSize=16;spacing=5;" parent="LOjHBo9GFIJY8TO9Bgxs-19" vertex="1">
          <mxGeometry width="80" height="30" as="geometry" />
        </mxCell>
        <mxCell id="LOjHBo9GFIJY8TO9Bgxs-23" value="&lt;span style=&quot;color: rgb(219 , 40 , 67) ; font-size: 14px&quot;&gt;byte7~8&lt;/span&gt;" style="html=1;shadow=0;dashed=0;shape=mxgraph.bootstrap.rrect;rSize=5;strokeColor=#DB2843;strokeWidth=1;fillColor=none;fontColor=#33A64C;whiteSpace=wrap;align=center;verticalAlign=middle;spacingLeft=0;fontStyle=0;fontSize=16;spacing=5;" parent="LOjHBo9GFIJY8TO9Bgxs-19" vertex="1">
          <mxGeometry y="30" width="80" height="30" as="geometry" />
        </mxCell>
      </root>
    </mxGraphModel>
  </diagram>
  <diagram id="ZSN5yCDWJbv7fxbw4STA" name="Collar Hardware Send Protocol">
    <mxGraphModel dx="691" dy="399" grid="1" gridSize="10" guides="1" tooltips="1" connect="1" arrows="1" fold="1" page="1" pageScale="1" pageWidth="827" pageHeight="1169" math="0" shadow="0">
      <root>
        <mxCell id="MaNi_Wpx-QzMcCc9FKpo-0" />
        <mxCell id="MaNi_Wpx-QzMcCc9FKpo-1" parent="MaNi_Wpx-QzMcCc9FKpo-0" />
        <mxCell id="zu45EtvIXKrVmZpNMsql-0" value="&lt;b&gt;&lt;font style=&quot;font-size: 18px&quot;&gt;Globally Unique Identifier&lt;/font&gt;&lt;/b&gt;&lt;br style=&quot;font-size: 14px&quot;&gt;&lt;br style=&quot;font-size: 14px&quot;&gt;random number generator generates a pseudo-random 32 bytes." style="html=1;shadow=0;dashed=0;shape=mxgraph.bootstrap.rrect;rSize=5;strokeColor=#2B8D40;html=1;whiteSpace=wrap;fillColor=#33A64C;fontColor=#ffffff;verticalAlign=bottom;align=left;spacing=20;spacingBottom=0;fontSize=14;" parent="MaNi_Wpx-QzMcCc9FKpo-1" vertex="1">
          <mxGeometry x="320" y="80" width="280" height="200" as="geometry" />
        </mxCell>
        <mxCell id="zu45EtvIXKrVmZpNMsql-1" value="GUID(RNG)" style="html=1;shadow=0;dashed=0;shape=mxgraph.bootstrap.topButton;rSize=5;perimeter=none;whiteSpace=wrap;fillColor=#31A14A;strokeColor=#2B8D40;fontColor=#ffffff;resizeWidth=1;fontSize=18;align=left;spacing=20;" parent="zu45EtvIXKrVmZpNMsql-0" vertex="1">
          <mxGeometry width="280" height="50" relative="1" as="geometry" />
        </mxCell>
        <mxCell id="15Ea3GuxX62wS33pfad2-20" value="&lt;b&gt;&lt;font style=&quot;font-size: 18px&quot;&gt;Radio Frequency ID&lt;/font&gt;&lt;/b&gt;&lt;br style=&quot;font-size: 14px&quot;&gt;&lt;br style=&quot;font-size: 14px&quot;&gt;Each collar hardware has unique identification." style="html=1;shadow=0;dashed=0;shape=mxgraph.bootstrap.rrect;rSize=5;strokeColor=#5B646A;html=1;whiteSpace=wrap;fillColor=#6C767D;fontColor=#ffffff;verticalAlign=bottom;align=left;spacing=20;spacingBottom=0;fontSize=14;" parent="MaNi_Wpx-QzMcCc9FKpo-1" vertex="1">
          <mxGeometry x="40" y="80" width="280" height="200" as="geometry" />
        </mxCell>
        <mxCell id="15Ea3GuxX62wS33pfad2-21" value="RFID" style="html=1;shadow=0;dashed=0;shape=mxgraph.bootstrap.topButton;rSize=5;perimeter=none;whiteSpace=wrap;fillColor=#697279;strokeColor=#5B646A;fontColor=#ffffff;resizeWidth=1;fontSize=18;align=left;spacing=20;" parent="15Ea3GuxX62wS33pfad2-20" vertex="1">
          <mxGeometry width="280" height="50" relative="1" as="geometry" />
        </mxCell>
        <mxCell id="15Ea3GuxX62wS33pfad2-22" value="&lt;span style=&quot;font-size: 16px ; font-weight: 400&quot;&gt;byte0&lt;/span&gt;" style="rounded=1;whiteSpace=wrap;html=1;arcSize=50;strokeColor=none;strokeWidth=1;fillColor=#343A40;fontColor=#ffffff;whiteSpace=wrap;align=center;verticalAlign=middle;spacingLeft=0;fontStyle=1;fontSize=14;spacing=10;" parent="15Ea3GuxX62wS33pfad2-20" vertex="1">
          <mxGeometry y="49.99666666666667" width="67.2" height="33.333333333333336" as="geometry" />
        </mxCell>
        <mxCell id="15Ea3GuxX62wS33pfad2-23" value="&lt;span style=&quot;font-size: 16px ; font-weight: 400&quot;&gt;1…2&lt;br&gt;&lt;/span&gt;" style="rounded=1;whiteSpace=wrap;html=1;arcSize=50;strokeColor=none;strokeWidth=1;fillColor=#343A40;fontColor=#ffffff;whiteSpace=wrap;align=center;verticalAlign=middle;spacingLeft=0;fontStyle=1;fontSize=14;spacing=10;" parent="15Ea3GuxX62wS33pfad2-20" vertex="1">
          <mxGeometry x="67.20000000000005" y="49.99666666666667" width="67.2" height="33.333333333333336" as="geometry" />
        </mxCell>
        <mxCell id="15Ea3GuxX62wS33pfad2-24" value="&lt;span style=&quot;font-size: 16px ; font-weight: 400&quot;&gt;3…4&lt;br&gt;&lt;/span&gt;" style="rounded=1;whiteSpace=wrap;html=1;arcSize=50;strokeColor=none;strokeWidth=1;fillColor=#343A40;fontColor=#ffffff;whiteSpace=wrap;align=center;verticalAlign=middle;spacingLeft=0;fontStyle=1;fontSize=14;spacing=10;" parent="15Ea3GuxX62wS33pfad2-20" vertex="1">
          <mxGeometry x="134.39999999999998" y="49.99666666666667" width="67.2" height="33.333333333333336" as="geometry" />
        </mxCell>
        <mxCell id="15Ea3GuxX62wS33pfad2-25" value="&lt;span style=&quot;font-size: 16px ; font-weight: 400&quot;&gt;byte5&lt;br&gt;&lt;/span&gt;" style="rounded=1;whiteSpace=wrap;html=1;arcSize=50;strokeColor=none;strokeWidth=1;fillColor=#343A40;fontColor=#ffffff;whiteSpace=wrap;align=center;verticalAlign=middle;spacingLeft=0;fontStyle=1;fontSize=14;spacing=10;" parent="15Ea3GuxX62wS33pfad2-20" vertex="1">
          <mxGeometry x="201.60000000000002" y="49.99666666666667" width="67.2" height="33.333333333333336" as="geometry" />
        </mxCell>
        <mxCell id="15Ea3GuxX62wS33pfad2-26" value="&lt;b&gt;&lt;font style=&quot;font-size: 18px&quot;&gt;Send Data Value&lt;/font&gt;&lt;/b&gt;&lt;br style=&quot;font-size: 14px&quot;&gt;&lt;br style=&quot;font-size: 14px&quot;&gt;Send collar data, include activity data and feed volume data, battery power data, signal strength, &lt;font color=&quot;#ff33ff&quot;&gt;free&amp;nbsp;fall detect&lt;/font&gt;. The specific agreement is as follows." style="html=1;shadow=0;dashed=0;shape=mxgraph.bootstrap.rrect;rSize=5;strokeColor=#33A64C;html=1;whiteSpace=wrap;fillColor=#ffffff;fontColor=#33A64C;verticalAlign=bottom;align=left;spacing=20;spacingBottom=0;fontSize=14;" parent="MaNi_Wpx-QzMcCc9FKpo-1" vertex="1">
          <mxGeometry x="600" y="80" width="280" height="240" as="geometry" />
        </mxCell>
        <mxCell id="15Ea3GuxX62wS33pfad2-27" value="Send Data" style="html=1;shadow=0;dashed=0;shape=mxgraph.bootstrap.topButton;rSize=5;perimeter=none;whiteSpace=wrap;fillColor=#F7F7F7;strokeColor=#33A64C;fontColor=#6C767D;resizeWidth=1;fontSize=18;align=left;spacing=20;" parent="15Ea3GuxX62wS33pfad2-26" vertex="1">
          <mxGeometry width="280" height="50" relative="1" as="geometry" />
        </mxCell>
        <mxCell id="KROOCygwF88C9Mm7KxyO-0" value="&lt;span style=&quot;font-size: 16px ; font-weight: 400&quot;&gt;byte38&lt;/span&gt;" style="rounded=1;whiteSpace=wrap;html=1;arcSize=50;strokeColor=none;strokeWidth=1;fillColor=#343A40;fontColor=#ffffff;whiteSpace=wrap;align=center;verticalAlign=middle;spacingLeft=0;fontStyle=1;fontSize=14;spacing=10;" parent="15Ea3GuxX62wS33pfad2-26" vertex="1">
          <mxGeometry y="49.99666666666667" width="67.2" height="33.333333333333336" as="geometry" />
        </mxCell>
        <mxCell id="KROOCygwF88C9Mm7KxyO-1" value="&lt;span style=&quot;font-size: 16px ; font-weight: 400&quot;&gt;……&lt;br&gt;&lt;/span&gt;" style="rounded=1;whiteSpace=wrap;html=1;arcSize=50;strokeColor=none;strokeWidth=1;fillColor=#343A40;fontColor=#ffffff;whiteSpace=wrap;align=center;verticalAlign=middle;spacingLeft=0;fontStyle=1;fontSize=14;spacing=10;" parent="15Ea3GuxX62wS33pfad2-26" vertex="1">
          <mxGeometry x="67.20000000000005" y="49.99666666666667" width="67.2" height="33.333333333333336" as="geometry" />
        </mxCell>
        <mxCell id="KROOCygwF88C9Mm7KxyO-2" value="&lt;span style=&quot;font-size: 16px ; font-weight: 400&quot;&gt;……&lt;br&gt;&lt;/span&gt;" style="rounded=1;whiteSpace=wrap;html=1;arcSize=50;strokeColor=none;strokeWidth=1;fillColor=#343A40;fontColor=#ffffff;whiteSpace=wrap;align=center;verticalAlign=middle;spacingLeft=0;fontStyle=1;fontSize=14;spacing=10;" parent="15Ea3GuxX62wS33pfad2-26" vertex="1">
          <mxGeometry x="134.39999999999998" y="49.99666666666667" width="67.2" height="33.333333333333336" as="geometry" />
        </mxCell>
        <mxCell id="KROOCygwF88C9Mm7KxyO-3" value="&lt;span style=&quot;font-size: 16px ; font-weight: 400&quot;&gt;……&lt;br&gt;&lt;/span&gt;" style="rounded=1;whiteSpace=wrap;html=1;arcSize=50;strokeColor=none;strokeWidth=1;fillColor=#343A40;fontColor=#ffffff;whiteSpace=wrap;align=center;verticalAlign=middle;spacingLeft=0;fontStyle=1;fontSize=14;spacing=10;" parent="15Ea3GuxX62wS33pfad2-26" vertex="1">
          <mxGeometry x="201.60000000000002" y="49.99666666666667" width="67.2" height="33.333333333333336" as="geometry" />
        </mxCell>
        <mxCell id="zu45EtvIXKrVmZpNMsql-2" value="&lt;span style=&quot;font-size: 16px ; font-weight: 400&quot;&gt;byte6&lt;/span&gt;" style="rounded=1;whiteSpace=wrap;html=1;arcSize=50;strokeColor=none;strokeWidth=1;fillColor=#343A40;fontColor=#ffffff;whiteSpace=wrap;align=center;verticalAlign=middle;spacingLeft=0;fontStyle=1;fontSize=14;spacing=10;" parent="15Ea3GuxX62wS33pfad2-26" vertex="1">
          <mxGeometry x="-280" y="49.99666666666667" width="67.2" height="33.333333333333336" as="geometry" />
        </mxCell>
        <mxCell id="zu45EtvIXKrVmZpNMsql-3" value="&lt;span style=&quot;font-size: 16px ; font-weight: 400&quot;&gt;……&lt;/span&gt;&lt;span style=&quot;font-size: 16px ; font-weight: 400&quot;&gt;&lt;br&gt;&lt;/span&gt;" style="rounded=1;whiteSpace=wrap;html=1;arcSize=50;strokeColor=none;strokeWidth=1;fillColor=#343A40;fontColor=#ffffff;whiteSpace=wrap;align=center;verticalAlign=middle;spacingLeft=0;fontStyle=1;fontSize=14;spacing=10;" parent="15Ea3GuxX62wS33pfad2-26" vertex="1">
          <mxGeometry x="-212.79999999999995" y="49.99666666666667" width="67.2" height="33.333333333333336" as="geometry" />
        </mxCell>
        <mxCell id="zu45EtvIXKrVmZpNMsql-4" value="&lt;span style=&quot;font-size: 16px ; font-weight: 400&quot;&gt;……&lt;/span&gt;&lt;span style=&quot;font-size: 16px ; font-weight: 400&quot;&gt;&lt;br&gt;&lt;/span&gt;" style="rounded=1;whiteSpace=wrap;html=1;arcSize=50;strokeColor=none;strokeWidth=1;fillColor=#343A40;fontColor=#ffffff;whiteSpace=wrap;align=center;verticalAlign=middle;spacingLeft=0;fontStyle=1;fontSize=14;spacing=10;" parent="15Ea3GuxX62wS33pfad2-26" vertex="1">
          <mxGeometry x="-145.60000000000002" y="49.99666666666667" width="67.2" height="33.333333333333336" as="geometry" />
        </mxCell>
        <mxCell id="zu45EtvIXKrVmZpNMsql-5" value="&lt;span style=&quot;font-size: 16px ; font-weight: 400&quot;&gt;byte37&lt;br&gt;&lt;/span&gt;" style="rounded=1;whiteSpace=wrap;html=1;arcSize=50;strokeColor=none;strokeWidth=1;fillColor=#343A40;fontColor=#ffffff;whiteSpace=wrap;align=center;verticalAlign=middle;spacingLeft=0;fontStyle=1;fontSize=14;spacing=10;" parent="15Ea3GuxX62wS33pfad2-26" vertex="1">
          <mxGeometry x="-78.39999999999998" y="49.99666666666667" width="67.2" height="33.333333333333336" as="geometry" />
        </mxCell>
        <mxCell id="15Ea3GuxX62wS33pfad2-32" value="&lt;b&gt;Collar Hardware Send Protocol&lt;/b&gt;" style="html=1;shadow=0;dashed=0;shape=mxgraph.bootstrap.rrect;rSize=5;strokeColor=#B8DCFE;strokeWidth=1;fillColor=#CCE7FE;fontColor=#004583;whiteSpace=wrap;align=left;verticalAlign=middle;spacingLeft=10;fontSize=14;" parent="MaNi_Wpx-QzMcCc9FKpo-1" vertex="1">
          <mxGeometry x="40" width="840" height="30" as="geometry" />
        </mxCell>
        <mxCell id="2Ojt6b0p3RXzI-b0mRPm-0" value="&lt;b&gt;---- Radio Frequency Send Protocol&amp;nbsp;&lt;/b&gt;" style="html=1;shadow=0;dashed=0;shape=mxgraph.bootstrap.rrect;rSize=5;strokeColor=none;strokeWidth=1;fillColor=#E0F0D6;fontColor=#59B958;whiteSpace=wrap;align=left;verticalAlign=middle;spacingLeft=10;" parent="MaNi_Wpx-QzMcCc9FKpo-1" vertex="1">
          <mxGeometry x="40" y="40" width="840" height="30" as="geometry" />
        </mxCell>
        <mxCell id="eocgRiOb1N-Txec2n1dy-0" value="collar data" style="html=1;shadow=0;dashed=0;shape=mxgraph.bootstrap.rrect;rSize=5;strokeColor=none;strokeWidth=1;fillColor=#DB2843;fontColor=#ffffff;whiteSpace=wrap;align=left;verticalAlign=middle;fontStyle=0;fontSize=14;spacingLeft=10;" parent="MaNi_Wpx-QzMcCc9FKpo-1" vertex="1">
          <mxGeometry x="600" y="330" width="160" height="30" as="geometry" />
        </mxCell>
        <mxCell id="eocgRiOb1N-Txec2n1dy-1" value="" style="shape=triangle;direction=south;fillColor=#ffffff;strokeColor=none;perimeter=none;" parent="eocgRiOb1N-Txec2n1dy-0" vertex="1">
          <mxGeometry x="1" y="0.5" width="10" height="5" relative="1" as="geometry">
            <mxPoint x="-17" y="-2.5" as="offset" />
          </mxGeometry>
        </mxCell>
        <mxCell id="EuxnJ_P-NBrljgiLw1Mm-0" value="" style="html=1;shadow=0;dashed=0;shape=mxgraph.bootstrap.rrect;rSize=5;strokeColor=#DFDFDF;html=1;whiteSpace=wrap;fillColor=#FFFFFF;fontColor=#000000;" vertex="1" parent="MaNi_Wpx-QzMcCc9FKpo-1">
          <mxGeometry x="600" y="360" width="281" height="560" as="geometry" />
        </mxCell>
        <mxCell id="EuxnJ_P-NBrljgiLw1Mm-1" value="Reset data&amp;nbsp;of collar contains 12 groups of 2 bytes each.&amp;nbsp;Each group contained reset data for about 20 minutes.So 4 hours of&amp;nbsp; data were recorded." style="strokeColor=inherit;fillColor=inherit;gradientColor=inherit;fontColor=inherit;html=1;shadow=0;dashed=0;shape=mxgraph.bootstrap.topButton;rSize=5;perimeter=none;whiteSpace=wrap;resizeWidth=1;align=left;spacing=10;" vertex="1" parent="EuxnJ_P-NBrljgiLw1Mm-0">
          <mxGeometry width="200" height="70" relative="1" as="geometry">
            <mxPoint x="81" as="offset" />
          </mxGeometry>
        </mxCell>
        <mxCell id="EuxnJ_P-NBrljgiLw1Mm-2" value="&lt;font color=&quot;#000000&quot;&gt;Ingestion data&amp;nbsp;of collar contains 12 groups of 2 bytes each.&amp;nbsp;Each group contained ingestion data for about 20 minutes.So 4 hours of&amp;nbsp;data were recorded.&lt;/font&gt;" style="html=1;fillColor=#B8DCFE;strokeColor=#A1C0DE;fontColor=#004583;shadow=0;dashed=0;perimeter=none;whiteSpace=wrap;resizeWidth=1;align=left;spacing=10;" vertex="1" parent="EuxnJ_P-NBrljgiLw1Mm-0">
          <mxGeometry width="200" height="70" relative="1" as="geometry">
            <mxPoint x="81" y="70" as="offset" />
          </mxGeometry>
        </mxCell>
        <mxCell id="EuxnJ_P-NBrljgiLw1Mm-3" value="&lt;font color=&quot;#000000&quot;&gt;step stage of group, it add one every 20 minutes,its value range is 0~11.&lt;/font&gt;" style="html=1;fillColor=#FFECBC;strokeColor=#DFCEA4;fontColor=#856110;shadow=0;dashed=0;perimeter=none;whiteSpace=wrap;resizeWidth=1;align=left;spacing=10;" vertex="1" parent="EuxnJ_P-NBrljgiLw1Mm-0">
          <mxGeometry width="200" height="50" relative="1" as="geometry">
            <mxPoint x="81" y="420" as="offset" />
          </mxGeometry>
        </mxCell>
        <mxCell id="EuxnJ_P-NBrljgiLw1Mm-4" value="&lt;span style=&quot;color: rgb(0 , 0 , 0)&quot;&gt;battery power data&lt;/span&gt;" style="html=1;fillColor=#BFE6EB;strokeColor=#A7C9CE;fontColor=#0E5560;shadow=0;dashed=0;perimeter=none;whiteSpace=wrap;resizeWidth=1;align=left;spacing=10;" vertex="1" parent="EuxnJ_P-NBrljgiLw1Mm-0">
          <mxGeometry width="200" height="30" relative="1" as="geometry">
            <mxPoint x="81" y="470" as="offset" />
          </mxGeometry>
        </mxCell>
        <mxCell id="EuxnJ_P-NBrljgiLw1Mm-5" value="&lt;span style=&quot;color: rgb(0 , 0 , 0)&quot;&gt;CRC32 verify data&lt;/span&gt;" style="html=1;shadow=0;dashed=0;shape=mxgraph.bootstrap.bottomButton;fillColor=#C6C8CA;strokeColor=#ADAFB1;fontColor=#1B1E21;rSize=5;perimeter=none;whiteSpace=wrap;resizeWidth=1;resizeHeight=0;align=left;spacing=10;" vertex="1" parent="EuxnJ_P-NBrljgiLw1Mm-0">
          <mxGeometry y="1" width="200" height="29" relative="1" as="geometry">
            <mxPoint x="81" y="-29" as="offset" />
          </mxGeometry>
        </mxCell>
        <mxCell id="EuxnJ_P-NBrljgiLw1Mm-7" value="&lt;font color=&quot;#000000&quot;&gt;Other data&amp;nbsp;of collar contains 12 groups of 2 bytes each.&amp;nbsp;Each group contained other data for about 20 minutes.So 4 hours of&amp;nbsp;data were recorded.&lt;/font&gt;" style="html=1;fillColor=#B8DCFE;strokeColor=#A1C0DE;fontColor=#004583;shadow=0;dashed=0;perimeter=none;whiteSpace=wrap;resizeWidth=1;align=left;spacing=10;" vertex="1" parent="EuxnJ_P-NBrljgiLw1Mm-0">
          <mxGeometry x="81" y="350" width="200" height="70" as="geometry" />
        </mxCell>
        <mxCell id="EuxnJ_P-NBrljgiLw1Mm-8" value="&lt;span style=&quot;color: rgb(0 , 0 , 0) ; font-size: 12px&quot;&gt;reset count of collar&lt;/span&gt;" style="html=1;fillColor=#f8cecc;strokeColor=#b85450;shadow=0;dashed=0;perimeter=none;whiteSpace=wrap;resizeWidth=1;align=left;spacing=10;fontSize=14;" vertex="1" parent="EuxnJ_P-NBrljgiLw1Mm-0">
          <mxGeometry x="81" y="500" width="200" height="30" as="geometry" />
        </mxCell>
        <mxCell id="EuxnJ_P-NBrljgiLw1Mm-9" value="&lt;font color=&quot;#000000&quot;&gt;Movement data&amp;nbsp;of collar contains 12 groups of 2 bytes each.&amp;nbsp;Each group contained movement data for about 20 minutes.So 4 hours of&amp;nbsp;data were recorded.&lt;/font&gt;" style="html=1;shadow=0;dashed=0;perimeter=none;whiteSpace=wrap;resizeWidth=1;align=left;spacing=10;" vertex="1" parent="EuxnJ_P-NBrljgiLw1Mm-0">
          <mxGeometry x="81" y="140" width="200" height="70" as="geometry" />
        </mxCell>
        <mxCell id="EuxnJ_P-NBrljgiLw1Mm-11" value="&lt;font color=&quot;#000000&quot;&gt;Ruminate data&amp;nbsp;of collar contains 12 groups of 2 bytes each.&amp;nbsp;Each group contained ruminate data for about 20 minutes.So 4 hours of&amp;nbsp;data were recorded.&lt;/font&gt;" style="html=1;shadow=0;dashed=0;perimeter=none;whiteSpace=wrap;resizeWidth=1;align=left;spacing=10;" vertex="1" parent="EuxnJ_P-NBrljgiLw1Mm-0">
          <mxGeometry x="81" y="280" width="200" height="70" as="geometry" />
        </mxCell>
        <mxCell id="EuxnJ_P-NBrljgiLw1Mm-12" value="&lt;font color=&quot;#000000&quot;&gt;Climb data&amp;nbsp;of collar contains 12 groups of 2 bytes each.&amp;nbsp;Each group contained climb data for about 20 minutes.So 4 hours of&amp;nbsp;data were recorded.&lt;/font&gt;" style="html=1;fillColor=#B8DCFE;strokeColor=#A1C0DE;fontColor=#004583;shadow=0;dashed=0;perimeter=none;whiteSpace=wrap;resizeWidth=1;align=left;spacing=10;" vertex="1" parent="EuxnJ_P-NBrljgiLw1Mm-0">
          <mxGeometry x="81" y="210" width="200" height="70" as="geometry" />
        </mxCell>
        <mxCell id="EuxnJ_P-NBrljgiLw1Mm-13" value="&lt;font style=&quot;font-size: 14px&quot; color=&quot;#db2843&quot;&gt;byte38~61&lt;/font&gt;" style="html=1;shadow=0;dashed=0;shape=mxgraph.bootstrap.rrect;rSize=5;strokeColor=#DB2843;strokeWidth=1;fillColor=none;fontColor=#33A64C;whiteSpace=wrap;align=center;verticalAlign=middle;spacingLeft=0;fontStyle=0;fontSize=16;spacing=5;" vertex="1" parent="EuxnJ_P-NBrljgiLw1Mm-0">
          <mxGeometry width="80" height="70" as="geometry" />
        </mxCell>
        <mxCell id="EuxnJ_P-NBrljgiLw1Mm-14" value="&lt;span style=&quot;color: rgb(219 , 40 , 67) ; font-size: 14px&quot;&gt;byte182&lt;/span&gt;" style="html=1;shadow=0;dashed=0;shape=mxgraph.bootstrap.rrect;rSize=5;strokeColor=#DB2843;strokeWidth=1;fillColor=none;fontColor=#33A64C;whiteSpace=wrap;align=center;verticalAlign=middle;spacingLeft=0;fontStyle=0;fontSize=16;spacing=5;" vertex="1" parent="EuxnJ_P-NBrljgiLw1Mm-0">
          <mxGeometry y="420" width="80" height="50" as="geometry" />
        </mxCell>
        <mxCell id="EuxnJ_P-NBrljgiLw1Mm-15" value="&lt;span style=&quot;color: rgb(219 , 40 , 67) ; font-size: 14px&quot;&gt;byte183~184&lt;/span&gt;" style="html=1;shadow=0;dashed=0;shape=mxgraph.bootstrap.rrect;rSize=5;strokeColor=#DB2843;strokeWidth=1;fillColor=none;fontColor=#33A64C;whiteSpace=wrap;align=center;verticalAlign=middle;spacingLeft=0;fontStyle=0;fontSize=16;spacing=5;" vertex="1" parent="EuxnJ_P-NBrljgiLw1Mm-0">
          <mxGeometry x="1" y="470" width="80" height="30" as="geometry" />
        </mxCell>
        <mxCell id="EuxnJ_P-NBrljgiLw1Mm-17" value="&lt;span style=&quot;color: rgb(219 , 40 , 67) ; font-size: 14px&quot;&gt;byte187~190&lt;/span&gt;" style="html=1;shadow=0;dashed=0;shape=mxgraph.bootstrap.rrect;rSize=5;strokeColor=#DB2843;strokeWidth=1;fillColor=none;fontColor=#33A64C;whiteSpace=wrap;align=center;verticalAlign=middle;spacingLeft=0;fontStyle=0;fontSize=16;spacing=5;" vertex="1" parent="EuxnJ_P-NBrljgiLw1Mm-0">
          <mxGeometry y="530" width="80" height="30" as="geometry" />
        </mxCell>
        <mxCell id="EuxnJ_P-NBrljgiLw1Mm-18" value="&lt;font style=&quot;font-size: 14px&quot; color=&quot;#db2843&quot;&gt;byte62~85&lt;/font&gt;" style="html=1;shadow=0;dashed=0;shape=mxgraph.bootstrap.rrect;rSize=5;strokeColor=#DB2843;strokeWidth=1;fillColor=none;fontColor=#33A64C;whiteSpace=wrap;align=center;verticalAlign=middle;spacingLeft=0;fontStyle=0;fontSize=16;spacing=5;" vertex="1" parent="EuxnJ_P-NBrljgiLw1Mm-0">
          <mxGeometry y="70" width="80" height="70" as="geometry" />
        </mxCell>
        <mxCell id="EuxnJ_P-NBrljgiLw1Mm-20" value="&lt;span style=&quot;color: rgb(219 , 40 , 67) ; font-size: 14px&quot;&gt;byte185~186&lt;br&gt;&lt;/span&gt;" style="html=1;shadow=0;dashed=0;shape=mxgraph.bootstrap.rrect;rSize=5;strokeColor=#DB2843;strokeWidth=1;fillColor=none;fontColor=#33A64C;whiteSpace=wrap;align=center;verticalAlign=middle;spacingLeft=0;fontStyle=0;fontSize=16;spacing=5;" vertex="1" parent="EuxnJ_P-NBrljgiLw1Mm-0">
          <mxGeometry y="500" width="80" height="30" as="geometry" />
        </mxCell>
        <mxCell id="EuxnJ_P-NBrljgiLw1Mm-21" value="&lt;font style=&quot;font-size: 14px&quot; color=&quot;#db2843&quot;&gt;byte86~109&lt;/font&gt;" style="html=1;shadow=0;dashed=0;shape=mxgraph.bootstrap.rrect;rSize=5;strokeColor=#DB2843;strokeWidth=1;fillColor=none;fontColor=#33A64C;whiteSpace=wrap;align=center;verticalAlign=middle;spacingLeft=0;fontStyle=0;fontSize=16;spacing=5;" vertex="1" parent="EuxnJ_P-NBrljgiLw1Mm-0">
          <mxGeometry y="140" width="80" height="70" as="geometry" />
        </mxCell>
        <mxCell id="EuxnJ_P-NBrljgiLw1Mm-22" value="&lt;font style=&quot;font-size: 14px&quot; color=&quot;#db2843&quot;&gt;byte134~157&lt;/font&gt;" style="html=1;shadow=0;dashed=0;shape=mxgraph.bootstrap.rrect;rSize=5;strokeColor=#DB2843;strokeWidth=1;fillColor=none;fontColor=#33A64C;whiteSpace=wrap;align=center;verticalAlign=middle;spacingLeft=0;fontStyle=0;fontSize=16;spacing=5;" vertex="1" parent="EuxnJ_P-NBrljgiLw1Mm-0">
          <mxGeometry y="280" width="80" height="70" as="geometry" />
        </mxCell>
        <mxCell id="EuxnJ_P-NBrljgiLw1Mm-23" value="&lt;font style=&quot;font-size: 14px&quot; color=&quot;#db2843&quot;&gt;byte158~181&lt;br&gt;&lt;/font&gt;" style="html=1;shadow=0;dashed=0;shape=mxgraph.bootstrap.rrect;rSize=5;strokeColor=#DB2843;strokeWidth=1;fillColor=none;fontColor=#33A64C;whiteSpace=wrap;align=center;verticalAlign=middle;spacingLeft=0;fontStyle=0;fontSize=16;spacing=5;" vertex="1" parent="EuxnJ_P-NBrljgiLw1Mm-0">
          <mxGeometry y="350" width="80" height="70" as="geometry" />
        </mxCell>
        <mxCell id="EuxnJ_P-NBrljgiLw1Mm-24" value="&lt;font style=&quot;font-size: 14px&quot; color=&quot;#db2843&quot;&gt;byte110~133&lt;/font&gt;" style="html=1;shadow=0;dashed=0;shape=mxgraph.bootstrap.rrect;rSize=5;strokeColor=#DB2843;strokeWidth=1;fillColor=none;fontColor=#33A64C;whiteSpace=wrap;align=center;verticalAlign=middle;spacingLeft=0;fontStyle=0;fontSize=16;spacing=5;" vertex="1" parent="EuxnJ_P-NBrljgiLw1Mm-0">
          <mxGeometry y="210" width="80" height="70" as="geometry" />
        </mxCell>
      </root>
    </mxGraphModel>
  </diagram>
  <diagram id="VbIyRa_O3kA-Ohf_W0_N" name="Collar Hardware Command Protocol">
    <mxGraphModel dx="1206" dy="809" grid="1" gridSize="10" guides="1" tooltips="1" connect="1" arrows="1" fold="1" page="1" pageScale="1" pageWidth="827" pageHeight="1169" math="0" shadow="0">
      <root>
        <mxCell id="hYhFItrxCvdBytH4EcYR-0" />
        <mxCell id="hYhFItrxCvdBytH4EcYR-1" parent="hYhFItrxCvdBytH4EcYR-0" />
        <mxCell id="bCqeujbRbMg7YSuP5vhL-48" value="&lt;b&gt;Collar Hardware Command Protocol&lt;br&gt;&lt;/b&gt;" style="html=1;shadow=0;dashed=0;shape=mxgraph.bootstrap.rrect;rSize=5;strokeColor=#B8DCFE;strokeWidth=1;fillColor=#CCE7FE;fontColor=#004583;whiteSpace=wrap;align=left;verticalAlign=middle;spacingLeft=10;fontSize=14;" parent="hYhFItrxCvdBytH4EcYR-1" vertex="1">
          <mxGeometry x="40" width="840" height="30" as="geometry" />
        </mxCell>
        <mxCell id="bCqeujbRbMg7YSuP5vhL-74" value="&lt;span style=&quot;font-size: 20px&quot;&gt;&lt;b&gt;Frame Header&amp;nbsp;&lt;/b&gt;&lt;/span&gt;&lt;br style=&quot;font-size: 14px&quot;&gt;&lt;br style=&quot;font-size: 14px&quot;&gt;Memory command frame header." style="html=1;shadow=0;dashed=0;shape=mxgraph.bootstrap.rrect;rSize=5;strokeColor=#0071D5;html=1;whiteSpace=wrap;fillColor=#0085FC;fontColor=#ffffff;verticalAlign=bottom;align=left;spacing=20;spacingBottom=0;fontSize=14;" parent="hYhFItrxCvdBytH4EcYR-1" vertex="1">
          <mxGeometry x="40" y="80" width="280" height="200" as="geometry" />
        </mxCell>
        <mxCell id="bCqeujbRbMg7YSuP5vhL-75" value="&lt;b&gt;Header&lt;/b&gt;" style="html=1;shadow=0;dashed=0;shape=mxgraph.bootstrap.topButton;rSize=5;perimeter=none;whiteSpace=wrap;fillColor=#0081F4;strokeColor=#0071D5;fontColor=#ffffff;resizeWidth=1;fontSize=18;align=left;spacing=20;" parent="bCqeujbRbMg7YSuP5vhL-74" vertex="1">
          <mxGeometry width="280" height="50" relative="1" as="geometry" />
        </mxCell>
        <mxCell id="bCqeujbRbMg7YSuP5vhL-76" value="&lt;span style=&quot;font-size: 16px; font-weight: 400;&quot;&gt;byte0&lt;/span&gt;" style="rounded=1;whiteSpace=wrap;html=1;arcSize=50;strokeColor=none;strokeWidth=1;fillColor=#343A40;fontColor=#ffffff;whiteSpace=wrap;align=center;verticalAlign=middle;spacingLeft=0;fontStyle=1;fontSize=14;spacing=10;" parent="bCqeujbRbMg7YSuP5vhL-74" vertex="1">
          <mxGeometry y="49.99666666666667" width="67.2" height="33.333333333333336" as="geometry" />
        </mxCell>
        <mxCell id="bCqeujbRbMg7YSuP5vhL-77" value="&lt;span style=&quot;font-size: 16px; font-weight: 400;&quot;&gt;byte1&lt;br&gt;&lt;/span&gt;" style="rounded=1;whiteSpace=wrap;html=1;arcSize=50;strokeColor=none;strokeWidth=1;fillColor=#343A40;fontColor=#ffffff;whiteSpace=wrap;align=center;verticalAlign=middle;spacingLeft=0;fontStyle=1;fontSize=14;spacing=10;" parent="bCqeujbRbMg7YSuP5vhL-74" vertex="1">
          <mxGeometry x="67.2" y="49.99666666666667" width="67.2" height="33.333333333333336" as="geometry" />
        </mxCell>
        <mxCell id="4ayaDZuuo9kOPK0xSkik-0" value="&lt;span style=&quot;font-size: 16px ; font-weight: 400&quot;&gt;byte2&lt;/span&gt;" style="rounded=1;whiteSpace=wrap;html=1;arcSize=50;strokeColor=none;strokeWidth=1;fillColor=#343A40;fontColor=#ffffff;whiteSpace=wrap;align=center;verticalAlign=middle;spacingLeft=0;fontStyle=1;fontSize=14;spacing=10;" parent="bCqeujbRbMg7YSuP5vhL-74" vertex="1">
          <mxGeometry x="134.39999999999998" y="49.99666666666667" width="67.2" height="33.333333333333336" as="geometry" />
        </mxCell>
        <mxCell id="4ayaDZuuo9kOPK0xSkik-1" value="&lt;span style=&quot;font-size: 16px ; font-weight: 400&quot;&gt;byte3&lt;br&gt;&lt;/span&gt;" style="rounded=1;whiteSpace=wrap;html=1;arcSize=50;strokeColor=none;strokeWidth=1;fillColor=#343A40;fontColor=#ffffff;whiteSpace=wrap;align=center;verticalAlign=middle;spacingLeft=0;fontStyle=1;fontSize=14;spacing=10;" parent="bCqeujbRbMg7YSuP5vhL-74" vertex="1">
          <mxGeometry x="201.60000000000002" y="49.99666666666667" width="67.2" height="33.333333333333336" as="geometry" />
        </mxCell>
        <mxCell id="bCqeujbRbMg7YSuP5vhL-114" value="&lt;b&gt;---- Memory Command Protocol&amp;nbsp;&lt;/b&gt;" style="html=1;shadow=0;dashed=0;shape=mxgraph.bootstrap.rrect;rSize=5;strokeColor=none;strokeWidth=1;fillColor=#E0F0D6;fontColor=#59B958;whiteSpace=wrap;align=left;verticalAlign=middle;spacingLeft=10;" parent="hYhFItrxCvdBytH4EcYR-1" vertex="1">
          <mxGeometry x="40" y="40" width="840" height="30" as="geometry" />
        </mxCell>
        <mxCell id="bCqeujbRbMg7YSuP5vhL-116" value="byte0" style="html=1;shadow=0;dashed=0;shape=mxgraph.bootstrap.rrect;rSize=5;strokeColor=none;strokeWidth=1;fillColor=#33A64C;fontColor=#ffffff;whiteSpace=wrap;align=left;verticalAlign=middle;fontStyle=0;fontSize=14;spacingLeft=10;" parent="hYhFItrxCvdBytH4EcYR-1" vertex="1">
          <mxGeometry x="40" y="290" width="70" height="30" as="geometry" />
        </mxCell>
        <mxCell id="bCqeujbRbMg7YSuP5vhL-117" value="" style="shape=triangle;direction=south;fillColor=#ffffff;strokeColor=none;perimeter=none;" parent="bCqeujbRbMg7YSuP5vhL-116" vertex="1">
          <mxGeometry x="1" y="0.5" width="10" height="5" relative="1" as="geometry">
            <mxPoint x="-17" y="-2.5" as="offset" />
          </mxGeometry>
        </mxCell>
        <mxCell id="bCqeujbRbMg7YSuP5vhL-118" value="&lt;font style=&quot;font-size: 14px&quot;&gt;0x41&lt;/font&gt;" style="html=1;shadow=0;dashed=0;shape=mxgraph.bootstrap.rrect;rSize=5;strokeColor=#33A64C;strokeWidth=1;fillColor=none;fontColor=#33A64C;whiteSpace=wrap;align=center;verticalAlign=middle;spacingLeft=0;fontStyle=0;fontSize=16;spacing=5;" parent="hYhFItrxCvdBytH4EcYR-1" vertex="1">
          <mxGeometry x="40" y="320" width="70" height="30" as="geometry" />
        </mxCell>
        <mxCell id="bCqeujbRbMg7YSuP5vhL-119" value="byte1" style="html=1;shadow=0;dashed=0;shape=mxgraph.bootstrap.rrect;rSize=5;strokeColor=none;strokeWidth=1;fillColor=#33A64C;fontColor=#ffffff;whiteSpace=wrap;align=left;verticalAlign=middle;fontStyle=0;fontSize=14;spacingLeft=10;" parent="hYhFItrxCvdBytH4EcYR-1" vertex="1">
          <mxGeometry x="110" y="290" width="70" height="30" as="geometry" />
        </mxCell>
        <mxCell id="bCqeujbRbMg7YSuP5vhL-120" value="" style="shape=triangle;direction=south;fillColor=#ffffff;strokeColor=none;perimeter=none;" parent="bCqeujbRbMg7YSuP5vhL-119" vertex="1">
          <mxGeometry x="1" y="0.5" width="10" height="5" relative="1" as="geometry">
            <mxPoint x="-17" y="-2.5" as="offset" />
          </mxGeometry>
        </mxCell>
        <mxCell id="bCqeujbRbMg7YSuP5vhL-121" value="&lt;font style=&quot;font-size: 14px&quot;&gt;0x42&lt;/font&gt;" style="html=1;shadow=0;dashed=0;shape=mxgraph.bootstrap.rrect;rSize=5;strokeColor=#33A64C;strokeWidth=1;fillColor=none;fontColor=#33A64C;whiteSpace=wrap;align=center;verticalAlign=middle;spacingLeft=0;fontStyle=0;fontSize=16;spacing=5;" parent="hYhFItrxCvdBytH4EcYR-1" vertex="1">
          <mxGeometry x="110" y="320" width="70" height="30" as="geometry" />
        </mxCell>
        <mxCell id="4ayaDZuuo9kOPK0xSkik-2" value="byte2" style="html=1;shadow=0;dashed=0;shape=mxgraph.bootstrap.rrect;rSize=5;strokeColor=none;strokeWidth=1;fillColor=#33A64C;fontColor=#ffffff;whiteSpace=wrap;align=left;verticalAlign=middle;fontStyle=0;fontSize=14;spacingLeft=10;" parent="hYhFItrxCvdBytH4EcYR-1" vertex="1">
          <mxGeometry x="180" y="290" width="70" height="30" as="geometry" />
        </mxCell>
        <mxCell id="4ayaDZuuo9kOPK0xSkik-3" value="" style="shape=triangle;direction=south;fillColor=#ffffff;strokeColor=none;perimeter=none;" parent="4ayaDZuuo9kOPK0xSkik-2" vertex="1">
          <mxGeometry x="1" y="0.5" width="10" height="5" relative="1" as="geometry">
            <mxPoint x="-17" y="-2.5" as="offset" />
          </mxGeometry>
        </mxCell>
        <mxCell id="4ayaDZuuo9kOPK0xSkik-4" value="&lt;font style=&quot;font-size: 14px&quot;&gt;0x43&lt;/font&gt;" style="html=1;shadow=0;dashed=0;shape=mxgraph.bootstrap.rrect;rSize=5;strokeColor=#33A64C;strokeWidth=1;fillColor=none;fontColor=#33A64C;whiteSpace=wrap;align=center;verticalAlign=middle;spacingLeft=0;fontStyle=0;fontSize=16;spacing=5;" parent="hYhFItrxCvdBytH4EcYR-1" vertex="1">
          <mxGeometry x="180" y="320" width="70" height="30" as="geometry" />
        </mxCell>
        <mxCell id="4ayaDZuuo9kOPK0xSkik-5" value="byte3" style="html=1;shadow=0;dashed=0;shape=mxgraph.bootstrap.rrect;rSize=5;strokeColor=none;strokeWidth=1;fillColor=#33A64C;fontColor=#ffffff;whiteSpace=wrap;align=left;verticalAlign=middle;fontStyle=0;fontSize=14;spacingLeft=10;" parent="hYhFItrxCvdBytH4EcYR-1" vertex="1">
          <mxGeometry x="250" y="290" width="70" height="30" as="geometry" />
        </mxCell>
        <mxCell id="4ayaDZuuo9kOPK0xSkik-6" value="" style="shape=triangle;direction=south;fillColor=#ffffff;strokeColor=none;perimeter=none;" parent="4ayaDZuuo9kOPK0xSkik-5" vertex="1">
          <mxGeometry x="1" y="0.5" width="10" height="5" relative="1" as="geometry">
            <mxPoint x="-17" y="-2.5" as="offset" />
          </mxGeometry>
        </mxCell>
        <mxCell id="4ayaDZuuo9kOPK0xSkik-7" value="&lt;font style=&quot;font-size: 14px&quot;&gt;0x44&lt;/font&gt;" style="html=1;shadow=0;dashed=0;shape=mxgraph.bootstrap.rrect;rSize=5;strokeColor=#33A64C;strokeWidth=1;fillColor=none;fontColor=#33A64C;whiteSpace=wrap;align=center;verticalAlign=middle;spacingLeft=0;fontStyle=0;fontSize=16;spacing=5;" parent="hYhFItrxCvdBytH4EcYR-1" vertex="1">
          <mxGeometry x="250" y="320" width="70" height="30" as="geometry" />
        </mxCell>
        <mxCell id="CBNuBkaezCgKh-z2ca3C-0" value="&lt;span style=&quot;font-size: 20px&quot;&gt;&lt;b&gt;Radio Frequency ID&lt;/b&gt;&lt;/span&gt;&lt;br style=&quot;font-size: 14px&quot;&gt;&lt;br style=&quot;font-size: 14px&quot;&gt;Each collar hardware has unique identification." style="html=1;shadow=0;dashed=0;shape=mxgraph.bootstrap.rrect;rSize=5;strokeColor=#5B646A;html=1;whiteSpace=wrap;fillColor=#6C767D;fontColor=#ffffff;verticalAlign=bottom;align=left;spacing=20;spacingBottom=0;fontSize=14;" parent="hYhFItrxCvdBytH4EcYR-1" vertex="1">
          <mxGeometry x="320" y="80" width="280" height="200" as="geometry" />
        </mxCell>
        <mxCell id="CBNuBkaezCgKh-z2ca3C-1" value="RFID" style="html=1;shadow=0;dashed=0;shape=mxgraph.bootstrap.topButton;rSize=5;perimeter=none;whiteSpace=wrap;fillColor=#697279;strokeColor=#5B646A;fontColor=#ffffff;resizeWidth=1;fontSize=18;align=left;spacing=20;" parent="CBNuBkaezCgKh-z2ca3C-0" vertex="1">
          <mxGeometry width="280" height="50" relative="1" as="geometry" />
        </mxCell>
        <mxCell id="CBNuBkaezCgKh-z2ca3C-2" value="&lt;span style=&quot;font-size: 16px ; font-weight: 400&quot;&gt;byte4&lt;/span&gt;" style="rounded=1;whiteSpace=wrap;html=1;arcSize=50;strokeColor=none;strokeWidth=1;fillColor=#343A40;fontColor=#ffffff;whiteSpace=wrap;align=center;verticalAlign=middle;spacingLeft=0;fontStyle=1;fontSize=14;spacing=10;" parent="CBNuBkaezCgKh-z2ca3C-0" vertex="1">
          <mxGeometry y="49.99666666666667" width="67.2" height="33.333333333333336" as="geometry" />
        </mxCell>
        <mxCell id="CBNuBkaezCgKh-z2ca3C-3" value="&lt;span style=&quot;font-size: 16px ; font-weight: 400&quot;&gt;5…6&lt;br&gt;&lt;/span&gt;" style="rounded=1;whiteSpace=wrap;html=1;arcSize=50;strokeColor=none;strokeWidth=1;fillColor=#343A40;fontColor=#ffffff;whiteSpace=wrap;align=center;verticalAlign=middle;spacingLeft=0;fontStyle=1;fontSize=14;spacing=10;" parent="CBNuBkaezCgKh-z2ca3C-0" vertex="1">
          <mxGeometry x="67.20000000000005" y="49.99666666666667" width="67.2" height="33.333333333333336" as="geometry" />
        </mxCell>
        <mxCell id="CBNuBkaezCgKh-z2ca3C-4" value="&lt;span style=&quot;font-size: 16px ; font-weight: 400&quot;&gt;7…8&lt;br&gt;&lt;/span&gt;" style="rounded=1;whiteSpace=wrap;html=1;arcSize=50;strokeColor=none;strokeWidth=1;fillColor=#343A40;fontColor=#ffffff;whiteSpace=wrap;align=center;verticalAlign=middle;spacingLeft=0;fontStyle=1;fontSize=14;spacing=10;" parent="CBNuBkaezCgKh-z2ca3C-0" vertex="1">
          <mxGeometry x="134.39999999999998" y="49.99666666666667" width="67.2" height="33.333333333333336" as="geometry" />
        </mxCell>
        <mxCell id="CBNuBkaezCgKh-z2ca3C-5" value="&lt;span style=&quot;font-size: 16px ; font-weight: 400&quot;&gt;byte9&lt;br&gt;&lt;/span&gt;" style="rounded=1;whiteSpace=wrap;html=1;arcSize=50;strokeColor=none;strokeWidth=1;fillColor=#343A40;fontColor=#ffffff;whiteSpace=wrap;align=center;verticalAlign=middle;spacingLeft=0;fontStyle=1;fontSize=14;spacing=10;" parent="CBNuBkaezCgKh-z2ca3C-0" vertex="1">
          <mxGeometry x="201.60000000000002" y="49.99666666666667" width="67.2" height="33.333333333333336" as="geometry" />
        </mxCell>
        <mxCell id="o0yWpi5MKIpP_BuuhKoA-0" value="&lt;span style=&quot;font-size: 20px&quot;&gt;&lt;b&gt;Frame Tail&lt;/b&gt;&lt;/span&gt;&lt;br style=&quot;font-size: 14px&quot;&gt;&lt;br style=&quot;font-size: 14px&quot;&gt;Memory command frame tail." style="html=1;shadow=0;dashed=0;shape=mxgraph.bootstrap.rrect;rSize=5;strokeColor=#D89F20;html=1;whiteSpace=wrap;fillColor=#FFBC26;fontColor=#ffffff;verticalAlign=bottom;align=left;spacing=20;spacingBottom=0;fontSize=14;" parent="hYhFItrxCvdBytH4EcYR-1" vertex="1">
          <mxGeometry x="600" y="80" width="280" height="200" as="geometry" />
        </mxCell>
        <mxCell id="o0yWpi5MKIpP_BuuhKoA-1" value="Tail" style="html=1;shadow=0;dashed=0;shape=mxgraph.bootstrap.topButton;rSize=5;perimeter=none;whiteSpace=wrap;fillColor=#F7B625;strokeColor=#D89F20;fontColor=#ffffff;resizeWidth=1;fontSize=18;align=left;spacing=20;" parent="o0yWpi5MKIpP_BuuhKoA-0" vertex="1">
          <mxGeometry width="280" height="50" relative="1" as="geometry" />
        </mxCell>
        <mxCell id="o0yWpi5MKIpP_BuuhKoA-2" value="&lt;span style=&quot;font-size: 16px ; font-weight: 400&quot;&gt;byte10&lt;/span&gt;" style="rounded=1;whiteSpace=wrap;html=1;arcSize=50;strokeColor=none;strokeWidth=1;fillColor=#343A40;fontColor=#ffffff;whiteSpace=wrap;align=center;verticalAlign=middle;spacingLeft=0;fontStyle=1;fontSize=14;spacing=10;" parent="o0yWpi5MKIpP_BuuhKoA-0" vertex="1">
          <mxGeometry y="49.99666666666667" width="67.2" height="33.333333333333336" as="geometry" />
        </mxCell>
        <mxCell id="o0yWpi5MKIpP_BuuhKoA-3" value="&lt;span style=&quot;font-size: 16px ; font-weight: 400&quot;&gt;byte11&lt;br&gt;&lt;/span&gt;" style="rounded=1;whiteSpace=wrap;html=1;arcSize=50;strokeColor=none;strokeWidth=1;fillColor=#343A40;fontColor=#ffffff;whiteSpace=wrap;align=center;verticalAlign=middle;spacingLeft=0;fontStyle=1;fontSize=14;spacing=10;" parent="o0yWpi5MKIpP_BuuhKoA-0" vertex="1">
          <mxGeometry x="67.20000000000005" y="49.99666666666667" width="67.2" height="33.333333333333336" as="geometry" />
        </mxCell>
        <mxCell id="o0yWpi5MKIpP_BuuhKoA-4" value="byte10" style="html=1;shadow=0;dashed=0;shape=mxgraph.bootstrap.rrect;rSize=5;strokeColor=none;strokeWidth=1;fillColor=#33A64C;fontColor=#ffffff;whiteSpace=wrap;align=left;verticalAlign=middle;fontStyle=0;fontSize=14;spacingLeft=10;" parent="hYhFItrxCvdBytH4EcYR-1" vertex="1">
          <mxGeometry x="600" y="290" width="70" height="30" as="geometry" />
        </mxCell>
        <mxCell id="o0yWpi5MKIpP_BuuhKoA-5" value="" style="shape=triangle;direction=south;fillColor=#ffffff;strokeColor=none;perimeter=none;" parent="o0yWpi5MKIpP_BuuhKoA-4" vertex="1">
          <mxGeometry x="1" y="0.5" width="10" height="5" relative="1" as="geometry">
            <mxPoint x="-17" y="-2.5" as="offset" />
          </mxGeometry>
        </mxCell>
        <mxCell id="o0yWpi5MKIpP_BuuhKoA-6" value="&lt;font style=&quot;font-size: 14px&quot;&gt;0x0D&lt;/font&gt;" style="html=1;shadow=0;dashed=0;shape=mxgraph.bootstrap.rrect;rSize=5;strokeColor=#33A64C;strokeWidth=1;fillColor=none;fontColor=#33A64C;whiteSpace=wrap;align=center;verticalAlign=middle;spacingLeft=0;fontStyle=0;fontSize=16;spacing=5;" parent="hYhFItrxCvdBytH4EcYR-1" vertex="1">
          <mxGeometry x="600" y="320" width="70" height="30" as="geometry" />
        </mxCell>
        <mxCell id="o0yWpi5MKIpP_BuuhKoA-7" value="byte11" style="html=1;shadow=0;dashed=0;shape=mxgraph.bootstrap.rrect;rSize=5;strokeColor=none;strokeWidth=1;fillColor=#33A64C;fontColor=#ffffff;whiteSpace=wrap;align=left;verticalAlign=middle;fontStyle=0;fontSize=14;spacingLeft=10;" parent="hYhFItrxCvdBytH4EcYR-1" vertex="1">
          <mxGeometry x="670" y="290" width="70" height="30" as="geometry" />
        </mxCell>
        <mxCell id="o0yWpi5MKIpP_BuuhKoA-8" value="" style="shape=triangle;direction=south;fillColor=#ffffff;strokeColor=none;perimeter=none;" parent="o0yWpi5MKIpP_BuuhKoA-7" vertex="1">
          <mxGeometry x="1" y="0.5" width="10" height="5" relative="1" as="geometry">
            <mxPoint x="-17" y="-2.5" as="offset" />
          </mxGeometry>
        </mxCell>
        <mxCell id="o0yWpi5MKIpP_BuuhKoA-9" value="&lt;font style=&quot;font-size: 14px&quot;&gt;0x0A&lt;/font&gt;" style="html=1;shadow=0;dashed=0;shape=mxgraph.bootstrap.rrect;rSize=5;strokeColor=#33A64C;strokeWidth=1;fillColor=none;fontColor=#33A64C;whiteSpace=wrap;align=center;verticalAlign=middle;spacingLeft=0;fontStyle=0;fontSize=16;spacing=5;" parent="hYhFItrxCvdBytH4EcYR-1" vertex="1">
          <mxGeometry x="670" y="320" width="70" height="30" as="geometry" />
        </mxCell>
      </root>
    </mxGraphModel>
  </diagram>
  <diagram id="S9140V9tItRT745zsbVo" name="Collector Hardware Log Message Protocol">
    <mxGraphModel dx="1206" dy="809" grid="1" gridSize="10" guides="1" tooltips="1" connect="1" arrows="1" fold="1" page="1" pageScale="1" pageWidth="827" pageHeight="1169" math="0" shadow="0">
      <root>
        <mxCell id="d3xzHw7AweOUWlqvB76Z-0" />
        <mxCell id="d3xzHw7AweOUWlqvB76Z-1" parent="d3xzHw7AweOUWlqvB76Z-0" />
        <mxCell id="O-yzSkfdPEXAncA0g0d5-0" value="&lt;b&gt;Collector Hardware Log Message Protocol&lt;br&gt;&lt;/b&gt;" style="html=1;shadow=0;dashed=0;shape=mxgraph.bootstrap.rrect;rSize=5;strokeColor=#B8DCFE;strokeWidth=1;fillColor=#CCE7FE;fontColor=#004583;whiteSpace=wrap;align=left;verticalAlign=middle;spacingLeft=10;fontSize=14;" parent="d3xzHw7AweOUWlqvB76Z-1" vertex="1">
          <mxGeometry x="40" width="840" height="30" as="geometry" />
        </mxCell>
        <mxCell id="r9LCECXU6QbGdZUFIfxE-0" value="&lt;div style=&quot;text-align: justify&quot;&gt;&lt;br&gt;&lt;/div&gt;" style="html=1;shadow=0;dashed=0;shape=mxgraph.bootstrap.rrect;rSize=5;strokeColor=#188C9C;html=1;whiteSpace=wrap;fillColor=#1CA5B8;fontColor=#ffffff;verticalAlign=bottom;align=center;spacing=20;spacingBottom=0;fontSize=14;" parent="d3xzHw7AweOUWlqvB76Z-1" vertex="1">
          <mxGeometry x="40" y="40" width="560" height="200" as="geometry" />
        </mxCell>
        <mxCell id="r9LCECXU6QbGdZUFIfxE-1" value="Boot Log Message(string)" style="html=1;shadow=0;dashed=0;shape=mxgraph.bootstrap.topButton;rSize=5;perimeter=none;whiteSpace=wrap;fillColor=#1BA0B2;strokeColor=#188C9C;fontColor=#ffffff;resizeWidth=1;fontSize=18;align=left;spacing=20;" parent="r9LCECXU6QbGdZUFIfxE-0" vertex="1">
          <mxGeometry width="559.9999999999999" height="50" relative="1" as="geometry" />
        </mxCell>
        <mxCell id="9CBg3_YPQT8xg06NK6EW-6" value="####################################################################&lt;br style=&quot;font-size: 14px;&quot;&gt;Collector Program Start Running&lt;br style=&quot;font-size: 14px;&quot;&gt;CollectorID:XXXXXXXX&lt;br style=&quot;font-size: 14px;&quot;&gt;Using USART3,Configuration:115200 8-N-1&lt;br style=&quot;font-size: 14px;&quot;&gt;USART RX Method: DMA HT &amp;amp; TC + USART IDLE LINE IRQ + RTOS processing&lt;br style=&quot;font-size: 14px;&quot;&gt;####################################################################" style="text;html=1;align=left;verticalAlign=middle;resizable=0;points=[];autosize=1;strokeColor=none;fillColor=none;fontSize=14;" parent="r9LCECXU6QbGdZUFIfxE-0" vertex="1">
          <mxGeometry x="10" y="70" width="540" height="110" as="geometry" />
        </mxCell>
        <mxCell id="9CBg3_YPQT8xg06NK6EW-7" value="&lt;b&gt;---- Radio Frequency Command Protocol&amp;nbsp;&lt;/b&gt;" style="html=1;shadow=0;dashed=0;shape=mxgraph.bootstrap.rrect;rSize=5;strokeColor=none;strokeWidth=1;fillColor=#E0F0D6;fontColor=#59B958;whiteSpace=wrap;align=left;verticalAlign=middle;spacingLeft=10;" parent="d3xzHw7AweOUWlqvB76Z-1" vertex="1">
          <mxGeometry x="40" y="280" width="840" height="30" as="geometry" />
        </mxCell>
        <mxCell id="9CBg3_YPQT8xg06NK6EW-8" value="&lt;span style=&quot;font-size: 20px&quot;&gt;&lt;b&gt;String Tail&lt;br&gt;&lt;/b&gt;&lt;/span&gt;&lt;br style=&quot;font-size: 14px&quot;&gt;Response log message string tail." style="html=1;shadow=0;dashed=0;shape=mxgraph.bootstrap.rrect;rSize=5;strokeColor=#D89F20;html=1;whiteSpace=wrap;fillColor=#FFBC26;fontColor=#ffffff;verticalAlign=bottom;align=left;spacing=20;spacingBottom=0;fontSize=14;" parent="d3xzHw7AweOUWlqvB76Z-1" vertex="1">
          <mxGeometry x="720" y="320" width="160" height="200" as="geometry" />
        </mxCell>
        <mxCell id="9CBg3_YPQT8xg06NK6EW-9" value="Tail" style="html=1;shadow=0;dashed=0;shape=mxgraph.bootstrap.topButton;rSize=5;perimeter=none;whiteSpace=wrap;fillColor=#F7B625;strokeColor=#D89F20;fontColor=#ffffff;resizeWidth=1;fontSize=18;align=left;spacing=20;" parent="9CBg3_YPQT8xg06NK6EW-8" vertex="1">
          <mxGeometry width="160" height="50" relative="1" as="geometry" />
        </mxCell>
        <mxCell id="A-9a92wXTu-O-8rglXNh-0" value="&lt;span style=&quot;font-size: 16px ; font-weight: 400&quot;&gt;byte18&lt;/span&gt;" style="rounded=1;whiteSpace=wrap;html=1;arcSize=50;strokeColor=none;strokeWidth=1;fillColor=#343A40;fontColor=#ffffff;whiteSpace=wrap;align=center;verticalAlign=middle;spacingLeft=0;fontStyle=1;fontSize=14;spacing=10;" parent="9CBg3_YPQT8xg06NK6EW-8" vertex="1">
          <mxGeometry y="49.99666666666667" width="67.2" height="33.333333333333336" as="geometry" />
        </mxCell>
        <mxCell id="A-9a92wXTu-O-8rglXNh-1" value="&lt;span style=&quot;font-size: 16px ; font-weight: 400&quot;&gt;byte19&lt;br&gt;&lt;/span&gt;" style="rounded=1;whiteSpace=wrap;html=1;arcSize=50;strokeColor=none;strokeWidth=1;fillColor=#343A40;fontColor=#ffffff;whiteSpace=wrap;align=center;verticalAlign=middle;spacingLeft=0;fontStyle=1;fontSize=14;spacing=10;" parent="9CBg3_YPQT8xg06NK6EW-8" vertex="1">
          <mxGeometry x="67.20000000000005" y="49.99666666666667" width="67.2" height="33.333333333333336" as="geometry" />
        </mxCell>
        <mxCell id="9CBg3_YPQT8xg06NK6EW-12" value="&lt;div style=&quot;text-align: justify&quot;&gt;&lt;br&gt;&lt;/div&gt;" style="html=1;shadow=0;dashed=0;shape=mxgraph.bootstrap.rrect;rSize=5;strokeColor=#188C9C;html=1;whiteSpace=wrap;fillColor=#1CA5B8;fontColor=#ffffff;verticalAlign=bottom;align=center;spacing=20;spacingBottom=0;fontSize=14;" parent="d3xzHw7AweOUWlqvB76Z-1" vertex="1">
          <mxGeometry x="40" y="320" width="680" height="200" as="geometry" />
        </mxCell>
        <mxCell id="9CBg3_YPQT8xg06NK6EW-13" value="Radio Frequency Command Response Log Message(string)" style="html=1;shadow=0;dashed=0;shape=mxgraph.bootstrap.topButton;rSize=5;perimeter=none;whiteSpace=wrap;fillColor=#1BA0B2;strokeColor=#188C9C;fontColor=#ffffff;resizeWidth=1;fontSize=18;align=left;spacing=20;" parent="9CBg3_YPQT8xg06NK6EW-12" vertex="1">
          <mxGeometry width="680" height="50" relative="1" as="geometry" />
        </mxCell>
        <mxCell id="mu40aSmgzG6TcLg_XBzQ-5" value="When software send radio frequency command to collector, the CollectorID is right, then collector response log message as follows." style="html=1;shadow=0;dashed=0;shape=mxgraph.bootstrap.rrect;rSize=5;strokeColor=#CED4DA;html=1;whiteSpace=wrap;fillColor=#FFFFFF;fontColor=#7D868C;align=left;spacing=15;spacingLeft=40;fontSize=14;" parent="9CBg3_YPQT8xg06NK6EW-12" vertex="1">
          <mxGeometry y="50" width="680" height="40" as="geometry" />
        </mxCell>
        <mxCell id="mu40aSmgzG6TcLg_XBzQ-6" value="" style="html=1;shadow=0;dashed=0;shape=mxgraph.bootstrap.leftButton;strokeColor=inherit;gradientColor=inherit;fontColor=inherit;fillColor=#E9ECEF;rSize=5;perimeter=none;whiteSpace=wrap;resizeHeight=1;fontSize=14;" parent="mu40aSmgzG6TcLg_XBzQ-5" vertex="1">
          <mxGeometry width="34" height="40" as="geometry" />
        </mxCell>
        <mxCell id="mu40aSmgzG6TcLg_XBzQ-7" value="" style="html=1;shadow=0;dashed=0;shape=mxgraph.bootstrap.radioButton2;labelPosition=right;verticalLabelPosition=middle;align=left;verticalAlign=middle;gradientColor=#DEDEDE;fillColor=#EDEDED;strokeColor=#A6A6A6;checked=0;spacing=5;checkedFill=#0085FC;checkedStroke=#ffffff;fontSize=14;" parent="mu40aSmgzG6TcLg_XBzQ-6" vertex="1">
          <mxGeometry x="0.5" y="0.5" width="10" height="10" relative="1" as="geometry">
            <mxPoint x="-5" y="-5" as="offset" />
          </mxGeometry>
        </mxCell>
        <mxCell id="qz1AMhhM4xYMDNOExPir-0" value="When software send radio frequency command to collector, the CollectorID is right, but the FunctionID is unused, then collector response log message as follows." style="html=1;shadow=0;dashed=0;shape=mxgraph.bootstrap.rrect;rSize=5;strokeColor=#CED4DA;html=1;whiteSpace=wrap;fillColor=#FFFFFF;fontColor=#7D868C;align=left;spacing=15;spacingLeft=40;fontSize=14;" parent="9CBg3_YPQT8xg06NK6EW-12" vertex="1">
          <mxGeometry y="120" width="680" height="40" as="geometry" />
        </mxCell>
        <mxCell id="qz1AMhhM4xYMDNOExPir-1" value="" style="html=1;shadow=0;dashed=0;shape=mxgraph.bootstrap.leftButton;strokeColor=inherit;gradientColor=inherit;fontColor=inherit;fillColor=#E9ECEF;rSize=5;perimeter=none;whiteSpace=wrap;resizeHeight=1;fontSize=14;" parent="qz1AMhhM4xYMDNOExPir-0" vertex="1">
          <mxGeometry width="34" height="40" as="geometry" />
        </mxCell>
        <mxCell id="qz1AMhhM4xYMDNOExPir-2" value="" style="html=1;shadow=0;dashed=0;shape=mxgraph.bootstrap.radioButton2;labelPosition=right;verticalLabelPosition=middle;align=left;verticalAlign=middle;gradientColor=#DEDEDE;fillColor=#EDEDED;strokeColor=#A6A6A6;checked=0;spacing=5;checkedFill=#0085FC;checkedStroke=#ffffff;fontSize=14;" parent="qz1AMhhM4xYMDNOExPir-1" vertex="1">
          <mxGeometry x="0.5" y="0.5" width="10" height="10" relative="1" as="geometry">
            <mxPoint x="-5" y="-5" as="offset" />
          </mxGeometry>
        </mxCell>
        <mxCell id="qz1AMhhM4xYMDNOExPir-3" value="FunctionID Unused" style="text;html=1;align=left;verticalAlign=middle;resizable=0;points=[];autosize=1;strokeColor=none;fillColor=none;fontSize=14;" parent="9CBg3_YPQT8xg06NK6EW-12" vertex="1">
          <mxGeometry x="60.71428571428571" y="165" width="140" height="20" as="geometry" />
        </mxCell>
        <mxCell id="9CBg3_YPQT8xg06NK6EW-14" value="CollectorID Right" style="text;html=1;align=left;verticalAlign=middle;resizable=0;points=[];autosize=1;strokeColor=none;fillColor=none;fontSize=14;" parent="9CBg3_YPQT8xg06NK6EW-12" vertex="1">
          <mxGeometry x="60.71428571428571" y="95" width="120" height="20" as="geometry" />
        </mxCell>
        <mxCell id="9CBg3_YPQT8xg06NK6EW-15" value="byte18" style="html=1;shadow=0;dashed=0;shape=mxgraph.bootstrap.rrect;rSize=5;strokeColor=none;strokeWidth=1;fillColor=#33A64C;fontColor=#ffffff;whiteSpace=wrap;align=left;verticalAlign=middle;fontStyle=0;fontSize=14;spacingLeft=10;" parent="d3xzHw7AweOUWlqvB76Z-1" vertex="1">
          <mxGeometry x="720" y="530" width="70" height="30" as="geometry" />
        </mxCell>
        <mxCell id="9CBg3_YPQT8xg06NK6EW-16" value="" style="shape=triangle;direction=south;fillColor=#ffffff;strokeColor=none;perimeter=none;" parent="9CBg3_YPQT8xg06NK6EW-15" vertex="1">
          <mxGeometry x="1" y="0.5" width="10" height="5" relative="1" as="geometry">
            <mxPoint x="-17" y="-2.5" as="offset" />
          </mxGeometry>
        </mxCell>
        <mxCell id="9CBg3_YPQT8xg06NK6EW-17" value="&lt;font style=&quot;font-size: 14px&quot;&gt;0x0D&lt;/font&gt;" style="html=1;shadow=0;dashed=0;shape=mxgraph.bootstrap.rrect;rSize=5;strokeColor=#33A64C;strokeWidth=1;fillColor=none;fontColor=#33A64C;whiteSpace=wrap;align=center;verticalAlign=middle;spacingLeft=0;fontStyle=0;fontSize=16;spacing=5;" parent="d3xzHw7AweOUWlqvB76Z-1" vertex="1">
          <mxGeometry x="720" y="560" width="70" height="30" as="geometry" />
        </mxCell>
        <mxCell id="9CBg3_YPQT8xg06NK6EW-18" value="byte19" style="html=1;shadow=0;dashed=0;shape=mxgraph.bootstrap.rrect;rSize=5;strokeColor=none;strokeWidth=1;fillColor=#33A64C;fontColor=#ffffff;whiteSpace=wrap;align=left;verticalAlign=middle;fontStyle=0;fontSize=14;spacingLeft=10;" parent="d3xzHw7AweOUWlqvB76Z-1" vertex="1">
          <mxGeometry x="790" y="530" width="70" height="30" as="geometry" />
        </mxCell>
        <mxCell id="9CBg3_YPQT8xg06NK6EW-19" value="" style="shape=triangle;direction=south;fillColor=#ffffff;strokeColor=none;perimeter=none;" parent="9CBg3_YPQT8xg06NK6EW-18" vertex="1">
          <mxGeometry x="1" y="0.5" width="10" height="5" relative="1" as="geometry">
            <mxPoint x="-17" y="-2.5" as="offset" />
          </mxGeometry>
        </mxCell>
        <mxCell id="9CBg3_YPQT8xg06NK6EW-20" value="&lt;font style=&quot;font-size: 14px&quot;&gt;0x0A&lt;/font&gt;" style="html=1;shadow=0;dashed=0;shape=mxgraph.bootstrap.rrect;rSize=5;strokeColor=#33A64C;strokeWidth=1;fillColor=none;fontColor=#33A64C;whiteSpace=wrap;align=center;verticalAlign=middle;spacingLeft=0;fontStyle=0;fontSize=16;spacing=5;" parent="d3xzHw7AweOUWlqvB76Z-1" vertex="1">
          <mxGeometry x="790" y="560" width="70" height="30" as="geometry" />
        </mxCell>
        <mxCell id="w8Niy5g3brNGioDo_nar-0" value="&lt;b&gt;---- Memory Command Protocol&amp;nbsp;&lt;/b&gt;" style="html=1;shadow=0;dashed=0;shape=mxgraph.bootstrap.rrect;rSize=5;strokeColor=none;strokeWidth=1;fillColor=#E0F0D6;fontColor=#59B958;whiteSpace=wrap;align=left;verticalAlign=middle;spacingLeft=10;" parent="d3xzHw7AweOUWlqvB76Z-1" vertex="1">
          <mxGeometry x="40" y="600" width="840" height="30" as="geometry" />
        </mxCell>
        <mxCell id="w8Niy5g3brNGioDo_nar-1" value="&lt;span style=&quot;font-size: 20px&quot;&gt;&lt;b&gt;String Tail&lt;br&gt;&lt;/b&gt;&lt;/span&gt;&lt;br style=&quot;font-size: 14px&quot;&gt;Response log message string tail." style="html=1;shadow=0;dashed=0;shape=mxgraph.bootstrap.rrect;rSize=5;strokeColor=#D89F20;html=1;whiteSpace=wrap;fillColor=#FFBC26;fontColor=#ffffff;verticalAlign=bottom;align=left;spacing=20;spacingBottom=0;fontSize=14;" parent="d3xzHw7AweOUWlqvB76Z-1" vertex="1">
          <mxGeometry x="720" y="640" width="160" height="200" as="geometry" />
        </mxCell>
        <mxCell id="w8Niy5g3brNGioDo_nar-2" value="Tail" style="html=1;shadow=0;dashed=0;shape=mxgraph.bootstrap.topButton;rSize=5;perimeter=none;whiteSpace=wrap;fillColor=#F7B625;strokeColor=#D89F20;fontColor=#ffffff;resizeWidth=1;fontSize=18;align=left;spacing=20;" parent="w8Niy5g3brNGioDo_nar-1" vertex="1">
          <mxGeometry width="160" height="50" relative="1" as="geometry" />
        </mxCell>
        <mxCell id="w8Niy5g3brNGioDo_nar-3" value="&lt;span style=&quot;font-size: 16px ; font-weight: 400&quot;&gt;byteXX&lt;/span&gt;" style="rounded=1;whiteSpace=wrap;html=1;arcSize=50;strokeColor=none;strokeWidth=1;fillColor=#343A40;fontColor=#ffffff;whiteSpace=wrap;align=center;verticalAlign=middle;spacingLeft=0;fontStyle=1;fontSize=14;spacing=10;" parent="w8Niy5g3brNGioDo_nar-1" vertex="1">
          <mxGeometry y="49.99666666666667" width="67.2" height="33.333333333333336" as="geometry" />
        </mxCell>
        <mxCell id="w8Niy5g3brNGioDo_nar-4" value="&lt;span style=&quot;font-size: 16px ; font-weight: 400&quot;&gt;byteXX&lt;br&gt;&lt;/span&gt;" style="rounded=1;whiteSpace=wrap;html=1;arcSize=50;strokeColor=none;strokeWidth=1;fillColor=#343A40;fontColor=#ffffff;whiteSpace=wrap;align=center;verticalAlign=middle;spacingLeft=0;fontStyle=1;fontSize=14;spacing=10;" parent="w8Niy5g3brNGioDo_nar-1" vertex="1">
          <mxGeometry x="67.20000000000005" y="49.99666666666667" width="67.2" height="33.333333333333336" as="geometry" />
        </mxCell>
        <mxCell id="w8Niy5g3brNGioDo_nar-5" value="&lt;div style=&quot;text-align: justify&quot;&gt;&lt;br&gt;&lt;/div&gt;" style="html=1;shadow=0;dashed=0;shape=mxgraph.bootstrap.rrect;rSize=5;strokeColor=#188C9C;html=1;whiteSpace=wrap;fillColor=#1CA5B8;fontColor=#ffffff;verticalAlign=bottom;align=center;spacing=20;spacingBottom=0;fontSize=14;" parent="d3xzHw7AweOUWlqvB76Z-1" vertex="1">
          <mxGeometry x="40" y="640" width="680" height="400" as="geometry" />
        </mxCell>
        <mxCell id="w8Niy5g3brNGioDo_nar-6" value="Memory Command Response Log Message(string)" style="html=1;shadow=0;dashed=0;shape=mxgraph.bootstrap.topButton;rSize=5;perimeter=none;whiteSpace=wrap;fillColor=#1BA0B2;strokeColor=#188C9C;fontColor=#ffffff;resizeWidth=1;fontSize=18;align=left;spacing=20;" parent="w8Niy5g3brNGioDo_nar-5" vertex="1">
          <mxGeometry width="680" height="50" relative="1" as="geometry" />
        </mxCell>
        <mxCell id="w8Niy5g3brNGioDo_nar-7" value="When software send memory command to collector, the Header is right, then collector response log message as follows." style="html=1;shadow=0;dashed=0;shape=mxgraph.bootstrap.rrect;rSize=5;strokeColor=#CED4DA;html=1;whiteSpace=wrap;fillColor=#FFFFFF;fontColor=#7D868C;align=left;spacing=15;spacingLeft=40;fontSize=14;" parent="w8Niy5g3brNGioDo_nar-5" vertex="1">
          <mxGeometry y="50" width="680" height="40" as="geometry" />
        </mxCell>
        <mxCell id="w8Niy5g3brNGioDo_nar-8" value="" style="html=1;shadow=0;dashed=0;shape=mxgraph.bootstrap.leftButton;strokeColor=inherit;gradientColor=inherit;fontColor=inherit;fillColor=#E9ECEF;rSize=5;perimeter=none;whiteSpace=wrap;resizeHeight=1;fontSize=14;" parent="w8Niy5g3brNGioDo_nar-7" vertex="1">
          <mxGeometry width="34" height="40" as="geometry" />
        </mxCell>
        <mxCell id="w8Niy5g3brNGioDo_nar-9" value="" style="html=1;shadow=0;dashed=0;shape=mxgraph.bootstrap.radioButton2;labelPosition=right;verticalLabelPosition=middle;align=left;verticalAlign=middle;gradientColor=#DEDEDE;fillColor=#EDEDED;strokeColor=#A6A6A6;checked=0;spacing=5;checkedFill=#0085FC;checkedStroke=#ffffff;fontSize=14;" parent="w8Niy5g3brNGioDo_nar-8" vertex="1">
          <mxGeometry x="0.5" y="0.5" width="10" height="10" relative="1" as="geometry">
            <mxPoint x="-5" y="-5" as="offset" />
          </mxGeometry>
        </mxCell>
        <mxCell id="w8Niy5g3brNGioDo_nar-10" value="When software send memory command to collector, the Header is right and write memory complete, then collector response log message as follows." style="html=1;shadow=0;dashed=0;shape=mxgraph.bootstrap.rrect;rSize=5;strokeColor=#CED4DA;html=1;whiteSpace=wrap;fillColor=#FFFFFF;fontColor=#7D868C;align=left;spacing=15;spacingLeft=40;fontSize=14;" parent="w8Niy5g3brNGioDo_nar-5" vertex="1">
          <mxGeometry y="120" width="680" height="40" as="geometry" />
        </mxCell>
        <mxCell id="w8Niy5g3brNGioDo_nar-11" value="" style="html=1;shadow=0;dashed=0;shape=mxgraph.bootstrap.leftButton;strokeColor=inherit;gradientColor=inherit;fontColor=inherit;fillColor=#E9ECEF;rSize=5;perimeter=none;whiteSpace=wrap;resizeHeight=1;fontSize=14;" parent="w8Niy5g3brNGioDo_nar-10" vertex="1">
          <mxGeometry width="34" height="40" as="geometry" />
        </mxCell>
        <mxCell id="w8Niy5g3brNGioDo_nar-12" value="" style="html=1;shadow=0;dashed=0;shape=mxgraph.bootstrap.radioButton2;labelPosition=right;verticalLabelPosition=middle;align=left;verticalAlign=middle;gradientColor=#DEDEDE;fillColor=#EDEDED;strokeColor=#A6A6A6;checked=0;spacing=5;checkedFill=#0085FC;checkedStroke=#ffffff;fontSize=14;" parent="w8Niy5g3brNGioDo_nar-11" vertex="1">
          <mxGeometry x="0.5" y="0.5" width="10" height="10" relative="1" as="geometry">
            <mxPoint x="-5" y="-5" as="offset" />
          </mxGeometry>
        </mxCell>
        <mxCell id="w8Niy5g3brNGioDo_nar-13" value="Write Memory Complete" style="text;html=1;align=left;verticalAlign=middle;resizable=0;points=[];autosize=1;strokeColor=none;fillColor=none;fontSize=14;" parent="w8Niy5g3brNGioDo_nar-5" vertex="1">
          <mxGeometry x="60.71428571428571" y="164" width="170" height="20" as="geometry" />
        </mxCell>
        <mxCell id="w8Niy5g3brNGioDo_nar-14" value="Header Right" style="text;html=1;align=left;verticalAlign=middle;resizable=0;points=[];autosize=1;strokeColor=none;fillColor=none;fontSize=14;" parent="w8Niy5g3brNGioDo_nar-5" vertex="1">
          <mxGeometry x="60.71428571428571" y="94" width="100" height="20" as="geometry" />
        </mxCell>
        <mxCell id="w8Niy5g3brNGioDo_nar-21" value="When software send memory command to collector, the Header is right and write memory complete, then collector response log message as follows." style="html=1;shadow=0;dashed=0;shape=mxgraph.bootstrap.rrect;rSize=5;strokeColor=#CED4DA;html=1;whiteSpace=wrap;fillColor=#FFFFFF;fontColor=#7D868C;align=left;spacing=15;spacingLeft=40;fontSize=14;" parent="w8Niy5g3brNGioDo_nar-5" vertex="1">
          <mxGeometry y="190" width="680" height="40" as="geometry" />
        </mxCell>
        <mxCell id="w8Niy5g3brNGioDo_nar-22" value="" style="html=1;shadow=0;dashed=0;shape=mxgraph.bootstrap.leftButton;strokeColor=inherit;gradientColor=inherit;fontColor=inherit;fillColor=#E9ECEF;rSize=5;perimeter=none;whiteSpace=wrap;resizeHeight=1;fontSize=14;" parent="w8Niy5g3brNGioDo_nar-21" vertex="1">
          <mxGeometry width="34" height="40" as="geometry" />
        </mxCell>
        <mxCell id="w8Niy5g3brNGioDo_nar-23" value="" style="html=1;shadow=0;dashed=0;shape=mxgraph.bootstrap.radioButton2;labelPosition=right;verticalLabelPosition=middle;align=left;verticalAlign=middle;gradientColor=#DEDEDE;fillColor=#EDEDED;strokeColor=#A6A6A6;checked=0;spacing=5;checkedFill=#0085FC;checkedStroke=#ffffff;fontSize=14;" parent="w8Niy5g3brNGioDo_nar-22" vertex="1">
          <mxGeometry x="0.5" y="0.5" width="10" height="10" relative="1" as="geometry">
            <mxPoint x="-5" y="-5" as="offset" />
          </mxGeometry>
        </mxCell>
        <mxCell id="w8Niy5g3brNGioDo_nar-24" value="When software send memory command to collector, the Header is right and write memory complete, then collector response log message as follows." style="html=1;shadow=0;dashed=0;shape=mxgraph.bootstrap.rrect;rSize=5;strokeColor=#CED4DA;html=1;whiteSpace=wrap;fillColor=#FFFFFF;fontColor=#7D868C;align=left;spacing=15;spacingLeft=40;fontSize=14;" parent="w8Niy5g3brNGioDo_nar-5" vertex="1">
          <mxGeometry y="260" width="680" height="40" as="geometry" />
        </mxCell>
        <mxCell id="w8Niy5g3brNGioDo_nar-25" value="" style="html=1;shadow=0;dashed=0;shape=mxgraph.bootstrap.leftButton;strokeColor=inherit;gradientColor=inherit;fontColor=inherit;fillColor=#E9ECEF;rSize=5;perimeter=none;whiteSpace=wrap;resizeHeight=1;fontSize=14;" parent="w8Niy5g3brNGioDo_nar-24" vertex="1">
          <mxGeometry width="34" height="40" as="geometry" />
        </mxCell>
        <mxCell id="w8Niy5g3brNGioDo_nar-26" value="" style="html=1;shadow=0;dashed=0;shape=mxgraph.bootstrap.radioButton2;labelPosition=right;verticalLabelPosition=middle;align=left;verticalAlign=middle;gradientColor=#DEDEDE;fillColor=#EDEDED;strokeColor=#A6A6A6;checked=0;spacing=5;checkedFill=#0085FC;checkedStroke=#ffffff;fontSize=14;" parent="w8Niy5g3brNGioDo_nar-25" vertex="1">
          <mxGeometry x="0.5" y="0.5" width="10" height="10" relative="1" as="geometry">
            <mxPoint x="-5" y="-5" as="offset" />
          </mxGeometry>
        </mxCell>
        <mxCell id="w8Niy5g3brNGioDo_nar-27" value="When software send memory command to collector, the Header is right and write memory complete, then collector response log message as follows." style="html=1;shadow=0;dashed=0;shape=mxgraph.bootstrap.rrect;rSize=5;strokeColor=#CED4DA;html=1;whiteSpace=wrap;fillColor=#FFFFFF;fontColor=#7D868C;align=left;spacing=15;spacingLeft=40;fontSize=14;" parent="w8Niy5g3brNGioDo_nar-5" vertex="1">
          <mxGeometry y="330" width="680" height="40" as="geometry" />
        </mxCell>
        <mxCell id="w8Niy5g3brNGioDo_nar-28" value="" style="html=1;shadow=0;dashed=0;shape=mxgraph.bootstrap.leftButton;strokeColor=inherit;gradientColor=inherit;fontColor=inherit;fillColor=#E9ECEF;rSize=5;perimeter=none;whiteSpace=wrap;resizeHeight=1;fontSize=14;" parent="w8Niy5g3brNGioDo_nar-27" vertex="1">
          <mxGeometry width="34" height="40" as="geometry" />
        </mxCell>
        <mxCell id="w8Niy5g3brNGioDo_nar-29" value="" style="html=1;shadow=0;dashed=0;shape=mxgraph.bootstrap.radioButton2;labelPosition=right;verticalLabelPosition=middle;align=left;verticalAlign=middle;gradientColor=#DEDEDE;fillColor=#EDEDED;strokeColor=#A6A6A6;checked=0;spacing=5;checkedFill=#0085FC;checkedStroke=#ffffff;fontSize=14;" parent="w8Niy5g3brNGioDo_nar-28" vertex="1">
          <mxGeometry x="0.5" y="0.5" width="10" height="10" relative="1" as="geometry">
            <mxPoint x="-5" y="-5" as="offset" />
          </mxGeometry>
        </mxCell>
        <mxCell id="w8Niy5g3brNGioDo_nar-30" value="Read Memory Complete" style="text;html=1;align=left;verticalAlign=middle;resizable=0;points=[];autosize=1;strokeColor=none;fillColor=none;fontSize=14;" parent="w8Niy5g3brNGioDo_nar-5" vertex="1">
          <mxGeometry x="60.71428571428571" y="234" width="170" height="20" as="geometry" />
        </mxCell>
        <mxCell id="w8Niy5g3brNGioDo_nar-31" value="Erase All Memory Complete" style="text;html=1;align=left;verticalAlign=middle;resizable=0;points=[];autosize=1;strokeColor=none;fillColor=none;fontSize=14;" parent="w8Niy5g3brNGioDo_nar-5" vertex="1">
          <mxGeometry x="60.71428571428571" y="304" width="190" height="20" as="geometry" />
        </mxCell>
        <mxCell id="w8Niy5g3brNGioDo_nar-32" value="Print Memory Complete" style="text;html=1;align=left;verticalAlign=middle;resizable=0;points=[];autosize=1;strokeColor=none;fillColor=none;fontSize=14;" parent="w8Niy5g3brNGioDo_nar-5" vertex="1">
          <mxGeometry x="60.71428571428572" y="374" width="160" height="20" as="geometry" />
        </mxCell>
        <mxCell id="w8Niy5g3brNGioDo_nar-15" value="byteXX" style="html=1;shadow=0;dashed=0;shape=mxgraph.bootstrap.rrect;rSize=5;strokeColor=none;strokeWidth=1;fillColor=#33A64C;fontColor=#ffffff;whiteSpace=wrap;align=left;verticalAlign=middle;fontStyle=0;fontSize=14;spacingLeft=10;" parent="d3xzHw7AweOUWlqvB76Z-1" vertex="1">
          <mxGeometry x="720" y="850" width="70" height="30" as="geometry" />
        </mxCell>
        <mxCell id="w8Niy5g3brNGioDo_nar-16" value="" style="shape=triangle;direction=south;fillColor=#ffffff;strokeColor=none;perimeter=none;" parent="w8Niy5g3brNGioDo_nar-15" vertex="1">
          <mxGeometry x="1" y="0.5" width="10" height="5" relative="1" as="geometry">
            <mxPoint x="-17" y="-2.5" as="offset" />
          </mxGeometry>
        </mxCell>
        <mxCell id="w8Niy5g3brNGioDo_nar-17" value="&lt;font style=&quot;font-size: 14px&quot;&gt;0x0D&lt;/font&gt;" style="html=1;shadow=0;dashed=0;shape=mxgraph.bootstrap.rrect;rSize=5;strokeColor=#33A64C;strokeWidth=1;fillColor=none;fontColor=#33A64C;whiteSpace=wrap;align=center;verticalAlign=middle;spacingLeft=0;fontStyle=0;fontSize=16;spacing=5;" parent="d3xzHw7AweOUWlqvB76Z-1" vertex="1">
          <mxGeometry x="720" y="880" width="70" height="30" as="geometry" />
        </mxCell>
        <mxCell id="w8Niy5g3brNGioDo_nar-18" value="byteXX" style="html=1;shadow=0;dashed=0;shape=mxgraph.bootstrap.rrect;rSize=5;strokeColor=none;strokeWidth=1;fillColor=#33A64C;fontColor=#ffffff;whiteSpace=wrap;align=left;verticalAlign=middle;fontStyle=0;fontSize=14;spacingLeft=10;" parent="d3xzHw7AweOUWlqvB76Z-1" vertex="1">
          <mxGeometry x="790" y="850" width="70" height="30" as="geometry" />
        </mxCell>
        <mxCell id="w8Niy5g3brNGioDo_nar-19" value="" style="shape=triangle;direction=south;fillColor=#ffffff;strokeColor=none;perimeter=none;" parent="w8Niy5g3brNGioDo_nar-18" vertex="1">
          <mxGeometry x="1" y="0.5" width="10" height="5" relative="1" as="geometry">
            <mxPoint x="-17" y="-2.5" as="offset" />
          </mxGeometry>
        </mxCell>
        <mxCell id="w8Niy5g3brNGioDo_nar-20" value="&lt;font style=&quot;font-size: 14px&quot;&gt;0x0A&lt;/font&gt;" style="html=1;shadow=0;dashed=0;shape=mxgraph.bootstrap.rrect;rSize=5;strokeColor=#33A64C;strokeWidth=1;fillColor=none;fontColor=#33A64C;whiteSpace=wrap;align=center;verticalAlign=middle;spacingLeft=0;fontStyle=0;fontSize=16;spacing=5;" parent="d3xzHw7AweOUWlqvB76Z-1" vertex="1">
          <mxGeometry x="790" y="880" width="70" height="30" as="geometry" />
        </mxCell>
      </root>
    </mxGraphModel>
  </diagram>
</mxfile>
